<?xml version="1.0" standalone="no"?>
<!DOCTYPE svg PUBLIC "-//W3C//DTD SVG 1.1//EN" "http://www.w3.org/Graphics/SVG/1.1/DTD/svg11.dtd" >
<svg xmlns="http://www.w3.org/2000/svg" xmlns:xlink="http://www.w3.org/1999/xlink" version="1.1">
<metadata>
Created by FontForge 20170731 at Mon Aug 16 21:09:15 2021
 By Aleksey,,,
Copyright 2020 The Hahmlet Project Authors (https://github.com/hyper-type/hahmlet)
</metadata>
<defs>
<font id="Hahmlet-Thin" horiz-adv-x="930" >
  <font-face 
    font-family="Hahmlet Thin"
    font-weight="100"
    font-stretch="normal"
    units-per-em="1000"
    panose-1="2 2 2 1 5 4 0 0 0 3"
    ascent="880"
    descent="-120"
    x-height="486"
    cap-height="733"
    bbox="-215 -255 1896 1069"
    underline-thickness="50"
    underline-position="-175"
    unicode-range="U+000D-FB02"
  />
<missing-glyph horiz-adv-x="843" 
d="M90 -205v959h663v-959h-663zM164 705l259 -388l258 388h-517zM450 276l249 -374v748zM145 646v-746l248 373zM163 -155h515l-257 387z" />
    <glyph glyph-name="fi" unicode="fi" horiz-adv-x="654" 
d="M70 0q-6 0 -6 6v8q0 6 6 7l69 8q8 1 10.5 4.5t2.5 13.5v408h-86q-6 0 -5 6l3 10q1 6 7 7l81 8v28q0 67 26.5 117.5t75 79t113.5 28.5q48 0 75 -10.5t27 -24.5q0 -8 -5 -16q-3 -5 -9 -3q-18 7 -44 12.5t-55 5.5q-47 0 -85 -21t-60.5 -62.5t-22.5 -103.5v-30h245l65 5
q13 2 16.5 -1t3.5 -11v-436q0 -8 3.5 -10.5t13.5 -4.5l89 -7q6 -1 6 -7v-8q0 -6 -6 -6h-224q-6 0 -6 6v8q0 6 6 7l69 8q8 1 10.5 4.5t2.5 13.5v403q-22 4 -47 4.5t-52 0.5h-195v-412q0 -8 3.5 -10.5t13.5 -4.5l89 -7q6 -1 6 -7v-8q0 -6 -6 -6h-224z" />
    <glyph glyph-name="fl" unicode="fl" horiz-adv-x="647" 
d="M67 0q-6 0 -6 6v8q0 6 6 7l69 8q8 1 10.5 4.5t2.5 13.5v408h-80q-6 0 -5 6l3 10q1 6 7 7l75 7v29q0 67 28 117.5t78.5 79t118.5 28.5q35 0 65.5 -6.5t50.5 -12.5l15 4q13 2 16.5 0t3.5 -10v-534h1v-137q0 -8 3.5 -10.5t13.5 -4.5l89 -7q6 -1 6 -7v-8q0 -6 -6 -6h-224
q-6 0 -6 6v8q0 6 6 7l69 8q10 1 12 8v637q-24 11 -56 19.5t-70 8.5q-49 0 -89.5 -21t-64.5 -62t-24 -103v-30h123l41 2q6 0 6 -6v-10.5t-1 -10.5q-1 -6 -7 -6h-162v-412q0 -8 3.5 -10.5t13.5 -4.5l89 -7q6 -1 6 -7v-8q0 -6 -6 -6h-224z" />
    <glyph glyph-name="f_f" unicode="ff" horiz-adv-x="729" 
d="M70 0q-6 0 -6 6v8q0 6 6 7l69 8q8 1 10.5 4.5t2.5 13.5v408h-86q-6 0 -5 6l3 10q1 6 7 7l81 8v28q0 62 24 109.5t67 74.5t99 27q50 0 68.5 -10t18.5 -22q0 -11 -6 -20q-3 -6 -8 -3q-16 8 -38 13t-51 5q-57 0 -97.5 -43t-40.5 -129v-30h305v28q0 68 25.5 118.5t70.5 78.5
t105 28q41 0 64 -8.5t23 -23.5q0 -11 -6 -20q-3 -6 -8 -3q-16 8 -37.5 13t-46.5 5q-70 0 -112 -50.5t-42 -135.5v-30h137l41 2q6 0 6 -6v-10.5t-1 -10.5q-1 -6 -7 -6h-176v-412q0 -8 3.5 -10.5t13.5 -4.5l89 -7q6 -1 6 -7v-8q0 -6 -6 -6h-224q-6 0 -6 6v8q0 6 6 7l69 8
q8 1 10.5 4.5t2.5 13.5v408h-305v-412q0 -8 3.5 -10.5t13.5 -4.5l89 -7q6 -1 6 -7v-8q0 -6 -6 -6h-224z" />
    <glyph glyph-name="f_f_i" unicode="ffi" horiz-adv-x="984" 
d="M70 0q-6 0 -6 6v8q0 6 6 7l69 8q8 1 10.5 4.5t2.5 13.5v408h-86q-6 0 -5 6l3 10q1 6 7 7l81 8v28q0 62 24 109.5t67 74.5t99 27q50 0 68.5 -10t18.5 -22q0 -11 -6 -20q-3 -6 -8 -3q-16 8 -38 13t-51 5q-57 0 -97.5 -43t-40.5 -129v-30h294v28q0 67 26.5 117.5t75 79
t113.5 28.5q48 0 75 -10.5t27 -24.5q0 -8 -5 -16q-3 -5 -9 -3q-18 7 -44 12.5t-55 5.5q-47 0 -85 -21t-60.5 -62.5t-22.5 -103.5v-30h245l65 5q13 2 16.5 -1t3.5 -11v-436q0 -8 3.5 -10.5t13.5 -4.5l89 -7q6 -1 6 -7v-8q0 -6 -6 -6h-224q-6 0 -6 6v8q0 6 6 7l69 8
q8 1 10.5 4.5t2.5 13.5v403q-22 4 -47 4.5t-52 0.5h-195v-412q0 -8 3.5 -10.5t13.5 -4.5l89 -7q6 -1 6 -7v-8q0 -6 -6 -6h-224q-6 0 -6 6v8q0 6 6 7l69 8q8 1 10.5 4.5t2.5 13.5v408h-294v-412q0 -8 3.5 -10.5t13.5 -4.5l89 -7q6 -1 6 -7v-8q0 -6 -6 -6h-224z" />
    <glyph glyph-name="f_f_l" unicode="ffl" horiz-adv-x="991" 
d="M70 0q-6 0 -6 6v8q0 6 6 7l69 8q8 1 10.5 4.5t2.5 13.5v408h-86q-6 0 -5 6l3 10q1 6 7 7l81 8v28q0 62 24 109.5t67 74.5t99 27q50 0 68.5 -10t18.5 -22q0 -11 -6 -20q-3 -6 -8 -3q-16 8 -38 13t-51 5q-57 0 -97.5 -43t-40.5 -129v-30h305v28q0 67 28 117.5t78.5 79
t118.5 28.5q35 0 65.5 -6.5t50.5 -12.5l15 4q13 2 16.5 0t3.5 -10v-534h1v-137q0 -8 3.5 -10.5t13.5 -4.5l89 -7q6 -1 6 -7v-8q0 -6 -6 -6h-224q-6 0 -6 6v8q0 6 6 7l69 8q10 1 12 8v637q-24 11 -56 19.5t-70 8.5q-49 0 -89.5 -21t-64.5 -62t-24 -103v-30h123l41 2q6 0 6 -6
v-10.5t-1 -10.5q-1 -6 -7 -6h-162v-412q0 -8 3.5 -10.5t13.5 -4.5l89 -7q6 -1 6 -7v-8q0 -6 -6 -6h-224q-6 0 -6 6v8q0 6 6 7l69 8q8 1 10.5 4.5t2.5 13.5v408h-305v-412q0 -8 3.5 -10.5t13.5 -4.5l89 -7q6 -1 6 -7v-8q0 -6 -6 -6h-224z" />
    <glyph glyph-name="f_j" unicode="fj" horiz-adv-x="600" 
d="M70 0q-6 0 -6 6v8q0 6 6 7l69 8q8 1 10.5 4.5t2.5 13.5v408h-86q-6 0 -5 6l3 10q1 6 7 7l81 8v28q0 67 26.5 117.5t75 79t113.5 28.5q48 0 75 -10.5t27 -24.5q0 -8 -5 -16q-3 -5 -9 -3q-18 7 -44 12.5t-55 5.5q-47 0 -85 -21t-60.5 -62.5t-22.5 -103.5v-30h245l65 5
q13 2 16.5 -1t3.5 -11v-393q0 -63 -11.5 -109.5t-46.5 -84t-106 -75.5q-4 -3 -8 2l-5 10q-3 4 2 8q59 34 89 68t40 77.5t10 103.5v364q-22 4 -47 4.5t-52 0.5h-195v-412q0 -8 3.5 -10.5t13.5 -4.5l89 -7q6 -1 6 -7v-8q0 -6 -6 -6h-224z" />
    <glyph glyph-name=".notdef" horiz-adv-x="843" 
d="M90 -205v959h663v-959h-663zM164 705l259 -388l258 388h-517zM450 276l249 -374v748zM145 646v-746l248 373zM163 -155h515l-257 387z" />
    <glyph glyph-name=".null" horiz-adv-x="0" 
 />
    <glyph glyph-name="nonmarkingreturn" horiz-adv-x="333" 
 />
    <glyph glyph-name="CR" unicode="&#xd;" horiz-adv-x="241" 
 />
    <glyph glyph-name="space" unicode=" " horiz-adv-x="241" 
 />
    <glyph glyph-name="exclam" unicode="!" horiz-adv-x="354" 
d="M178 170q-7 0 -9.5 3t-2.5 16q-2 65 -4.5 138.5t-3.5 180.5l-1 225q0 6 6 7q11 2 23 0q8 -1 10 -4t2 -16l-3 -212q0 -75 -1.5 -133t-3 -105.5t-2.5 -93.5q0 -6 -6 -6h-4zM177 -6q-19 0 -31 12t-12 30t12 30t31 12t31 -12t12 -30t-12 -30t-31 -12z" />
    <glyph glyph-name="quotedbl" unicode="&#x22;" horiz-adv-x="398" 
d="M120 514q-6 -1 -6 5q-1 29 -2.5 64.5t-3.5 70t-3.5 62t-3.5 39.5q-1 5 4 9q8 3 18 5t20 1q6 0 6 -6l-12 -240q0 -6 -6 -7zM268 514q-6 -1 -6 5q-1 29 -2.5 64.5t-3.5 70t-3.5 62t-3.5 39.5q-1 5 4 9q8 3 18 5t20 1q6 0 6 -6l-12 -240q0 -6 -6 -7z" />
    <glyph glyph-name="numbersign" unicode="#" horiz-adv-x="695" 
d="M38 264q1 6 7 6h163l31 189h-168q-6 0 -5 6l2 19q1 6 7 6h169l37 229q1 6 7 6h23q6 0 5 -6l-9 -35l-32 -194h165l37 229q1 6 7 6h23q6 0 5 -6l-9 -35l-32 -194h134l49 4q6 0 6 -6t-0.5 -11.5t-1.5 -11.5t-7 -6h-185l-31 -189h139l50 4q6 0 6 -6t-0.5 -11.5t-1.5 -11.5
t-7 -6h-192l-38 -233q-1 -6 -7 -6h-18q-6 0 -5 6l38 233h-166l-38 -233q-1 -6 -7 -6h-18q-6 0 -5 6l38 233h-162q-6 0 -5 6zM435 459h-165l-31 -189h165z" />
    <glyph glyph-name="dollar" unicode="$" horiz-adv-x="686" 
d="M313 -75q-1 -13 -3 -16t-10 -3h-13q-6 0 -6 6l7 102q-52 5 -98.5 20t-73.5 32q-5 3 -5 9l-11 121q0 6 6 6l12 2q6 0 7 -6l15 -61q8 -33 32 -52t56 -27.5t63 -11.5l23 320q-74 21 -117.5 45.5t-62 57t-18.5 77.5q0 80 58.5 125.5t164.5 48.5l6 92q1 8 2.5 10.5t8.5 2.5
q5 1 10 1.5t9 -0.5q6 -1 5 -7l-6 -23l-5 -76q59 -3 102 -22t61 -35q4 -4 5 -10l10 -118q1 -6 -5 -6l-16 -1q-6 0 -7 6l-19 79q-7 28 -29.5 44t-51 22.5t-52.5 8.5l-20 -296q84 -23 131.5 -49t66.5 -61.5t19 -86.5q0 -85 -63 -134t-174 -49h-8zM154 546q0 -53 36 -86t126 -59
l20 287q-182 -6 -182 -142zM527 194q0 44 -15.5 72.5t-55 49t-111.5 41.5l-23 -312h5q95 0 147.5 39.5t52.5 109.5z" />
    <glyph glyph-name="percent" unicode="%" horiz-adv-x="907" 
d="M713 772q4 5 9 3l14 -5q7 -2 7.5 -5.5t-7.5 -14.5l-526 -744l-14 -30q-4 -5 -9 -3l-15 5q-7 2 -7 6t7 14l525 742zM224 405q-69 0 -110.5 44t-41.5 117t41.5 117t110.5 44q70 0 111.5 -43.5t41.5 -117.5q0 -73 -41.5 -117t-111.5 -44zM225 431q53 0 84.5 37t31.5 98
q0 60 -32 97t-84 37q-53 0 -85 -36.5t-32 -97.5t32 -98t85 -37zM682 -6q-69 0 -110.5 44t-41.5 117t41.5 117t110.5 44q70 0 111.5 -43.5t41.5 -117.5q0 -73 -41.5 -117t-111.5 -44zM683 20q53 0 84.5 37t31.5 98q0 60 -32 97t-84 37q-53 0 -85 -36.5t-32 -97.5t32 -98
t85 -37z" />
    <glyph glyph-name="ampersand" unicode="&#x26;" horiz-adv-x="750" 
d="M262 -6q-61 0 -106.5 23.5t-71 63t-25.5 86.5q0 41 15.5 75.5t51.5 68.5t96 74q-55 53 -80 100t-25 97q0 70 48.5 113.5t127.5 43.5q74 0 118 -39.5t44 -104.5q0 -39 -17 -73t-55.5 -68t-102.5 -74l222 -220l2 -2q56 74 78 163q3 13 -14 15l-109 9q-6 1 -6 7v8q0 6 6 6
h267q6 0 6 -6v-8q0 -6 -6 -7l-92 -10q-14 -2 -17 -18q-21 -90 -89 -178q31 -26 68 -49.5t74 -42.5l39 -11q6 -3 3 -7q-4 -8 -12 -18t-15 -15q-6 -3 -10 0q-46 26 -90 56.5t-79 58.5q-47 -55 -108 -86t-136 -31zM156 581q0 -46 23.5 -88.5t76.5 -90.5q62 38 97 67t49 57
t14 63q0 53 -34 85t-90 32q-60 0 -98 -34.5t-38 -90.5zM98 167q0 -40 21 -71.5t58.5 -50t86.5 -18.5q68 0 122 27.5t96 76.5l-2 2l-230 226q-3 2 -5 4q-55 -36 -87 -67t-46 -61.5t-14 -67.5z" />
    <glyph glyph-name="quotesingle" unicode="'" horiz-adv-x="250" 
d="M120 514q-6 -1 -6 5q-1 29 -2.5 64.5t-3.5 70t-3.5 62t-3.5 39.5q-1 5 4 9q8 3 18 5t20 1q6 0 6 -6l-12 -240q0 -6 -6 -7z" />
    <glyph glyph-name="parenleft" unicode="(" horiz-adv-x="395" 
d="M341 -128q-4 -5 -9 -1q-91 72 -142.5 151t-72.5 162.5t-21 168.5t21 168.5t72.5 163t142.5 150.5q5 4 9 -1l7 -9q4 -5 -1 -9q-83 -66 -129 -142t-64.5 -157.5t-18.5 -163.5t18.5 -163.5t64.5 -157t129 -141.5q5 -4 1 -9z" />
    <glyph glyph-name="parenright" unicode=")" horiz-adv-x="395" 
d="M54 -128l-7 10q-4 5 1 9q83 66 129 141.5t64.5 157t18.5 163.5t-18.5 163.5t-64.5 157.5t-129 142q-5 4 -1 9l7 9q4 5 9 1q91 -71 142.5 -150.5t72.5 -163t21 -168.5t-21 -168.5t-72.5 -162.5t-142.5 -151q-5 -4 -9 1z" />
    <glyph glyph-name="asterisk" unicode="*" horiz-adv-x="686" 
d="M141 465q-6 -2 -9 3t-4 10l-2 10q0 6 6 8l182 68l-140 128q-6 5 -6 9.5t7 14.5l4 4l3 3q5 4 9 0l138 -134l31 197q1 6 7 6q6 1 11.5 0.5t10.5 -1.5q6 -1 5 -7l-39 -202l191 87q4 2 8 -3q2 -4 4 -9t3 -10q1 -6 -5 -8l-195 -80l159 -145q4 -4 0 -9l-7.5 -7.5t-8.5 -5.5
q-6 -2 -10 2l-147 140l-31 -191q-1 -6 -7 -6q-6 1 -11 2.5t-10 2.5q-6 2 -5 8l38 192z" />
    <glyph glyph-name="plus" unicode="+" horiz-adv-x="670" 
d="M39 299q1 6 7 6h272v202l-3 50q0 6 6 7t12 1h12t6 -6v-254h207l69 2q6 0 6 -6v-9.5t-2 -9.5q-1 -6 -7 -6h-273v-270q0 -6 -6 -7q-10 -1 -21 0q-6 1 -6 7v270h-272q-6 0 -7 6q-1 9 0 17z" />
    <glyph glyph-name="comma" unicode="," horiz-adv-x="354" 
d="M129 -186q-5 -4 -9 2l-3 4q-4 5 1 8q23 16 41.5 41t18.5 65q0 32 -14 53.5t-28 35.5q-4 4 -1 9q7 12 20 24.5t23 12.5q14 0 26.5 -30.5t12.5 -71.5q0 -45 -14 -75.5t-34 -49t-40 -28.5z" />
    <glyph glyph-name="hyphen" unicode="-" horiz-adv-x="346" 
d="M37 260q-6 0 -5 6l3 19q1 6 7 6h215l41 3q6 0 6 -6q1 -5 0.5 -11t-1.5 -11q-2 -6 -8 -6h-258z" />
    <glyph glyph-name="period" unicode="." horiz-adv-x="354" 
d="M177 -6q-19 0 -31 12t-12 30t12 30t31 12t31 -12t12 -30t-12 -30t-31 -12z" />
    <glyph glyph-name="slash" unicode="/" horiz-adv-x="383" 
d="M324 740q2 6 8 6q5 0 10 -0.5t9 -1.5q6 -1 7 -4t-4 -15l-287 -723l-9 -30q-2 -6 -7 -6q-4 1 -8.5 1.5t-9.5 1.5q-7 2 -7.5 5t4.5 16l285 719z" />
    <glyph glyph-name="zero" unicode="0" horiz-adv-x="639" 
d="M317 -6q-76 0 -133 45.5t-88.5 127.5t-31.5 193t31.5 193t88.5 127t133 45q79 0 137 -45t89.5 -126.5t31.5 -193.5t-31.5 -194t-89.5 -127t-137 -45zM316 27q104 0 162.5 88.5t58.5 244.5q0 155 -58.5 243.5t-162.5 88.5q-66 0 -114 -40t-74 -114.5t-26 -177.5
q0 -155 57 -244t157 -89z" />
    <glyph glyph-name="one" unicode="1" horiz-adv-x="483" 
d="M443 20q6 0 6 -6v-8q0 -6 -6 -6h-344q-6 0 -6 6v8q0 6 6 6l129 9q8 1 10.5 4.5t2.5 13.5v631l-167 -57q-6 -2 -8 4l-2 7q-2 6 4 8l191 83q11 5 14.5 3.5t3.5 -9.5v-674q0 -8 3.5 -10.5t13.5 -3.5z" />
    <glyph glyph-name="two" unicode="2" horiz-adv-x="571" 
d="M46 0q-6 0 -7 6l-1 2q-1 6 3 10l11 10q16 16 27.5 28t27.5 27q87 90 146 153.5t95.5 107t55.5 75t25.5 57t6.5 52.5q0 77 -46.5 121.5t-128.5 44.5q-130 0 -178 -127q-2 -6 -8 -5l-12 3q-6 1 -4 7q20 74 74.5 114.5t133.5 40.5q95 0 151 -53.5t56 -143.5
q0 -31 -7.5 -59.5t-29.5 -64t-63.5 -84.5t-109 -119.5t-166.5 -171.5h356q13 0 18 16l32 101q2 6 8 5h6q6 -1 5 -7l-16 -145q-1 -6 -7 -6l-69 5h-385z" />
    <glyph glyph-name="three" unicode="3" horiz-adv-x="571" 
d="M258 -6q-68 0 -116 19t-73 46t-25 51q0 23 20 23q13 0 21 -11t17.5 -26.5t26.5 -31.5t47 -27t80 -11q97 0 152.5 44.5t55.5 121.5q0 53 -27.5 90.5t-76 55.5t-111.5 12l-55 -5q-6 -1 -5 5l4 19q1 6 7 7l49 5q4 0 8 1v0v0q84 11 132.5 56t48.5 112q0 64 -46 104.5
t-118 40.5q-125 0 -185 -108q-4 -5 -9 -3l-12 6q-6 2 -4 8q27 61 83 95t129 34q59 0 104 -22.5t70.5 -62.5t25.5 -92q0 -63 -39.5 -109.5t-103.5 -65.5q79 -15 124 -62.5t45 -120.5q0 -91 -66 -144.5t-178 -53.5z" />
    <glyph glyph-name="four" unicode="4" horiz-adv-x="629" 
d="M256 0q-6 0 -6 6v8q0 6 6 6l126 9q8 1 10.5 4.5t2.5 13.5v173h-360q-6 0 -6 6v5q0 6 4 11l385 480q4 5 10 3h3q6 -2 6 -8l-4 -70q-1 -7 -1 -14.5v-15.5v-368h112l36 6q10 2 12 -0.5t2 -10.5v-8.5t-1 -9.5q-1 -6 -7 -6h-154v-177q0 -8 3.5 -10.5t13.5 -3.5l134 -9
q6 0 6 -6v-8q0 -6 -6 -6h-327zM395 249v394l-317 -394h317z" />
    <glyph glyph-name="five" unicode="5" horiz-adv-x="609" 
d="M279 -6q-68 0 -116 19t-73 46t-25 51q0 23 20 23q13 0 21 -11t17 -26.5t26 -31.5t47.5 -27t80.5 -11q93 0 145.5 46t52.5 127q0 90 -74.5 137t-216.5 47h-36.5t-26.5 -1q-6 0 -5 6l39 316q1 6 7 6h294l50 9q10 2 12 0t0 -10t-5 -14.5t-7 -12.5q-2 -5 -9 -5h-310l-34 -266
q19 1 33 1q161 0 244 -54t83 -159q0 -94 -63.5 -149.5t-170.5 -55.5z" />
    <glyph glyph-name="six" unicode="6" horiz-adv-x="609" 
d="M315 -6q-119 0 -185 82t-66 230q0 132 52.5 227t148.5 145t227 46q6 0 7 -6l1 -11q1 -6 -5 -6q-117 -1 -203.5 -45t-135 -124.5t-53.5 -191.5q43 38 100.5 60t116.5 22q69 0 121 -26t81 -72t29 -107q0 -67 -29.5 -117t-82.5 -78t-124 -28zM314 389q-116 0 -212 -81
q1 -138 57 -209t162 -71q89 0 140.5 49t51.5 134q0 83 -53 130.5t-146 47.5z" />
    <glyph glyph-name="seven" unicode="7" horiz-adv-x="578" 
d="M229 0q-2 -6 -8 -6q-14 2 -26 6q-7 2 -7.5 6t4.5 15l306 666h-374q-13 0 -18 -16l-34 -122q-2 -6 -8 -6h-12q-6 0 -5 6l27 160q2 10 4.5 12t10.5 1l38 -4h403q6 0 7 -6l1 -2q1 -6 -1 -11l-257 -571z" />
    <glyph glyph-name="eight" unicode="8" horiz-adv-x="617" 
d="M536 171q0 -53 -28 -93t-78 -62t-116 -22t-117.5 22t-80.5 61t-29 88t24.5 86t66.5 66t96 53q-84 41 -122.5 89t-38.5 105q0 47 25.5 83.5t71 57t103.5 20.5q57 0 100 -20.5t67.5 -56.5t24.5 -84q0 -115 -159 -190q61 -29 103.5 -56t64.5 -61.5t22 -85.5zM311 390l2 -1
q83 43 118.5 84t35.5 91q0 58 -43 93.5t-111 35.5q-70 0 -116 -36t-46 -94q0 -55 42 -96.5t118 -76.5zM125 167q0 -63 53 -101.5t135 -38.5q83 0 134 39t51 103q0 62 -47 103.5t-141 81.5l-3 1q-57 -29 -98 -56t-62.5 -58.5t-21.5 -73.5z" />
    <glyph glyph-name="nine" unicode="9" horiz-adv-x="593" 
d="M114 -10q-6 0 -7 6l-2 11q-1 6 5 6q373 4 381 360q-40 -43 -98.5 -67.5t-121.5 -24.5q-64 0 -112 27t-74.5 75.5t-26.5 113.5q0 105 62 166.5t167 61.5q115 0 178.5 -86.5t63.5 -242.5q0 -207 -106 -311t-309 -95zM96 503q0 -85 49.5 -137t131.5 -52q62 0 113.5 22
t100.5 69q-3 139 -57 212.5t-153 73.5q-85 0 -135 -50.5t-50 -137.5z" />
    <glyph glyph-name="colon" unicode=":" horiz-adv-x="354" 
d="M177 -6q-19 0 -31 12t-12 30t12 30t31 12t31 -12t12 -30t-12 -30t-31 -12zM177 408q-19 0 -31 12t-12 30t12 30t31 12t31 -12t12 -30t-12 -30t-31 -12z" />
    <glyph glyph-name="semicolon" unicode=";" horiz-adv-x="357" 
d="M129 -186q-5 -4 -9 2l-3 4q-4 5 1 8q23 16 41.5 41t18.5 65q0 32 -14 53.5t-28 35.5q-4 4 -1 9q7 12 20 24.5t23 12.5q14 0 26.5 -30.5t12.5 -71.5q0 -45 -14 -75.5t-34 -49t-40 -28.5zM177 408q-19 0 -31 12t-12 30t12 30t31 12t31 -12t12 -30t-12 -30t-31 -12z" />
    <glyph glyph-name="less" unicode="&#x3c;" horiz-adv-x="670" 
d="M596 569q0 -7 -0.5 -14t-1.5 -14q-1 -5 -6 -9l-473 -246l476 -247q5 -4 5 -9q0 -7 -0.5 -12.5t-1.5 -12.5t-6 -3l-518 269q-5 4 -5 9v11q0 5 5 9l521 272q5 4 5 -3z" />
    <glyph glyph-name="equal" unicode="=" horiz-adv-x="670" 
d="M39 192q1 6 7 6h512l69 2q6 0 6 -6v-9.5t-2 -9.5q-1 -6 -7 -6h-578q-6 0 -7 6q-1 9 0 17zM39 439q1 6 7 6h512l69 2q6 0 6 -6v-9.5t-2 -9.5q-1 -6 -7 -6h-578q-6 0 -7 6q-1 9 0 17z" />
    <glyph glyph-name="greater" unicode="&#x3e;" horiz-adv-x="670" 
d="M74 1q0 7 0.5 14t1.5 14q1 5 6 9l473 246l-476 247q-5 4 -5 9q0 7 0.5 12.5t1.5 12.5t6 3l518 -269q5 -4 5 -9v-11q0 -5 -5 -9l-521 -272q-5 -4 -5 3z" />
    <glyph glyph-name="question" unicode="?" horiz-adv-x="539" 
d="M182 217q-6 0 -8 6q-16 44 -22 69t-6 45q0 44 26.5 65t96.5 39q64 17 90.5 40t26.5 57q0 35 -32.5 68t-95 56.5t-153.5 29.5q-6 0 -5 6q3 26 12 35q5 4 11 3q91 -9 159 -38t105.5 -70.5t37.5 -88.5q0 -46 -31.5 -77t-110.5 -54q-40 -12 -62.5 -22t-30 -27.5t-4.5 -48.5
t14 -85q1 -6 -5 -6zM196 -6q-19 0 -31 12t-12 30t12 30t31 12t31 -12t12 -30t-12 -30t-31 -12z" />
    <glyph glyph-name="at" unicode="@" horiz-adv-x="1132" 
d="M515 28q-76 0 -119 56.5t-43 156.5q0 85 28 149.5t78 101t115 36.5q44 0 84.5 -17t70.5 -47l18 56q2 6 8 5h9q6 -1 5 -7l-43 -428q-3 -29 22 -29q51 0 96.5 25.5t80.5 70t55 104t20 126.5q0 105 -46 180t-131 115.5t-202 40.5q-106 0 -195.5 -35t-155 -98.5t-102 -149
t-36.5 -187.5q0 -126 53.5 -217.5t152.5 -141t235 -49.5q68 0 131 6.5t132.5 22t155.5 41.5q6 2 8 -4l2 -7q2 -6 -4 -8q-115 -44 -215 -63.5t-210 -19.5q-149 0 -256 52.5t-164.5 151.5t-57.5 236q0 110 38.5 202t109 159.5t167 104.5t211.5 37q128 0 221 -44.5t144 -127
t51 -197.5q0 -74 -23.5 -139t-64.5 -114.5t-94.5 -77.5t-113.5 -28q-31 0 -44 15.5t-9 50.5l4 37q-39 -49 -85.5 -76t-91.5 -27zM390 243q0 -86 33.5 -134t93.5 -48q47 0 92.5 27.5t85.5 79.5l27 267q-56 60 -147 60q-55 0 -96.5 -32t-65 -88.5t-23.5 -131.5z" />
    <glyph glyph-name="A" unicode="A" horiz-adv-x="815" 
d="M12 0q-6 0 -6 6v8q0 6 6 7l92 9q14 2 19 17l261 677q2 6 8 8l15 3q6 2 7 -4l9 -38l264 -650q5 -12 22 -14l89 -8q6 -1 6 -7v-8q0 -6 -6 -6h-284q-6 0 -6 6v8q0 6 6 6l100 8q23 2 26.5 11.5t-4.5 29.5l-88 218q-150 -1 -299 0l-84 -221q-8 -21 -1 -28.5t29 -9.5l103 -8
q6 0 6 -6v-8q0 -6 -6 -6h-284zM260 316q138 -3 276 0l-142 349z" />
    <glyph glyph-name="B" unicode="B" horiz-adv-x="713" 
d="M46 0q-6 0 -6 6v8q0 6 6 7l110 9q13 1 13 18v637q0 17 -13 18l-110 9q-6 1 -6 7v8q0 6 6 6h338q223 0 223 -180q0 -51 -20.5 -87t-50 -57t-57.5 -28q26 -3 57 -14.5t59 -33t46 -54t18 -77.5q0 -202 -275 -202h-338zM384 704h-177v-310h177q90 0 137.5 41t47.5 118
q0 151 -185 151zM384 365h-177v-323q0 -13 17 -13h160q236 0 236 173q0 79 -61 121t-175 42z" />
    <glyph glyph-name="C" unicode="C" horiz-adv-x="761" 
d="M430 -6q-101 0 -178 47t-120 131.5t-43 194.5t43.5 194t120.5 131t177 47q62 0 111.5 -11t82.5 -26l23 -5q8 -2 10.5 -5.5t3.5 -16.5l14 -156q1 -6 -5 -7l-11 -1q-6 -1 -7 5l-31 125q-3 13 -17 22q-35 21 -80.5 31.5t-94.5 10.5q-91 0 -159 -41.5t-105 -117.5t-37 -179
q0 -102 37.5 -178.5t105 -118.5t158.5 -42q50 0 96.5 11t81.5 32q12 7 15 24l30 122q1 6 7 5l11 -2q6 -1 5 -7l-15 -162q-1 -7 -4 -10t-15 -7l-17 -4q-33 -14 -82.5 -25t-111.5 -11z" />
    <glyph glyph-name="D" unicode="D" horiz-adv-x="824" 
d="M46 0q-6 0 -6 6v8q0 6 6 7l110 9q13 1 13 18v637q0 17 -13 18l-110 9q-6 1 -6 7v8q0 6 6 6h320q114 0 197 -44.5t127.5 -126.5t44.5 -195t-45 -195.5t-127.5 -127t-196.5 -44.5h-320zM366 704h-159v-662q0 -13 17 -13h142q103 0 176.5 41t113.5 116.5t40 180.5
t-39.5 180.5t-113.5 116t-177 40.5z" />
    <glyph glyph-name="E" unicode="E" horiz-adv-x="748" 
d="M46 0q-6 0 -6 6v8q0 6 6 7l110 9q13 1 13 18v637q0 17 -13 18l-110 9q-6 1 -6 7v8q0 6 6 6h548l41 3q8 1 10 -2t3 -16l12 -152q0 -6 -6 -7l-11 -3q-6 -1 -7 5l-31 130q-3 13 -20 13h-378v-310h304q12 0 17 17l16 73q1 6 7 6h7q6 0 6 -6v-224q0 -6 -6 -6h-7q-6 0 -7 6
l-17 92q-1 13 -19 13h-301v-323q0 -13 17 -13h367q12 0 19 16l47 133q2 6 8 5l11 -2q6 -1 5 -7l-32 -167q-1 -7 -4.5 -9t-16.5 -1l-34 3h-548z" />
    <glyph glyph-name="F" unicode="F" horiz-adv-x="684" 
d="M46 0q-6 0 -6 6v8q0 6 6 7l110 9q13 1 13 18v637q0 17 -13 18l-110 9q-6 1 -6 7v8q0 6 6 6h532l41 3q8 1 10 -2t3 -16l13 -152q0 -6 -6 -7l-11 -3q-6 -1 -7 5l-31 130q-3 13 -20 13h-363v-327h288q12 0 17 17l16 73q1 6 7 6h7q6 0 6 -6v-224q0 -6 -6 -6h-7q-6 0 -7 6
l-16 92q-1 13 -19 13h-286v-304q0 -12 17 -14l142 -10q6 0 6 -6v-8q0 -6 -6 -6h-320z" />
    <glyph glyph-name="G" unicode="G" horiz-adv-x="824" 
d="M429 705q-91 0 -159 -41.5t-105 -117.5t-37 -179q0 -102 37.5 -178.5t105 -118.5t158.5 -42q58 0 115 11.5t102 30.5v199q0 14 -17 14l-143 12q-6 1 -6 7v9q0 6 6 6h285q6 0 6 -6v-9q0 -6 -6 -7l-74 -11q-13 -1 -13 -19v-155l4 -45q1 -10 -1 -13t-10 -7
q-59 -27 -123.5 -39t-123.5 -12q-101 0 -178 47t-120 131.5t-43 194.5t43.5 194t120.5 131t177 47q62 0 111.5 -11t82.5 -26l23 -5q8 -2 10.5 -5.5t3.5 -16.5l14 -156q1 -6 -5 -7l-11 -1q-6 -1 -7 5l-31 125q-3 13 -17 22q-35 21 -80.5 31.5t-94.5 10.5z" />
    <glyph glyph-name="H" unicode="H" horiz-adv-x="871" 
d="M46 0q-6 0 -6 6v8q0 6 6 7l110 9q13 1 13 18v637q0 17 -13 18l-110 9q-6 1 -6 7v8q0 6 6 6h284q6 0 6 -6v-8q0 -6 -6 -7l-106 -9q-17 0 -17 -14v-295q228 -3 457 0v291q0 17 -13 18l-110 9q-6 1 -6 7v8q0 6 6 6h284q6 0 6 -6v-8q0 -6 -6 -7l-106 -9q-17 0 -17 -14v-645
q0 -14 17 -14l106 -9q6 -1 6 -7v-8q0 -6 -6 -6h-284q-6 0 -6 6v8q0 6 6 7l110 9q13 1 13 18v317q-228 -3 -457 0v-321q0 -14 17 -14l106 -9q6 -1 6 -7v-8q0 -6 -6 -6h-284z" />
    <glyph glyph-name="I" unicode="I" horiz-adv-x="376" 
d="M46 0q-6 0 -6 6v8q0 6 6 7l110 9q13 1 13 18v637q0 17 -13 18l-110 9q-6 1 -6 7v8q0 6 6 6h284q6 0 6 -6v-8q0 -6 -6 -7l-106 -9q-17 0 -17 -14v-645q0 -14 17 -14l106 -9q6 -1 6 -7v-8q0 -6 -6 -6h-284z" />
    <glyph glyph-name="J" unicode="J" horiz-adv-x="359" 
d="M17 -138q-2 5 2 8q60 35 93 69.5t46 82t13 119.5v551q-3 10 -12 11l-110 9q-6 1 -6 7v8q0 6 6 6h284q6 0 6 -6v-8q0 -6 -6 -7l-106 -9q-17 0 -17 -14v-548q0 -76 -15.5 -127.5t-54.5 -89t-108 -74.5q-5 -4 -8 2z" />
    <glyph glyph-name="K" unicode="K" horiz-adv-x="759" 
d="M46 0q-6 0 -6 6v8q0 6 6 7l110 9q13 1 13 18v637q0 17 -13 18l-110 9q-6 1 -6 7v8q0 6 6 6h284q6 0 6 -6v-8q0 -6 -6 -7l-106 -9q-17 0 -17 -14v-309l309 295q17 16 12.5 22t-26.5 8l-76 6q-6 1 -6 7v9q0 6 6 6h273q6 0 6 -6v-9q0 -6 -6 -7l-98 -10q-13 -1 -25 -13
l-323 -306l360 -339q9 -9 26 -11l96 -11q6 -1 6 -7v-8q0 -6 -6 -6h-284q-6 0 -6 6v8q0 6 6 7l81 9q23 2 23 9.5t-16 22.5l-332 314v-332q0 -14 17 -14l106 -9q6 -1 6 -7v-8q0 -6 -6 -6h-284z" />
    <glyph glyph-name="L" unicode="L" horiz-adv-x="710" 
d="M46 0q-6 0 -6 6v8q0 6 6 7l110 9q13 1 13 18v637q0 17 -13 18l-110 9q-6 1 -6 7v8q0 6 6 6h284q6 0 6 -6v-8q0 -6 -6 -7l-106 -9q-17 0 -17 -14v-647q0 -13 17 -13h346q12 0 19 16l48 133q2 6 8 5l10 -2q6 -1 5 -7l-31 -167q-1 -7 -4.5 -9t-16.5 -1l-35 3h-527z" />
    <glyph glyph-name="M" unicode="M" horiz-adv-x="1000" 
d="M18 0q-6 0 -6 6v8q0 6 6 7l106 9q16 0 18 14l58 644q2 14 -16 14l-106 9q-6 1 -6 7v9q0 6 6 6h166q10 0 12 -2.5t2 -10.5v-1q0 -20 15 -57l231 -591l217 594q8 21 10.5 33t2.5 23v-2q0 10 2.5 12t10.5 2h175q6 0 6 -6v-9q0 -6 -6 -7l-108 -9q-12 -1 -12 -18l56 -640
q2 -14 18 -14l106 -9q6 -1 6 -7v-8q0 -6 -6 -6h-284q-6 0 -6 6v8q0 6 6 7l109 9q13 1 11 18l-56 635l-249 -677q-2 -6 -8 -6h-7q-6 0 -8 6l-259 661l-54 -619q-2 -17 11 -18l110 -9q6 -1 6 -7v-8q0 -6 -6 -6h-280z" />
    <glyph glyph-name="N" unicode="N" horiz-adv-x="848" 
d="M733 702q-17 0 -17 -14v-684q0 -6 -6 -6h-6q-6 0 -10 5l-492 671v-626q0 -17 13 -18l110 -9q6 -1 6 -7v-8q0 -6 -6 -6h-279q-6 0 -6 6v8q0 6 6 7l106 9q17 0 17 14v644q0 14 -17 14l-106 9q-6 1 -6 7v9q0 6 6 6h149q6 0 10 -5l477 -651v607q0 17 -13 18l-110 9q-6 1 -6 7
v9q0 6 6 6h280q6 0 6 -6v-9q0 -6 -6 -7z" />
    <glyph glyph-name="O" unicode="O" horiz-adv-x="866" 
d="M430 -6q-101 0 -178 47t-120 131.5t-43 194.5t43.5 194t120.5 131t177 47q104 0 182 -46.5t121.5 -130.5t43.5 -195q0 -112 -43 -196t-121 -130.5t-183 -46.5zM429 28q94 0 163 42t107.5 118t38.5 179t-38.5 178.5t-107.5 117.5t-163 42q-91 0 -159 -42t-105 -117.5
t-37 -178.5t37.5 -179t105 -118t158.5 -42z" />
    <glyph glyph-name="P" unicode="P" horiz-adv-x="678" 
d="M207 346q29 -2 60 -3t67 -1q256 0 256 187q0 175 -223 175h-160v-358zM46 0q-6 0 -6 6v8q0 6 6 7l110 9q13 1 13 18v637q0 17 -13 18l-110 9q-6 1 -6 7v8q0 6 6 6h321q128 0 195 -52.5t67 -151.5q0 -106 -75.5 -161t-219.5 -55q-36 0 -67 1t-60 3v-273q0 -12 17 -14
l142 -10q6 0 6 -6v-8q0 -6 -6 -6h-320z" />
    <glyph glyph-name="Q" unicode="Q" horiz-adv-x="866" 
d="M430 -6q-101 0 -178 47t-120 131.5t-43 194.5t43.5 194t120.5 131t177 47q104 0 182 -46.5t121.5 -130.5t43.5 -195q0 -92 -29.5 -165t-83 -123t-128.5 -71q28 -3 49.5 -12.5t51.5 -25.5l152 -81q5 -3 12.5 -6.5t14.5 -5.5q26 -10 57.5 -17.5t61.5 -12.5q6 -1 6 -7v-10
q0 -6 -6 -6q-36 2 -70.5 7t-76.5 20q-10 3 -28 13l-163 88q-26 14 -46.5 23.5t-44 14t-60.5 4.5h1h-17zM429 28q94 0 163 42t107.5 118t38.5 179t-38.5 178.5t-107.5 117.5t-163 42q-91 0 -159 -42t-105 -117.5t-37 -178.5t37.5 -179t105 -118t158.5 -42z" />
    <glyph glyph-name="R" unicode="R" horiz-adv-x="718" 
d="M46 0q-6 0 -6 6v8q0 6 6 7l110 9q13 1 13 18v637q0 17 -13 18l-110 9q-6 1 -6 7v8q0 6 6 6h338q113 0 178.5 -52.5t65.5 -144.5q0 -91 -64.5 -144t-172.5 -53q31 -17 62 -59l166 -230q8 -11 25 -14l78 -15q6 -1 6 -7v-8q0 -6 -6 -6h-104q-7 0 -11 2.5t-12 12.5l-172 243
q-27 38 -45.5 55t-35.5 21.5t-40 4.5h-95v-295q0 -14 17 -14l106 -9q6 -1 6 -7v-8q0 -6 -6 -6h-284zM384 704h-177v-336h177q93 0 149 46t56 122t-56.5 122t-148.5 46z" />
    <glyph glyph-name="S" unicode="S" horiz-adv-x="654" 
d="M334 395q90 -24 141.5 -51t73 -64.5t21.5 -93.5q0 -91 -66 -141.5t-184 -50.5q-42 0 -84.5 8t-78.5 21.5t-58 27.5q-5 2 -6 9l-10 128q-1 6 5 6l13 1q6 0 7 -6l15 -64q7 -32 29 -51t51.5 -29t60.5 -13.5t56 -3.5q101 0 156 41t55 117q0 48 -17.5 78.5t-62.5 52.5t-128 44
q-84 23 -133 49t-70 61t-21 84q0 88 65.5 136t183.5 48q45 0 83 -10t65.5 -24t40.5 -26q4 -4 5 -10l10 -126q1 -6 -5 -6l-16 -1q-6 0 -7 6l-20 85q-7 32 -35 48.5t-61.5 23t-59.5 6.5q-210 0 -210 -150q0 -40 18.5 -68.5t61.5 -50t116 -41.5z" />
    <glyph glyph-name="T" unicode="T" horiz-adv-x="639" 
d="M178 0q-6 0 -6 6v8q0 6 6 7l110 9q13 1 13 18v656h-221q-13 0 -16 -17l-30 -145q-1 -6 -7 -5l-11 2q-6 1 -6 7l12 182q1 8 4 10t16 1l32 -3q52 -2 110 -2.5t136 -0.5q52 0 90 0.5t74 1t81 1.5l39 3q8 1 10 -2t3 -16l12 -175q0 -6 -6 -7l-11 -2q-6 -1 -7 5l-29 149
q-3 13 -20 13h-217v-660q0 -14 17 -14l106 -9q6 -1 6 -7v-8q0 -6 -6 -6h-284z" />
    <glyph glyph-name="U" unicode="U" horiz-adv-x="869" 
d="M25 727q0 6 6 6h284q6 0 6 -6v-8q0 -6 -6 -7l-106 -9q-17 0 -17 -14v-453q0 -96 65 -152t177 -56q113 0 179 61.5t66 167.5v428q0 17 -13 18l-109 9q-6 1 -6 7v8q0 6 6 6h279q6 0 6 -6v-8q0 -6 -6 -7l-104 -9q-17 0 -17 -14v-430q0 -124 -74.5 -194.5t-206.5 -70.5
q-130 0 -205 65.5t-75 179.5v446q0 17 -13 18l-110 9q-6 1 -6 7v8z" />
    <glyph glyph-name="V" unicode="V" horiz-adv-x="815" 
d="M414 0q-6 0 -8 6l-278 684q-5 12 -22 14l-89 8q-6 1 -6 7v8q0 6 6 6h284q6 0 6 -6v-8q0 -6 -6 -6l-100 -8q-22 -1 -25.5 -11t3.5 -30l242 -596l229 599q8 21 1 29t-29 9l-103 8q-6 0 -6 6v8q0 6 6 6h284q6 0 6 -6v-8q0 -6 -6 -7l-92 -9q-14 -2 -19 -17l-262 -680
q-2 -6 -8 -6h-8z" />
    <glyph glyph-name="W" unicode="W" horiz-adv-x="1213" 
d="M380 0q-6 0 -8 6l-245 684q-5 12 -21 14l-89 8q-6 1 -6 7v8q0 6 6 6h284q6 0 6 -6v-8q0 -6 -6 -6l-102 -8q-22 -1 -26 -11t3 -31l210 -587l209 651q2 6 8 6h8q6 0 8 -6l229 -651l199 589q8 21 0.5 29t-29.5 10l-102 8q-6 1 -6 7v8q0 6 6 6h285q6 0 6 -6v-8q0 -6 -6 -7
l-95 -10q-13 -1 -18 -17l-231 -679q-2 -6 -8 -6h-7q-6 0 -8 6l-228 649l-210 -649q-2 -6 -8 -6h-8z" />
    <glyph glyph-name="X" unicode="X" horiz-adv-x="799" 
d="M30 0q-6 0 -6 6v8q0 6 6 7l95 11q13 1 23 15l226 324l-226 318q-9 11 -25 13l-93 9q-6 1 -6 7v9q0 6 6 6h285q6 0 6 -6v-9q0 -6 -6 -7l-95 -8q-22 -1 -24 -10t11 -26l190 -267l193 270q13 18 7.5 25t-27.5 8l-98 9q-6 0 -6 6v9q0 6 6 6h284q6 0 6 -6v-9q0 -6 -6 -7
l-95 -10q-13 -1 -23 -15l-224 -310l237 -332q9 -11 25 -13l92 -10q6 -1 6 -7v-8q0 -6 -6 -6h-284q-6 0 -6 6v8q0 6 6 7l95 9q23 2 24.5 10.5t-11.5 25.5l-200 281l-197 -284q-13 -18 -7.5 -25t27.5 -9l100 -8q6 -1 6 -7v-8q0 -6 -6 -6h-285z" />
    <glyph glyph-name="Y" unicode="Y" horiz-adv-x="808" 
d="M268 0q-6 0 -6 6v8q0 6 6 7l110 9q13 1 13 18v256l-262 385q-7 11 -24 13l-88 9q-6 1 -6 7v9q0 6 6 6h288q6 0 6 -6v-9q0 -6 -6 -6l-104 -8q-22 -1 -24 -10t10 -27l227 -333l214 335q12 19 6.5 26t-27.5 8l-95 8q-6 1 -6 7v9q0 6 6 6h284q6 0 6 -6v-9q0 -6 -6 -7l-99 -10
q-14 -2 -22 -15l-246 -383v-259q0 -14 17 -14l106 -9q6 -1 6 -7v-8q0 -6 -6 -6h-284z" />
    <glyph glyph-name="Z" unicode="Z" horiz-adv-x="681" 
d="M72 0q-6 0 -7 6v2q-1 6 3 11l506 685h-400q-14 0 -17 -17l-32 -142q-1 -6 -7 -5l-11 2q-6 1 -6 7l15 176q1 8 4 10t16 1l34 -3h447q6 0 7 -6v-3q1 -6 -3 -11l-503 -684h426q14 0 17 17l34 141q1 6 7 5l13 -1q6 -1 5 -7l-19 -177q-1 -7 -4 -9t-16 -1l-34 3h-475z" />
    <glyph glyph-name="bracketleft" unicode="[" horiz-adv-x="447" 
d="M387 818q0 -6 -6 -6l-174 -4q-17 0 -17 -13v-884q0 -12 17 -14l174 -7q6 0 6 -6v-7q0 -6 -6 -6l-221 -4q-6 0 -6 6v960q0 6 6 6l221 -8q6 0 6 -6v-7z" />
    <glyph glyph-name="backslash" unicode="\" horiz-adv-x="383" 
d="M59 740l9 -31l285 -719q5 -13 4.5 -16t-7.5 -5q-4 -1 -8.5 -1.5t-9.5 -1.5q-5 0 -7 6l-9 30l-287 723q-4 12 -3.5 15t6.5 4q5 1 10 1.5t9 0.5q6 0 8 -6z" />
    <glyph glyph-name="bracketright" unicode="]" horiz-adv-x="447" 
d="M60 818v7q0 6 6 6l221 8q6 0 6 -6v-960q0 -6 -6 -6l-221 4q-6 0 -6 6v7q0 6 6 6l174 7q17 2 17 14v884q0 13 -17 13l-174 4q-6 0 -6 6z" />
    <glyph glyph-name="asciicircum" unicode="^" horiz-adv-x="670" 
d="M79 285l240 439q4 5 9 5h12q5 0 9 -5l243 -436q4 -5 -3 -6t-14 -1.5t-14 -0.5q-5 0 -9 5l-219 398l-215 -395q-4 -5 -9 -6q-7 -1 -13.5 -1.5t-13.5 -0.5t-3 5z" />
    <glyph glyph-name="underscore" unicode="_" horiz-adv-x="670" 
d="M4 -112q-6 0 -6 6v17q0 6 6 6h662q6 0 6 -6v-17q0 -6 -6 -6h-662z" />
    <glyph glyph-name="grave" unicode="`" horiz-adv-x="233" 
d="M192 552q-5 -3 -9 1q-40 38 -76 74.5t-69 76.5q-8 10 -8 14t6 8t13 7.5t13 4.5t9 -4q29 -44 61 -86t69 -83q4 -4 -1 -7z" />
    <glyph glyph-name="a" unicode="a" horiz-adv-x="548" 
d="M193 -6q-61 0 -98 32.5t-37 86.5q0 61 42.5 93t133.5 41l155 16v70q0 130 -131 130q-27 0 -52.5 -6t-43 -21.5t-21.5 -45.5l-6 -48q-1 -6 -7 -6h-8q-6 0 -7 6q-4 24 -8 47.5t-8 47.5q-1 6 4 9q22 14 63.5 30t93.5 16q80 0 123.5 -41t43.5 -115v-299l89 -12q6 -1 6 -7v-7
q0 -6 -6 -6l-55 -5q-33 -3 -48 -2t-18.5 6t-3.5 14v70q-14 -21 -44 -42.5t-69.5 -36.5t-82.5 -15zM194 27q49 0 89 16.5t68 38t38 37.5v115l-150 -16q-79 -9 -111 -32.5t-32 -71.5q0 -40 26 -63.5t72 -23.5z" />
    <glyph glyph-name="b" unicode="b" horiz-adv-x="596" 
d="M117 -8q-6 0 -6 6v699l-89 7q-6 1 -6 7v7q0 6 6 7l105 15q13 2 16.5 -0.5t3.5 -10.5v-340q38 47 88 75t99 28q91 0 142.5 -63.5t51.5 -175.5q0 -120 -59.5 -189.5t-163.5 -69.5q-44 0 -86.5 18.5t-75.5 51.5l-12 -66q-1 -6 -7 -6h-7zM334 459q-48 0 -97 -27t-90 -76v-260
q65 -69 157 -69q89 0 138.5 59.5t49.5 166.5q0 97 -42 151.5t-116 54.5z" />
    <glyph glyph-name="c" unicode="c" horiz-adv-x="519" 
d="M283 -6q-65 0 -113.5 31t-75.5 87.5t-27 130.5q0 75 28 131t78 87t116 31q49 0 88.5 -11.5t62.5 -22.5q5 -4 5 -9l-8 -126q0 -6 -6 -6h-15q-6 0 -7 6l-10 113q-24 10 -53.5 16.5t-56.5 6.5q-88 0 -136.5 -56.5t-48.5 -157.5q0 -63 23.5 -112.5t64 -77.5t91.5 -28
q57 0 93 13t60 32q5 4 9 -1l6 -7q4 -5 0 -9q-28 -29 -72 -45t-96 -16z" />
    <glyph glyph-name="d" unicode="d" horiz-adv-x="616" 
d="M290 492q90 0 158 -66v271l-89 7q-6 1 -6 7v7q0 6 6 7l105 15q13 2 16.5 -0.5t3.5 -10.5v-692l90 -12q6 -1 6 -7v-7q0 -6 -6 -7l-117 -10q-9 0 -9 11v92q-38 -47 -88 -75t-99 -28q-91 0 -142.5 63.5t-51.5 175.5q0 120 60 189.5t163 69.5zM261 27q48 0 97 27t90 76v260
q-65 69 -157 69q-89 0 -138.5 -59.5t-49.5 -166.5q0 -97 42 -151.5t116 -54.5z" />
    <glyph glyph-name="e" unicode="e" horiz-adv-x="535" 
d="M288 -6q-66 0 -116 31t-77.5 87t-27.5 131t27.5 131t77 87t115.5 31q56 0 100 -27.5t69 -75t25 -109.5v-10q-1 -6 -7 -6h-370v-19q0 -63 24 -112.5t66 -77.5t95 -28q87 0 142 45q5 4 8 -1l5 -7q3 -5 -1 -9q-26 -29 -67 -45t-88 -16zM287 459q-76 0 -122.5 -43.5
t-57.5 -123.5h338q-2 48 -23 86t-56 59.5t-79 21.5z" />
    <glyph glyph-name="f" unicode="f" horiz-adv-x="385" 
d="M67 0q-6 0 -6 6v8q0 6 6 7l69 8q8 1 10.5 4.5t2.5 13.5v408h-79q-6 0 -5 6l3 10q1 6 7 7l74 8v28q0 68 25.5 118.5t70.5 78.5t105 28q41 0 64 -8.5t23 -23.5q0 -11 -6 -20q-3 -6 -8 -3q-16 8 -37.5 13t-46.5 5q-70 0 -112 -50.5t-42 -135.5v-30h137l41 2q6 0 6 -6v-10.5
t-1 -10.5q-1 -6 -7 -6h-176v-412q0 -8 3.5 -10.5t13.5 -4.5l89 -7q6 -1 6 -7v-8q0 -6 -6 -6h-224z" />
    <glyph glyph-name="g" unicode="g" horiz-adv-x="545" 
d="M259 -227q-100 0 -154 35t-54 99q0 28 16 50t39.5 38t46.5 24q-49 19 -49 74q0 24 14.5 42t54.5 43q-43 20 -68 59t-25 91q0 75 50 119.5t134 44.5q27 0 63.5 -2.5t87.5 -5.5l81 22q6 2 10 -3q5 -8 10.5 -17t8.5 -20q1 -6 -5 -6h-139q33 -20 51 -54t18 -78
q0 -76 -51.5 -121.5t-138.5 -45.5q-37 0 -68 10q-27 -21 -39 -39t-12 -38q0 -54 92 -54h128q63 0 98 -28.5t35 -81.5q0 -74 -62 -115.5t-173 -41.5zM260 192q74 0 114.5 35.5t40.5 100.5q0 62 -42 97.5t-114 35.5q-65 0 -104.5 -36.5t-39.5 -96.5q0 -61 39.5 -98.5
t105.5 -37.5zM87 -90q0 -50 45 -77t127 -27q198 0 198 124q0 35 -26 56t-70 21h-128q-32 0 -56 5q-90 -38 -90 -102z" />
    <glyph glyph-name="h" unicode="h" horiz-adv-x="647" 
d="M39 0q-6 0 -6 6v8q0 6 6 7l69 8q8 1 10.5 4.5t2.5 13.5v650l-89 7q-6 1 -6 7v7q0 6 6 7l105 15q13 2 16.5 -0.5t3.5 -10.5v-350q29 34 67 59t77.5 39.5t75.5 14.5q69 0 105.5 -39.5t36.5 -113.5v-296q0 -8 3.5 -10.5t13.5 -4.5l89 -7q6 -1 6 -7v-8q0 -6 -6 -6h-224
q-6 0 -6 6v8q0 6 6 7l69 8q8 1 10.5 4.5t2.5 13.5v292q0 120 -111 120q-110 0 -215 -109v-307q0 -8 3.5 -10.5t13.5 -4.5l89 -7q6 -1 6 -7v-8q0 -6 -6 -6h-224z" />
    <glyph glyph-name="i" unicode="i" horiz-adv-x="313" 
d="M59 0q-6 0 -6 6v8q0 6 6 7l69 8q8 1 10.5 4.5t2.5 13.5v401l-89 7q-6 1 -6 7v7q0 6 6 7l105 15q13 2 16.5 -0.5t3.5 -10.5v-437q0 -8 3.5 -10.5t13.5 -4.5l89 -7q6 -1 6 -7v-8q0 -6 -6 -6h-224zM159 600q-15 0 -24 9t-9 22q0 14 9 23t24 9q14 0 23 -9t9 -23q0 -13 -9 -22
t-23 -9z" />
    <glyph glyph-name="j" unicode="j" horiz-adv-x="248" 
d="M-25 -171q-3 4 2 8q55 31 85 63t42 76t12 110v361l-89 7q-6 1 -6 7v7q0 6 6 7l105 15q13 2 16.5 -0.5t3.5 -10.5v-393q0 -70 -14.5 -117.5t-50.5 -82.5t-99 -69q-4 -3 -8 2zM134 600q-15 0 -24 9t-9 22q0 14 9 23t24 9q14 0 23 -9t9 -23q0 -13 -9 -22t-23 -9z" />
    <glyph glyph-name="k" unicode="k" horiz-adv-x="547" 
d="M39 0q-6 0 -6 6v8q0 6 6 7l69 8q8 1 10.5 4.5t2.5 13.5v650l-89 7q-6 1 -6 7v7q0 6 6 7l105 15q13 2 16.5 -0.5t3.5 -10.5v-467l187 171q17 15 12.5 21t-26.5 7l-37 4q-6 0 -6 6v9q0 6 6 6h206q6 0 6 -6v-9q0 -6 -6 -7l-74 -8q-7 -1 -13.5 -4t-12.5 -8l-165 -148
l219 -253q4 -5 11 -8t14 -5l55 -9q6 -1 6 -7v-8q0 -6 -6 -6h-86q-6 0 -10 5l-228 269l-52 -47v-184q0 -8 3.5 -10.5t13.5 -4.5l89 -7q6 -1 6 -7v-8q0 -6 -6 -6h-224z" />
    <glyph glyph-name="l" unicode="l" horiz-adv-x="278" 
d="M39 0q-6 0 -6 6v8q0 6 6 7l69 8q8 1 10.5 4.5t2.5 13.5v650l-89 7q-6 1 -6 7v7q0 6 6 7l105 15q13 2 16.5 -0.5t3.5 -10.5v-686q0 -8 3.5 -10.5t13.5 -4.5l89 -7q6 -1 6 -7v-8q0 -6 -6 -6h-224z" />
    <glyph glyph-name="m" unicode="m" horiz-adv-x="987" 
d="M59 0q-6 0 -6 6v8q0 6 6 7l69 8q8 1 10.5 4.5t2.5 13.5v401l-89 7q-6 1 -6 7v7q0 6 6 7l104 15q13 2 16.5 -0.5t3.5 -10.5v-88v-8q45 49 100 78.5t107 29.5q114 0 128 -121q42 53 102 87t116 34q63 0 96.5 -39.5t33.5 -113.5v-296q0 -8 3.5 -10.5t13.5 -4.5l89 -7
q6 -1 6 -7v-8q0 -6 -6 -6h-236q-6 0 -6 6v8q0 6 6 7l81 8q8 1 10.5 4.5t2.5 13.5v292q0 120 -98 120q-108 0 -212 -117v-3v-296q0 -8 3.5 -10.5t13.5 -4.5l77 -7q6 -1 6 -7v-8q0 -6 -6 -6h-224q-6 0 -6 6v8q0 6 6 7l81 8q8 1 10.5 4.5t2.5 13.5v292q0 120 -99 120
q-101 0 -201 -106v-310q0 -8 3.5 -10.5t13.5 -4.5l77 -7q6 -1 6 -7v-8q0 -6 -6 -6h-212z" />
    <glyph glyph-name="n" unicode="n" horiz-adv-x="669" 
d="M59 0q-6 0 -6 6v8q0 6 6 7l69 8q8 1 10.5 4.5t2.5 13.5v401l-89 7q-6 1 -6 7v7q0 6 6 7l104 15q13 2 16.5 -0.5t3.5 -10.5v-88l1 -14q44 50 105 82t117 32q69 0 105.5 -39.5t36.5 -113.5v-296q0 -8 3.5 -10.5t13.5 -4.5l89 -7q6 -1 6 -7v-8q0 -6 -6 -6h-224q-6 0 -6 6v8
q0 6 6 7l69 8q8 1 10.5 4.5t2.5 13.5v292q0 120 -111 120q-54 0 -109.5 -28.5t-107.5 -83.5v-304q0 -8 3.5 -10.5t13.5 -4.5l89 -7q6 -1 6 -7v-8q0 -6 -6 -6h-224z" />
    <glyph glyph-name="o" unicode="o" horiz-adv-x="593" 
d="M296 -6q-106 0 -167.5 66.5t-61.5 182.5t61.5 182.5t167.5 66.5q107 0 168 -66.5t61 -182.5q0 -117 -61 -183t-168 -66zM296 27q91 0 141.5 57t50.5 159q0 101 -51 158.5t-141 57.5t-141 -57t-51 -159q0 -103 50.5 -159.5t141.5 -56.5z" />
    <glyph glyph-name="p" unicode="p" horiz-adv-x="608" 
d="M346 459q-48 0 -97 -27t-90 -76v-260q65 -69 157 -69q89 0 138.5 59.5t49.5 166.5q0 97 -42 151.5t-116 54.5zM41 -205q-6 0 -6 6v8q0 6 6 7l69 8q8 1 10.5 4.5t2.5 13.5v606l-89 7q-6 1 -6 7v7q0 6 6 7l104 15q13 2 16.5 -0.5t3.5 -10.5v-88v-4q38 48 88.5 76t99.5 28
q91 0 142.5 -63.5t51.5 -175.5q0 -120 -59.5 -189.5t-163.5 -69.5q-90 0 -158 66v-222q0 -8 3.5 -10.5t13.5 -4.5l89 -7q6 -1 6 -7v-8q0 -6 -6 -6h-224z" />
    <glyph glyph-name="q" unicode="q" horiz-adv-x="599" 
d="M365 -205q-6 0 -6 6v8q0 6 6 7l69 8q8 1 10.5 4.5t2.5 13.5v254q-38 -47 -88 -74.5t-98 -27.5q-91 0 -142.5 63.5t-51.5 175.5q0 120 60 189.5t163 69.5q44 0 86 -18t75 -51l12 65q1 6 7 6h7q6 0 6 -6v-650q0 -8 3.5 -10.5t13.5 -4.5l89 -7q6 -1 6 -7v-8q0 -6 -6 -6h-224
zM103 233q0 -97 42 -151.5t116 -54.5q48 0 96.5 26.5t89.5 75.5v262q-65 68 -156 68q-89 0 -138.5 -59.5t-49.5 -166.5z" />
    <glyph glyph-name="r" unicode="r" horiz-adv-x="418" 
d="M59 0q-6 0 -6 6v8q0 6 6 7l69 8q8 1 10.5 4.5t2.5 13.5v401l-89 7q-6 1 -6 7v7q0 6 6 7l104 15q13 2 16.5 -0.5t3.5 -10.5v-88l1 -16q17 25 48 52t67.5 45.5t71.5 18.5q25 0 25 -9v-28q0 -6 -6 -6h-58q-15 0 -29 -6q-28 -12 -59.5 -37t-59.5 -62v-301q0 -8 3.5 -10.5
t13.5 -4.5l89 -7q6 -1 6 -7v-8q0 -6 -6 -6h-224z" />
    <glyph glyph-name="s" unicode="s" horiz-adv-x="510" 
d="M276 265q64 -21 99 -40t49.5 -41t14.5 -54q0 -65 -50 -100.5t-142 -35.5q-50 0 -91.5 10.5t-60.5 22.5q-5 4 -6 10l-10 106q-1 6 5 7l12 2q6 1 7 -5l15 -58q9 -37 39.5 -51.5t91.5 -14.5q74 0 112.5 27t38.5 77q0 35 -30 58t-110 49q-62 20 -97.5 38t-50 40.5t-14.5 53.5
q0 57 49 91.5t131 34.5q41 0 79 -9t51 -16q5 -2 5 -9l9 -110q0 -6 -6 -6l-15 -2q-6 0 -7 6l-8 54q-7 41 -39.5 52t-70.5 11q-64 0 -102 -25t-38 -68q0 -23 12.5 -40t43 -32t84.5 -33z" />
    <glyph glyph-name="t" unicode="t" horiz-adv-x="377" 
d="M234 -6q-123 0 -123 130v331h-75q-6 0 -5 6l3 10q1 6 7 7l70 8v92q0 6 6 8q11 3 24 3q6 0 6 -6v-97h154l41 2q6 0 6 -6v-10.5t-1 -10.5q-1 -6 -7 -6h-193v-331q0 -51 24.5 -75t77.5 -24q40 0 79 13q6 2 7 -4l1 -11q1 -5 -4 -9q-21 -9 -46.5 -14.5t-51.5 -5.5z" />
    <glyph glyph-name="u" unicode="u" horiz-adv-x="652" 
d="M266 -6q-141 0 -141 153v301l-89 7q-6 1 -6 7v7q0 6 6 7l105 15q13 2 16.5 -0.5t3.5 -10.5v-333q0 -119 106 -119q115 0 217 106v314l-89 7q-6 1 -6 7v7q0 6 6 7l105 15q13 2 16.5 -0.5t3.5 -10.5v-443l90 -12q6 -1 6 -7v-7q0 -6 -6 -7l-117 -10q-9 0 -9 11v96
q-43 -48 -101 -77.5t-117 -29.5z" />
    <glyph glyph-name="v" unicode="v" horiz-adv-x="525" 
d="M269 -2q-5 0 -9 5l-214 443q-6 12 -23 14l-52 4q-6 1 -6 7v9q0 6 6 6h216q6 0 6 -6v-9q0 -6 -6 -6l-70 -5q-22 -1 -25.5 -10t6.5 -29l130 -274q24 -48 46 -98l163 374q9 21 2.5 28.5t-28.5 8.5l-65 5q-6 0 -6 6v9q0 6 6 6h208q6 0 6 -6v-9q0 -6 -6 -7l-55 -6
q-14 -2 -20 -17l-195 -438q-2 -5 -8 -5h-7z" />
    <glyph glyph-name="w" unicode="w" horiz-adv-x="754" 
d="M226 -2q-6 0 -8 6l-170 442q-6 12 -22 14l-55 4q-6 1 -6 7v9q0 6 6 6h216q6 0 6 -6v-9q0 -6 -6 -6l-66 -5q-22 -1 -26 -10.5t3 -29.5l101 -269l16 -44l16 -44l137 417q2 6 8 6h7q6 0 8 -6l123 -329q8 -22 16 -43.5t16 -42.5l123 358q8 21 0.5 29t-29.5 9l-65 4q-6 0 -6 6
v9q0 6 6 6h208q6 0 6 -6v-9q0 -6 -6 -7l-58 -6q-12 -1 -19 -17l-151 -437q-2 -6 -8 -6h-7q-6 0 -8 6l-154 412l-136 -412q-2 -6 -8 -6h-8z" />
    <glyph glyph-name="x" unicode="x" horiz-adv-x="569" 
d="M10 0q-6 0 -6 6v8q0 6 6 7l56 7q14 2 24 15l174 205l-168 198q-7 10 -25 12l-47 7q-6 1 -6 7v8q0 6 6 6h191q6 0 6 -6v-8q0 -6 -6 -7l-47 -4q-22 -1 -23 -9t12 -25l131 -154l131 157q15 17 10 23.5t-27 8.5l-43 3q-6 1 -6 7v8q0 6 6 6h189q6 0 6 -6v-8q0 -6 -6 -7l-55 -7
q-14 -2 -24 -15l-164 -191l180 -212q7 -10 25 -12l47 -7q6 -1 6 -7v-8q0 -6 -6 -6h-190q-6 0 -6 6v11q0 6 6 6l44 4q23 2 24 10t-13 24l-141 166l-139 -169q-15 -17 -10 -23.5t27 -9.5l38 -4q6 -1 6 -7v-8q0 -6 -6 -6h-187z" />
    <glyph glyph-name="y" unicode="y" horiz-adv-x="514" 
d="M110 -211q-16 0 -26.5 6t-10.5 18q0 10 5 18q3 5 9 4q8 -2 17 -3.5t19 -1.5q30 0 49.5 18t36.5 57l51 116l-214 425q-6 12 -23 14l-52 4q-6 1 -6 7v9q0 6 6 6h216q6 0 6 -6v-9q0 -6 -6 -6l-69 -5q-22 -1 -25.5 -10t6.5 -29l179 -359l160 362q9 21 2.5 28.5t-28.5 8.5
l-66 4q-6 0 -6 6v9q0 6 6 6h208q6 0 6 -6v-9q0 -6 -6 -7l-54 -5q-14 -2 -20 -17l-244 -548q-25 -55 -54.5 -80t-71.5 -25z" />
    <glyph glyph-name="z" unicode="z" horiz-adv-x="511" 
d="M421 127q1 6 7 5h6q6 -1 6 -7l-4 -119q0 -6 -6 -6h-352q-6 0 -7 6v2q-1 5 2 11l313 440h-250q-12 0 -17 -17l-18 -82q-1 -6 -7 -6l-6 1q-6 0 -6 6l5 119q0 6 6 6h332q6 0 7 -6l1 -3q1 -5 -2 -11l-314 -439h271q13 0 16 17z" />
    <glyph glyph-name="braceleft" unicode="{" horiz-adv-x="398" 
d="M313 -124q-1 -6 -7 -5q-60 7 -92.5 24t-45.5 46.5t-13 70.5q0 18 1.5 56.5t3 84.5t1.5 84q0 26 -12 48.5t-39.5 37t-76.5 14.5h-15q-6 0 -6 6v17q0 6 6 6h15q49 0 76.5 15t39.5 38t12 48q0 39 -1.5 85.5t-3 85.5t-1.5 57q0 42 13 71t45.5 46.5t92.5 23.5q6 1 7 -5l2 -7
q1 -6 -5 -7q-47 -7 -73 -19.5t-35.5 -36.5t-9.5 -66q0 -18 1.5 -57t3 -85.5t1.5 -85.5q0 -41 -27 -74.5t-81 -39.5q54 -7 81 -41t27 -75q0 -38 -1.5 -84t-3 -84.5t-1.5 -56.5q0 -41 9.5 -65t35.5 -36.5t73 -20.5q6 -1 5 -7z" />
    <glyph glyph-name="bar" unicode="|" horiz-adv-x="490" 
d="M232 -198q-6 -1 -6 5v966q0 8 1.5 10.5t8.5 3.5q14 3 24 3q6 0 5 -6l-5 -53v-908q0 -13 -2 -16t-10 -4z" />
    <glyph glyph-name="braceright" unicode="}" horiz-adv-x="398" 
d="M85 -124l-2 7q-1 6 5 7q48 8 73.5 20.5t35 36.5t9.5 65q0 18 -1.5 56.5t-3 84.5t-1.5 84q0 41 27 75t81 41q-54 6 -81 39.5t-27 74.5q0 39 1.5 85.5t3 85.5t1.5 57q0 42 -9.5 66t-35 36.5t-73.5 19.5q-6 1 -5 7l2 7q1 6 7 5q60 -6 92.5 -23.5t45.5 -46.5t13 -71
q0 -18 -1.5 -57t-3 -85.5t-1.5 -85.5q0 -25 12 -48t40 -38t76 -15h15q6 0 6 -6v-17q0 -6 -6 -6h-15q-48 0 -76 -14.5t-40 -37t-12 -48.5q0 -38 1.5 -84t3 -84.5t1.5 -56.5q0 -41 -13 -70.5t-45.5 -46.5t-92.5 -24q-6 -1 -7 5z" />
    <glyph glyph-name="asciitilde" unicode="~" horiz-adv-x="670" 
d="M62 215q-6 3 -3 7q15 26 37.5 53.5t54.5 46t74 18.5q38 0 65.5 -14.5t51.5 -34t49.5 -34t58.5 -14.5q34 0 60 14.5t45 37t33 45.5q3 6 9 3l11 -6q6 -3 3 -7q-14 -26 -37 -53.5t-54.5 -46t-74.5 -18.5q-38 0 -65.5 14.5t-51.5 33.5t-49.5 33.5t-58.5 14.5q-34 0 -60 -14.5
t-45 -36.5t-33 -45q-3 -5 -9 -3z" />
    <glyph glyph-name="uni00A0" unicode="&#xa0;" horiz-adv-x="241" 
 />
    <glyph glyph-name="exclamdown" unicode="&#xa1;" horiz-adv-x="354" 
d="M176 316q8 0 10 -3t2 -16q2 -65 4.5 -138.5t3.5 -180.5l1 -225q0 -6 -6 -7q-11 -2 -23 0q-7 1 -9.5 4t-2.5 16l3 212q1 75 2 133t2.5 106t2.5 93q0 6 6 6h4zM177 492q19 0 31 -12t12 -30t-12 -30t-31 -12t-31 12t-12 30t12 30t31 12z" />
    <glyph glyph-name="cent" unicode="&#xa2;" horiz-adv-x="567" 
d="M311 26q0 -13 -2 -16t-10 -4l-11 -1q-6 0 -6 6v79q-86 9 -138 76.5t-52 172.5q0 103 52 169t138 77v75q0 8 1.5 11t8.5 4q5 1 9.5 1h8.5q6 0 5 -6l-4 -23v-60h2q49 0 88.5 -11.5t62.5 -22.5q5 -2 5 -8l-8 -127q0 -6 -6 -6h-15q-6 0 -7 6l-10 118q-22 7 -51 12.5t-59 5.5
h-2v-432q55 1 90.5 14t58.5 31q5 4 9 0l7 -9q4 -4 0 -8q-29 -30 -73.5 -45.5t-91.5 -15.5v-63zM128 340q0 -58 19.5 -104.5t54.5 -75.5t80 -36v428q-73 -10 -113.5 -65t-40.5 -147z" />
    <glyph glyph-name="sterling" unicode="&#xa3;" horiz-adv-x="699" 
d="M102 360q0 6 6 6h106q-1 39 -2.5 79.5t-1.5 78.5q0 65 27.5 113t77.5 75t116 27q51 0 79 -8.5t28 -23.5q0 -11 -6 -20q-3 -5 -9 -3q-23 9 -50 13.5t-53 4.5q-79 0 -125.5 -44t-46.5 -118q0 -42 1.5 -86.5t3.5 -87.5h200l44 4q6 0 6 -6v-18q0 -6 -6 -6h-243q1 -30 2 -59
t1 -55q0 -45 -11.5 -78t-35.5 -65q6 1 13 1q40 0 73 -9.5t63 -22t61.5 -22t67.5 -9.5q44 0 66 28t41 68q3 5 8 3l11 -5q6 -2 4 -8q-12 -31 -27 -58.5t-36.5 -44t-54.5 -16.5q-45 0 -81 10t-68 23.5t-65 23.5t-74 10q-33 0 -54.5 -19t-37.5 -41q-3 -6 -8 -2l-11 4q-4 3 -2 8
q11 17 25.5 34t36.5 32q34 23 46 62t12 79q0 29 -1 61.5t-3 66.5h-107q-6 0 -6 6v14z" />
    <glyph glyph-name="currency" unicode="&#xa4;" horiz-adv-x="670" 
d="M84 81q-4 -4 -9 0q-8 7 -13 13q-4 5 0 9l99 95q-23 29 -36 65t-13 77q0 44 15.5 83t43.5 69l-94 98q-4 4 0 9q5 7 13 13q5 4 9 0l95 -99q28 23 63.5 36t75.5 13q45 0 84.5 -15.5t69.5 -43.5l99 95q4 4 9 0q8 -6 13 -13q4 -5 0 -9l-99 -95q23 -29 36.5 -65t13.5 -76
q0 -45 -16 -84t-44 -69l95 -99q4 -4 0 -9q-5 -6 -13 -13q-5 -4 -9 0l-96 100q-29 -23 -65.5 -36.5t-77.5 -13.5q-44 0 -82.5 16t-67.5 43zM333 149q53 0 96 25.5t68.5 69t25.5 96.5t-25.5 96t-68.5 68t-96 25q-51 0 -93 -25t-67 -68t-25 -96t25 -96.5t67 -69t93 -25.5z" />
    <glyph glyph-name="yen" unicode="&#xa5;" horiz-adv-x="848" 
d="M163 194q-6 0 -5 6l4 14q1 6 7 6h232v84v0h-238q-6 0 -5 6l4 14q1 6 7 6h214l-244 359q-7 11 -24 13l-88 9q-6 1 -6 7v9q0 6 6 6h288q6 0 6 -6v-9q0 -6 -6 -6l-104 -8q-22 -1 -24 -10t10 -27l227 -333l214 335q12 19 6.5 26t-27.5 8l-95 8q-6 1 -6 7v9q0 6 6 6h284
q6 0 6 -6v-9q0 -6 -6 -7l-99 -10q-14 -2 -22 -15l-229 -356h207l48 4q6 0 5 -6l-5 -18q-1 -6 -7 -6h-264v1l-1 -2v-259q0 -14 17 -14l106 -9q6 -1 6 -7v-8q0 -6 -6 -6h-284q-6 0 -6 6v8q0 6 6 7l110 9q13 1 13 18v146h-238zM440 194v26h223l48 4q6 0 5 -6l-5 -18
q-1 -6 -7 -6h-264z" />
    <glyph glyph-name="brokenbar" unicode="&#xa6;" horiz-adv-x="490" 
d="M232 416q-6 -1 -6 5v351q0 8 1.5 11t8.5 4q6 1 11.5 1.5t12.5 0.5q6 0 5 -6l-5 -53v-293q0 -13 -2 -16t-10 -4zM232 -197q-6 0 -6 6v351q0 8 1.5 10.5t8.5 3.5q6 2 11.5 2h12.5q6 0 5 -6l-5 -53v-293q0 -13 -2 -16t-10 -4z" />
    <glyph glyph-name="section" unicode="&#xa7;" horiz-adv-x="634" 
d="M432 38q0 24 -12 43t-44.5 41.5t-94.5 54.5q-62 33 -98.5 59.5t-52 53t-15.5 56.5q0 44 31.5 83t81.5 59q-38 27 -51.5 51t-13.5 55q0 59 49.5 96t126.5 37q39 0 80 -11.5t67 -29.5q5 -2 5 -9l8 -88q0 -6 -6 -6l-11 -1q-6 0 -8 6l-12 45q-8 31 -40 47.5t-83 16.5
q-62 0 -99.5 -28t-37.5 -75q0 -24 12 -43t45 -41t94 -55q62 -32 98.5 -59t52 -53t15.5 -57q0 -44 -31.5 -83t-81.5 -59q38 -27 51.5 -51t13.5 -55q0 -58 -49.5 -95.5t-126.5 -37.5q-39 0 -80 11.5t-67 29.5q-5 3 -5 9l-8 88q0 6 6 6l11 1q6 0 8 -6l12 -45q8 -31 40 -47.5
t83 -16.5q62 0 99.5 28.5t37.5 74.5zM300 207q24 -13 44.5 -24.5t36.5 -21.5q47 18 73.5 50.5t26.5 71.5q0 35 -33.5 67t-113.5 75q-24 13 -44.5 24.5t-36.5 21.5q-47 -18 -73.5 -50.5t-26.5 -71.5q0 -34 33.5 -66.5t113.5 -75.5z" />
    <glyph glyph-name="dieresis" unicode="&#xa8;" horiz-adv-x="316" 
d="M63 600q-15 0 -24 9t-9 22q0 14 9 23t24 9q14 0 23 -9t9 -23q0 -13 -9 -22t-23 -9zM253 600q-14 0 -23 9t-9 22q0 14 9 23t23 9t23.5 -9t9.5 -23q0 -13 -9.5 -22t-23.5 -9z" />
    <glyph glyph-name="copyright" unicode="&#xa9;" horiz-adv-x="1094" 
d="M543 -36q-117 0 -205.5 49t-138 137t-49.5 204t49.5 203t138 136t205.5 49q121 0 211 -48.5t140 -135.5t50 -204t-50 -205t-140 -136.5t-211 -48.5zM543 -3q110 0 193 45t129 125.5t46 186.5t-46.5 186t-129 124.5t-192.5 44.5q-106 0 -187.5 -45t-127 -125t-45.5 -185
t45.5 -185.5t127 -126t187.5 -45.5zM553 103q-62 0 -117 28t-88.5 84t-33.5 138t33.5 137t88.5 83.5t117 28.5q47 0 79.5 -8t54.5 -16l17 -4q8 -2 10.5 -5.5t3.5 -16.5l8 -99q1 -6 -5 -7l-7 -1q-6 -1 -8 5l-20 74q-3 13 -17 22q-24 14 -54 20.5t-62 6.5q-54 0 -99 -24.5
t-72 -73t-27 -122.5q0 -73 27 -122t72 -73.5t98 -24.5q38 0 68 7.5t52 20.5q11 7 15 23l19 72q2 6 8 5l7 -1q6 -1 5 -7l-9 -106q-1 -7 -4 -10t-15 -6l-11 -3q-23 -9 -55 -17t-79 -8z" />
    <glyph glyph-name="ordfeminine" unicode="&#xaa;" horiz-adv-x="463" 
d="M163 325q-52 0 -83 27t-31 72q0 50 36 77.5t113 34.5l127 13v57q0 106 -108 106q-34 0 -62 -11.5t-34 -49.5l-6 -38q-1 -6 -7 -6h-6q-6 0 -7 6q-3 21 -6.5 41t-7.5 39q-1 6 4 9q29 17 65.5 27t67.5 10q68 0 105.5 -34.5t37.5 -96.5v-245l72 -11q6 -1 6 -7v-5q0 -6 -6 -6
l-46 -4q-38 -3 -50 -0.5t-12 18.5v55q-12 -17 -37 -35t-57.5 -30.5t-67.5 -12.5zM86 426q0 -32 22 -51t59 -19q33 0 64.5 11t56.5 27.5t37 34.5v94l-122 -13q-64 -7 -90.5 -26t-26.5 -58z" />
    <glyph glyph-name="guillemotleft" unicode="&#xab;" horiz-adv-x="518" 
d="M437 20l-169 203q-4 5 0 10l169 206q4 5 9 1l2 -2q5 -4 2 -9l-133 -200l133 -200q3 -5 -2 -9l-2 -1q-5 -4 -9 1zM233 20l-169 203q-4 5 0 10l169 206q4 5 9 1l2 -2q5 -4 2 -9l-133 -200l133 -200q3 -5 -2 -9l-2 -1q-5 -4 -9 1z" />
    <glyph glyph-name="logicalnot" unicode="&#xac;" horiz-adv-x="670" 
d="M39 394q1 6 7 6h581q6 0 6 -6v-283q0 -6 -6 -7q-10 -3 -21 0q-6 1 -6 7v260h-554q-6 0 -7 6q-1 9 0 17z" />
    <glyph glyph-name="uni00AD" unicode="&#xad;" horiz-adv-x="346" 
d="M37 260q-6 0 -5 6l3 19q1 6 7 6h215l41 3q6 0 6 -6q1 -5 0.5 -11t-1.5 -11q-2 -6 -8 -6h-258z" />
    <glyph glyph-name="registered" unicode="&#xae;" horiz-adv-x="530" 
d="M263 326q-62 0 -109.5 26t-74 73t-26.5 108t26.5 106.5t74 71.5t109.5 26q64 0 112 -25.5t75 -71.5t27 -107q0 -62 -27 -108.5t-75 -72.5t-112 -26zM263 353q55 0 96.5 22.5t64.5 63.5t23 94t-23.5 92.5t-64.5 62t-96 22.5q-53 0 -93.5 -22.5t-63.5 -62.5t-23 -92
q0 -53 23 -93.5t63.5 -63.5t93.5 -23zM222 442q0 -9 10 -11l26 -3q4 -1 4 -6v-3q0 -4 -5 -4h-104q-4 0 -4 5v3q0 4 5 5l25 4q9 2 9 11v186q0 9 -10 11l-25 3q-4 1 -4 6v3q0 4 5 4h113q44 0 67.5 -17t23.5 -49q0 -29 -19.5 -46.5t-54.5 -20.5q7 -4 15 -10.5t18 -18.5l45 -55
q3 -4 9 -7l10 -3q6 -2 6 -7v-1q0 -6 -5 -6h-33q-7 0 -11 2.5t-12 12.5l-51 69q-11 15 -17.5 19t-15.5 4h-20v-80zM267 637h-45v-97h45q26 0 40.5 13.5t14.5 36.5q0 47 -55 47z" />
    <glyph glyph-name="macron" unicode="&#xaf;" horiz-adv-x="321" 
d="M31 633q1 6 7 6h178l69 2q6 0 6 -6q0 -5 -0.5 -9.5t-1.5 -9.5q-1 -6 -7 -6h-244q-6 0 -7 6q-2 8 0 17z" />
    <glyph glyph-name="degree" unicode="&#xb0;" horiz-adv-x="594" 
d="M296 418q-73 0 -118 44.5t-45 117.5t44.5 116.5t118.5 43.5q75 0 120 -43.5t45 -116.5t-45 -117.5t-120 -44.5zM298 445q58 0 92.5 37t34.5 98q0 60 -35 96.5t-92 36.5q-58 0 -93.5 -36t-35.5 -97t35.5 -98t93.5 -37z" />
    <glyph glyph-name="plusminus" unicode="&#xb1;" horiz-adv-x="670" 
d="M67 390q1 6 7 6h272v184l-3 49q0 6 6 7t12 1h12t6 -6v-235h207l69 3q6 0 6 -6v-10t-2 -10q-1 -6 -7 -6h-273v-241q0 -6 -6 -7q-10 -1 -21 0q-6 1 -6 7v241h-272q-6 0 -7 6q-2 9 0 17zM39 46q1 6 7 6h512l69 2q6 0 6 -6v-9.5t-2 -9.5q-1 -6 -7 -6h-578q-6 0 -7 6
q-1 9 0 17z" />
    <glyph glyph-name="uni00B2" unicode="&#xb2;" horiz-adv-x="401" 
d="M58 460q-6 0 -7 6v-1q-1 6 3 10l1 1q17 16 29 27.5t27 27.5q61 59 96 99t49.5 70.5t14.5 60.5q0 44 -27 68t-72 24q-37 0 -61.5 -16.5t-39.5 -50.5q-2 -6 -8 -5l-6 2q-6 1 -5 7q12 45 47 70t85 25q57 0 92 -31t35 -86q0 -39 -20 -75.5t-65 -83.5t-119 -116h181
q14 0 19 16l19 47q2 6 8 5h2q6 -1 5 -7l-11 -91q-1 -6 -7 -6l-39 3h-226z" />
    <glyph glyph-name="uni00B3" unicode="&#xb3;" horiz-adv-x="394" 
d="M185 456q-60 0 -95.5 22.5t-35.5 49.5q0 19 18 19q12 0 18.5 -10t14.5 -23.5t25.5 -23.5t53.5 -10q50 0 76.5 24t26.5 64q0 45 -33 70.5t-90 25.5h-25q-6 0 -5 6l2 11q1 6 7 6h21q48 0 78.5 24.5t30.5 64.5q0 34 -25 55.5t-69 21.5q-33 0 -60 -15t-42 -47q-3 -5 -8 -3
l-5 2q-6 2 -5 8q11 40 46 63.5t82 23.5q56 0 91 -29t35 -76q0 -38 -26 -65.5t-68 -37.5q51 -9 79.5 -37t28.5 -71q0 -51 -38.5 -82t-103.5 -31z" />
    <glyph glyph-name="acute" unicode="&#xb4;" horiz-adv-x="233" 
d="M50 553q-4 -4 -9 -1l-8 6q-5 3 -1 7q37 41 69.5 83t60.5 86q3 5 9 4t13 -4.5t13 -7.5t6 -8t-8 -14q-33 -40 -69 -76.5t-76 -74.5z" />
    <glyph glyph-name="uni00B5" unicode="&#xb5;" horiz-adv-x="703" 
d="M201 -188q6 -2 5 -8l-1 -5q-1 -6 -7 -7q-16 -3 -25 -3q-30 0 -40.5 21.5t-8.5 79.5l10 306v232l-7 40q-1 8 0 11t7 6q18 5 32 5q6 0 6 -6l-2 -53v-244q0 -159 119 -159q112 0 195 112v288l-7 40q-1 8 0 11t7 6q18 5 32 5q6 0 6 -6l-2 -53v-341q0 -30 6.5 -45t27.5 -20
t65 -5q6 0 6 -6v-9q0 -6 -6 -7q-14 -1 -31 -2t-34 -1q-39 0 -54.5 20.5t-15.5 69.5v19q-32 -47 -85.5 -78.5t-110.5 -31.5q-103 0 -129 82l-2 -168q-1 -42 9 -63.5t35 -32.5z" />
    <glyph glyph-name="paragraph" unicode="&#xb6;" horiz-adv-x="788" 
d="M266 528q0 -99 36.5 -141t91.5 -42v356q-37 0 -66 -16t-45.5 -54t-16.5 -103zM271 0q-6 0 -6 6v8q0 6 6 7l110 9q13 1 13 18v265h-52q-77 0 -136 24t-92.5 72t-33.5 120t33.5 117t92.5 66t136 21h360q6 0 6 -6v-9q0 -6 -6 -7l-110 -9q-13 -1 -13 -18v-640q0 -14 17 -14
l106 -9q6 -1 6 -7v-8q0 -6 -6 -6h-161v701h-109v-701h-161z" />
    <glyph glyph-name="periodcentered" unicode="&#xb7;" horiz-adv-x="370" 
d="M185 236q-19 0 -31 12t-12 30t12 30t31 12t31 -12t12 -30t-12 -30t-31 -12z" />
    <glyph glyph-name="cedilla" unicode="&#xb8;" horiz-adv-x="275" 
d="M149 -208q-29 0 -56.5 10t-45 25.5t-17.5 31.5q0 15 15 15q12 0 20 -8.5t17.5 -19t25.5 -19t43 -8.5q26 0 40.5 11.5t14.5 32.5q0 50 -92 68q-7 1 -3 6l39 79h31l-33 -66q45 -8 71 -31t26 -54q0 -34 -26 -53.5t-70 -19.5z" />
    <glyph glyph-name="uni00B9" unicode="&#xb9;" horiz-adv-x="344" 
d="M289 475q6 0 6 -6v-3q0 -6 -6 -6h-203q-6 0 -6 6v3q0 6 6 6l65 6q8 1 10.5 4.5t2.5 13.5v340l-90 -23q-6 -2 -8 4l-1 3q-2 6 4 8l114 49q11 5 14.5 3.5t3.5 -9.5v-379q0 -8 3.5 -10.5t13.5 -3.5z" />
    <glyph glyph-name="ordmasculine" unicode="&#xba;" horiz-adv-x="499" 
d="M249 325q-90 0 -142 55.5t-52 151.5t52 151.5t142 55.5q91 0 143 -55.5t52 -151.5q0 -97 -52 -152t-143 -55zM250 355q74 0 115 46t41 128q0 83 -42 131.5t-116 48.5q-73 0 -114 -46t-41 -129q0 -85 41.5 -132t115.5 -47z" />
    <glyph glyph-name="guillemotright" unicode="&#xbb;" horiz-adv-x="518" 
d="M81 438l169 -203q4 -5 0 -10l-169 -206q-4 -5 -9 -1l-2 2q-5 4 -2 9l133 200l-133 200q-3 5 2 9l2 1q5 4 9 -1zM285 438l169 -203q4 -5 0 -10l-169 -206q-4 -5 -9 -1l-2 2q-5 4 -2 9l133 200l-133 200q-3 5 2 9l2 1q5 4 9 -1z" />
    <glyph glyph-name="onequarter" unicode="&#xbc;" horiz-adv-x="975" 
d="M289 355q6 0 6 -6v-3q0 -6 -6 -6h-203q-6 0 -6 6v3q0 6 6 6l65 6q8 1 10.5 4.5t2.5 13.5v340l-90 -23q-6 -2 -8 4l-1 3q-2 6 4 8l114 49q11 5 14.5 3.5t3.5 -9.5v-379q0 -8 3.5 -10.5t13.5 -3.5zM770 772q4 5 9 3l14 -5q7 -2 7.5 -5.5t-7.5 -14.5l-526 -744l-14 -30
q-4 -5 -9 -3l-15 5q-7 2 -7 6t7 14l525 742zM722 0q-6 0 -6 6v3q0 6 6 7l62 5q8 1 10.5 4.5t2.5 13.5v85h-196q-6 0 -6 6v2q0 6 4 11l221 277q4 5 10 4l2 -1q6 -1 6 -7l-3 -35q-1 -7 -1 -14.5v-15.5v-199h57l16 3q10 2 12 0t2 -10q0 -4 -0.5 -7.5t-0.5 -7.5q-1 -6 -7 -6h-79
v-89q0 -8 3.5 -10.5t13.5 -3.5l61 -6q6 0 6 -6v-3q0 -6 -6 -6h-190zM797 152v202l-161 -202h161z" />
    <glyph glyph-name="onehalf" unicode="&#xbd;" horiz-adv-x="1008" 
d="M289 355q6 0 6 -6v-3q0 -6 -6 -6h-203q-6 0 -6 6v3q0 6 6 6l65 6q8 1 10.5 4.5t2.5 13.5v340l-90 -23q-6 -2 -8 4l-1 3q-2 6 4 8l114 49q11 5 14.5 3.5t3.5 -9.5v-379q0 -8 3.5 -10.5t13.5 -3.5zM770 772q4 5 9 3l14 -5q7 -2 7.5 -5.5t-7.5 -14.5l-526 -744l-14 -30
q-4 -5 -9 -3l-15 5q-7 2 -7 6t7 14l525 742zM665 0q-6 0 -7 6v-1q-1 6 3 10l1 1q17 16 29 27.5t27 27.5q61 59 96 99t49.5 70.5t14.5 60.5q0 44 -27 68t-72 24q-37 0 -61.5 -16.5t-39.5 -50.5q-2 -6 -8 -5l-6 2q-6 1 -5 7q12 45 47 70t85 25q57 0 92 -31t35 -86
q0 -39 -20 -75.5t-65 -83.5t-119 -116h181q14 0 19 16l19 47q2 6 8 5h2q6 -1 5 -7l-11 -91q-1 -6 -7 -6l-39 3h-226z" />
    <glyph glyph-name="threequarters" unicode="&#xbe;" horiz-adv-x="965" 
d="M185 336q-60 0 -95.5 22.5t-35.5 49.5q0 19 18 19q12 0 18.5 -10t14.5 -23.5t25.5 -23.5t53.5 -10q50 0 76.5 24t26.5 64q0 45 -33 70.5t-90 25.5h-25q-6 0 -5 6l2 11q1 6 7 6h21q48 0 78.5 24.5t30.5 64.5q0 34 -25 55.5t-69 21.5q-33 0 -60 -15t-42 -47q-3 -5 -8 -3
l-5 2q-6 2 -5 8q11 40 46 63.5t82 23.5q56 0 91 -29t35 -76q0 -38 -26 -65.5t-68 -37.5q51 -9 79.5 -37t28.5 -71q0 -51 -38.5 -82t-103.5 -31zM760 772q4 5 9 3l14 -5q7 -2 7.5 -5.5t-7.5 -14.5l-526 -744l-14 -30q-4 -5 -9 -3l-15 5q-7 2 -7 6t7 14l525 742zM712 0
q-6 0 -6 6v3q0 6 6 7l62 5q8 1 10.5 4.5t2.5 13.5v85h-196q-6 0 -6 6v2q0 6 4 11l221 277q4 5 10 4l2 -1q6 -1 6 -7l-3 -35q-1 -7 -1 -14.5v-15.5v-199h57l16 3q10 2 12 0t2 -10q0 -4 -0.5 -7.5t-0.5 -7.5q-1 -6 -7 -6h-79v-89q0 -8 3.5 -10.5t13.5 -3.5l61 -6q6 0 6 -6v-3
q0 -6 -6 -6h-190zM787 152v202l-161 -202h161z" />
    <glyph glyph-name="questiondown" unicode="&#xbf;" horiz-adv-x="539" 
d="M357 269q6 0 8 -6q16 -43 22 -68.5t6 -45.5q0 -43 -26.5 -64.5t-96.5 -39.5q-64 -16 -90.5 -39.5t-26.5 -57.5q0 -35 32.5 -68t95.5 -56t153 -30q6 0 5 -6q-3 -26 -12 -35q-5 -4 -11 -3q-91 9 -159 38t-105.5 71t-37.5 88q0 47 31.5 78t110.5 53q40 12 62.5 22t30 27.5
t4.5 48.5t-14 85q-1 6 5 6zM343 492q19 0 31 -12t12 -30t-12 -30t-31 -12t-31 12t-12 30t12 30t31 12z" />
    <glyph glyph-name="Agrave" unicode="&#xc0;" horiz-adv-x="815" 
d="M466 793l-7 -6q-6 -3 -10 0q-34 16 -77 43t-77 52q-10 8 -11 11.5t4 9.5q11 8 27 12q6 2 10 -2q19 -19 44 -40.5t51 -41t46 -32.5q6 -3 0 -6zM12 0q-6 0 -6 6v8q0 6 6 7l92 9q14 2 19 17l261 677q2 6 8 8l15 3q6 2 7 -4l9 -38l264 -650q5 -12 22 -14l89 -8q6 -1 6 -7v-8
q0 -6 -6 -6h-284q-6 0 -6 6v8q0 6 6 6l100 8q23 2 26.5 11.5t-4.5 29.5l-88 218q-150 -1 -299 0l-84 -221q-8 -21 -1 -28.5t29 -9.5l103 -8q6 0 6 -6v-8q0 -6 -6 -6h-284zM260 316q138 -3 276 0l-142 349z" />
    <glyph glyph-name="Aacute" unicode="&#xc1;" horiz-adv-x="815" 
d="M12 0q-6 0 -6 6v8q0 6 6 7l92 9q14 2 19 17l261 677q2 6 8 8l15 3q6 2 7 -4l9 -38l264 -650q5 -12 22 -14l89 -8q6 -1 6 -7v-8q0 -6 -6 -6h-284q-6 0 -6 6v8q0 6 6 6l100 8q23 2 26.5 11.5t-4.5 29.5l-88 218q-150 -1 -299 0l-84 -221q-8 -21 -1 -28.5t29 -9.5l103 -8
q6 0 6 -6v-8q0 -6 -6 -6h-284zM260 316q138 -3 276 0l-142 349zM350 793q-6 3 0 6q21 13 46.5 32.5t50.5 41t44 40.5q4 4 10 2q17 -4 27 -12q5 -6 4 -9.5t-11 -11.5q-34 -25 -77 -52t-77 -43q-4 -3 -10 0z" />
    <glyph glyph-name="Acircumflex" unicode="&#xc2;" horiz-adv-x="815" 
d="M12 0q-6 0 -6 6v8q0 6 6 7l92 9q14 2 19 17l261 677q2 6 8 8l15 3q6 2 7 -4l9 -38l264 -650q5 -12 22 -14l89 -8q6 -1 6 -7v-8q0 -6 -6 -6h-284q-6 0 -6 6v8q0 6 6 6l100 8q23 2 26.5 11.5t-4.5 29.5l-88 218q-150 -1 -299 0l-84 -221q-8 -21 -1 -28.5t29 -9.5l103 -8
q6 0 6 -6v-8q0 -6 -6 -6h-284zM260 316q138 -3 276 0l-142 349zM266 789q-5 3 -1 7q32 29 62 60.5t64 69.5q4 5 10 5h12q6 0 10 -4q35 -39 66 -70t62 -60q4 -4 -1 -7q-6 -4 -10 -5q-4 -3 -10 1q-27 20 -59 44.5t-66 51.5q-32 -27 -62 -52t-57 -45q-6 -3 -11 -2z" />
    <glyph glyph-name="Atilde" unicode="&#xc3;" horiz-adv-x="815" 
d="M12 0q-6 0 -6 6v8q0 6 6 7l92 9q14 2 19 17l261 677q2 6 8 8l15 3q6 2 7 -4l9 -38l264 -650q5 -12 22 -14l89 -8q6 -1 6 -7v-8q0 -6 -6 -6h-284q-6 0 -6 6v8q0 6 6 6l100 8q23 2 26.5 11.5t-4.5 29.5l-88 218q-150 -1 -299 0l-84 -221q-8 -21 -1 -28.5t29 -9.5l103 -8
q6 0 6 -6v-8q0 -6 -6 -6h-284zM260 316q138 -3 276 0l-142 349zM277 792q-5 4 -4 9q9 33 24 47.5t40 14.5q26 0 50 -11.5t47 -23.5t45 -12q34 0 49 32q3 6 7 3l4 -1q5 -4 4 -9q-9 -32 -24 -46.5t-40 -14.5q-26 0 -50 12t-46.5 23.5t-45.5 11.5q-35 0 -49 -33q-3 -6 -7 -3z
" />
    <glyph glyph-name="Adieresis" unicode="&#xc4;" horiz-adv-x="815" 
d="M12 0q-6 0 -6 6v8q0 6 6 7l92 9q14 2 19 17l261 677q2 6 8 8l15 3q6 2 7 -4l9 -38l264 -650q5 -12 22 -14l89 -8q6 -1 6 -7v-8q0 -6 -6 -6h-284q-6 0 -6 6v8q0 6 6 6l100 8q23 2 26.5 11.5t-4.5 29.5l-88 218q-150 -1 -299 0l-84 -221q-8 -21 -1 -28.5t29 -9.5l103 -8
q6 0 6 -6v-8q0 -6 -6 -6h-284zM260 316q138 -3 276 0l-142 349zM313 798q-15 0 -24 9t-9 22q0 14 9 22.5t24 8.5q14 0 23 -8.5t9 -22.5q0 -13 -9 -22t-23 -9zM503 798q-14 0 -23 9t-9 22q0 14 9 22.5t23 8.5t23.5 -8.5t9.5 -22.5q0 -13 -9.5 -22t-23.5 -9z" />
    <glyph glyph-name="Aring" unicode="&#xc5;" horiz-adv-x="815" 
d="M12 0q-6 0 -6 6v8q0 6 6 7l92 9q14 2 19 17l261 677q2 6 8 8l15 3q6 2 7 -4l9 -38l264 -650q5 -12 22 -14l89 -8q6 -1 6 -7v-8q0 -6 -6 -6h-284q-6 0 -6 6v8q0 6 6 6l100 8q23 2 26.5 11.5t-4.5 29.5l-88 218q-150 -1 -299 0l-84 -221q-8 -21 -1 -28.5t29 -9.5l103 -8
q6 0 6 -6v-8q0 -6 -6 -6h-284zM260 316q138 -3 276 0l-142 349zM397 710q-40 0 -65.5 24t-25.5 61q0 36 25.5 60t65.5 24t65 -24t25 -60q0 -37 -25 -61t-65 -24zM397 735q28 0 44.5 17.5t16.5 42.5t-16.5 42t-44.5 17t-45 -17t-17 -42t17 -42.5t45 -17.5z" />
    <glyph glyph-name="AE" unicode="&#xc6;" horiz-adv-x="1084" 
d="M594 42q3 -13 19 -13h314q12 0 19 16l47 133q2 6 8 5l11 -2q6 -1 5 -7l-32 -167q-1 -7 -4.5 -9t-16.5 -1l-34 3h-507q-6 0 -6 6v8q0 6 6 7l96 9q23 2 29 12t3 32l-26 225q-128 -1 -255 0l-121 -233q-10 -20 -4 -27t28 -9l117 -10q6 0 6 -6v-8q0 -6 -6 -6h-284q-6 0 -6 6
v8q0 6 6 7l76 9q13 1 21 16l334 640q8 15 -5 16l-100 9q-6 1 -6 7v9q0 6 6 6h598l41 3q8 1 10 -2t3 -16l12 -152q0 -6 -6 -7l-11 -3q-6 -1 -7 5l-31 130q-3 13 -20 13h-406l39 -324h293q12 0 17 17l16 73q1 6 7 6h7q6 0 6 -6v-224q0 -6 -6 -6h-7q-6 0 -7 6l-17 92
q-1 13 -19 13h-287zM285 328q118 -1 236 0l-43 369z" />
    <glyph glyph-name="Ccedilla" unicode="&#xc7;" horiz-adv-x="761" 
d="M430 -6q-101 0 -178 47t-120 131.5t-43 194.5t43.5 194t120.5 131t177 47q62 0 111.5 -11t82.5 -26l23 -5q8 -2 10.5 -5.5t3.5 -16.5l14 -156q1 -6 -5 -7l-11 -1q-6 -1 -7 5l-31 125q-3 13 -17 22q-35 21 -80.5 31.5t-94.5 10.5q-91 0 -159 -41.5t-105 -117.5t-37 -179
q0 -102 37.5 -178.5t105 -118.5t158.5 -42q50 0 96.5 11t81.5 32q12 7 15 24l30 122q1 6 7 5l11 -2q6 -1 5 -7l-15 -162q-1 -7 -4 -10t-15 -7l-17 -4q-33 -14 -82.5 -25t-111.5 -11zM428 -208q-29 0 -56.5 10t-45 25.5t-17.5 31.5q0 15 15 15q12 0 20 -8.5t17.5 -19
t25.5 -19t43 -8.5q26 0 40.5 11.5t14.5 32.5q0 50 -92 68q-7 1 -3 6l39 79h31l-33 -66q45 -8 71 -31t26 -54q0 -34 -26 -53.5t-70 -19.5z" />
    <glyph glyph-name="Egrave" unicode="&#xc8;" horiz-adv-x="748" 
d="M433 793l-7 -6q-6 -3 -10 0q-34 16 -77 43t-77 52q-10 8 -11 11.5t4 9.5q11 8 27 12q6 2 10 -2q19 -19 44 -40.5t51 -41t46 -32.5q6 -3 0 -6zM46 0q-6 0 -6 6v8q0 6 6 7l110 9q13 1 13 18v637q0 17 -13 18l-110 9q-6 1 -6 7v8q0 6 6 6h548l41 3q8 1 10 -2t3 -16l12 -152
q0 -6 -6 -7l-11 -3q-6 -1 -7 5l-31 130q-3 13 -20 13h-378v-310h304q12 0 17 17l16 73q1 6 7 6h7q6 0 6 -6v-224q0 -6 -6 -6h-7q-6 0 -7 6l-17 92q-1 13 -19 13h-301v-323q0 -13 17 -13h367q12 0 19 16l47 133q2 6 8 5l11 -2q6 -1 5 -7l-32 -167q-1 -7 -4.5 -9t-16.5 -1
l-34 3h-548z" />
    <glyph glyph-name="Eacute" unicode="&#xc9;" horiz-adv-x="748" 
d="M46 0q-6 0 -6 6v8q0 6 6 7l110 9q13 1 13 18v637q0 17 -13 18l-110 9q-6 1 -6 7v8q0 6 6 6h548l41 3q8 1 10 -2t3 -16l12 -152q0 -6 -6 -7l-11 -3q-6 -1 -7 5l-31 130q-3 13 -20 13h-378v-310h304q12 0 17 17l16 73q1 6 7 6h7q6 0 6 -6v-224q0 -6 -6 -6h-7q-6 0 -7 6
l-17 92q-1 13 -19 13h-301v-323q0 -13 17 -13h367q12 0 19 16l47 133q2 6 8 5l11 -2q6 -1 5 -7l-32 -167q-1 -7 -4.5 -9t-16.5 -1l-34 3h-548zM317 793q-6 3 0 6q21 13 46.5 32.5t50.5 41t44 40.5q4 4 10 2q17 -4 27 -12q5 -6 4 -9.5t-11 -11.5q-34 -25 -77 -52t-77 -43
q-4 -3 -10 0z" />
    <glyph glyph-name="Ecircumflex" unicode="&#xca;" horiz-adv-x="748" 
d="M46 0q-6 0 -6 6v8q0 6 6 7l110 9q13 1 13 18v637q0 17 -13 18l-110 9q-6 1 -6 7v8q0 6 6 6h548l41 3q8 1 10 -2t3 -16l12 -152q0 -6 -6 -7l-11 -3q-6 -1 -7 5l-31 130q-3 13 -20 13h-378v-310h304q12 0 17 17l16 73q1 6 7 6h7q6 0 6 -6v-224q0 -6 -6 -6h-7q-6 0 -7 6
l-17 92q-1 13 -19 13h-301v-323q0 -13 17 -13h367q12 0 19 16l47 133q2 6 8 5l11 -2q6 -1 5 -7l-32 -167q-1 -7 -4.5 -9t-16.5 -1l-34 3h-548zM233 789q-5 3 -1 7q32 29 62 60.5t64 69.5q4 5 10 5h12q6 0 10 -4q35 -39 66 -70t62 -60q4 -4 -1 -7q-6 -4 -10 -5q-4 -3 -10 1
q-27 20 -59 44.5t-66 51.5q-32 -27 -62 -52t-57 -45q-6 -3 -11 -2z" />
    <glyph glyph-name="Edieresis" unicode="&#xcb;" horiz-adv-x="748" 
d="M46 0q-6 0 -6 6v8q0 6 6 7l110 9q13 1 13 18v637q0 17 -13 18l-110 9q-6 1 -6 7v8q0 6 6 6h548l41 3q8 1 10 -2t3 -16l12 -152q0 -6 -6 -7l-11 -3q-6 -1 -7 5l-31 130q-3 13 -20 13h-378v-310h304q12 0 17 17l16 73q1 6 7 6h7q6 0 6 -6v-224q0 -6 -6 -6h-7q-6 0 -7 6
l-17 92q-1 13 -19 13h-301v-323q0 -13 17 -13h367q12 0 19 16l47 133q2 6 8 5l11 -2q6 -1 5 -7l-32 -167q-1 -7 -4.5 -9t-16.5 -1l-34 3h-548zM280 798q-15 0 -24 9t-9 22q0 14 9 22.5t24 8.5q14 0 23 -8.5t9 -22.5q0 -13 -9 -22t-23 -9zM470 798q-14 0 -23 9t-9 22
q0 14 9 22.5t23 8.5t23.5 -8.5t9.5 -22.5q0 -13 -9.5 -22t-23.5 -9z" />
    <glyph glyph-name="Igrave" unicode="&#xcc;" horiz-adv-x="376" 
d="M246 793l-7 -6q-6 -3 -10 0q-34 16 -77 43t-77 52q-10 8 -11 11.5t4 9.5q11 8 27 12q6 2 10 -2q19 -19 44 -40.5t51 -41t46 -32.5q6 -3 0 -6zM46 0q-6 0 -6 6v8q0 6 6 7l110 9q13 1 13 18v637q0 17 -13 18l-110 9q-6 1 -6 7v8q0 6 6 6h284q6 0 6 -6v-8q0 -6 -6 -7
l-106 -9q-17 0 -17 -14v-645q0 -14 17 -14l106 -9q6 -1 6 -7v-8q0 -6 -6 -6h-284z" />
    <glyph glyph-name="Iacute" unicode="&#xcd;" horiz-adv-x="376" 
d="M46 0q-6 0 -6 6v8q0 6 6 7l110 9q13 1 13 18v637q0 17 -13 18l-110 9q-6 1 -6 7v8q0 6 6 6h284q6 0 6 -6v-8q0 -6 -6 -7l-106 -9q-17 0 -17 -14v-645q0 -14 17 -14l106 -9q6 -1 6 -7v-8q0 -6 -6 -6h-284zM130 793q-6 3 0 6q21 13 46.5 32.5t50.5 41t44 40.5q4 4 10 2
q17 -4 27 -12q5 -6 4 -9.5t-11 -11.5q-34 -25 -77 -52t-77 -43q-4 -3 -10 0z" />
    <glyph glyph-name="Icircumflex" unicode="&#xce;" horiz-adv-x="376" 
d="M46 0q-6 0 -6 6v8q0 6 6 7l110 9q13 1 13 18v637q0 17 -13 18l-110 9q-6 1 -6 7v8q0 6 6 6h284q6 0 6 -6v-8q0 -6 -6 -7l-106 -9q-17 0 -17 -14v-645q0 -14 17 -14l106 -9q6 -1 6 -7v-8q0 -6 -6 -6h-284zM46 789q-5 3 -1 7q32 29 62 60.5t64 69.5q4 5 10 5h12q6 0 10 -4
q35 -39 66 -70t62 -60q4 -4 -1 -7q-6 -4 -10 -5q-4 -3 -10 1q-27 20 -59 44.5t-66 51.5q-32 -27 -62 -52t-57 -45q-6 -3 -11 -2z" />
    <glyph glyph-name="Idieresis" unicode="&#xcf;" horiz-adv-x="376" 
d="M46 0q-6 0 -6 6v8q0 6 6 7l110 9q13 1 13 18v637q0 17 -13 18l-110 9q-6 1 -6 7v8q0 6 6 6h284q6 0 6 -6v-8q0 -6 -6 -7l-106 -9q-17 0 -17 -14v-645q0 -14 17 -14l106 -9q6 -1 6 -7v-8q0 -6 -6 -6h-284zM93 798q-15 0 -24 9t-9 22q0 14 9 22.5t24 8.5q14 0 23 -8.5
t9 -22.5q0 -13 -9 -22t-23 -9zM283 798q-14 0 -23 9t-9 22q0 14 9 22.5t23 8.5t23.5 -8.5t9.5 -22.5q0 -13 -9.5 -22t-23.5 -9z" />
    <glyph glyph-name="Eth" unicode="&#xd0;" horiz-adv-x="824" 
d="M46 0q-6 0 -6 6v8q0 6 6 7l110 9q13 1 13 18v637q0 17 -13 18l-110 9q-6 1 -6 7v8q0 6 6 6h320q114 0 197 -44.5t127.5 -126.5t44.5 -195t-45 -195.5t-127.5 -127t-196.5 -44.5h-320zM366 704h-159v-662q0 -13 17 -13h142q103 0 176.5 41t113.5 116.5t40 180.5
t-39.5 180.5t-113.5 116t-177 40.5zM48 352q-6 0 -5 6l3 15q1 6 7 6h322l41 2q6 0 6 -6v-8t-1 -9q-1 -6 -7 -6h-366z" />
    <glyph glyph-name="Ntilde" unicode="&#xd1;" horiz-adv-x="848" 
d="M733 702q-17 0 -17 -14v-684q0 -6 -6 -6h-6q-6 0 -10 5l-492 671v-626q0 -17 13 -18l110 -9q6 -1 6 -7v-8q0 -6 -6 -6h-279q-6 0 -6 6v8q0 6 6 7l106 9q17 0 17 14v644q0 14 -17 14l-106 9q-6 1 -6 7v9q0 6 6 6h149q6 0 10 -5l477 -651v607q0 17 -13 18l-110 9q-6 1 -6 7
v9q0 6 6 6h280q6 0 6 -6v-9q0 -6 -6 -7zM305 792q-5 4 -4 9q9 33 24 47.5t40 14.5q26 0 50 -11.5t47 -23.5t45 -12q34 0 49 32q3 6 7 3l4 -1q5 -4 4 -9q-9 -32 -24 -46.5t-40 -14.5q-26 0 -50 12t-46.5 23.5t-45.5 11.5q-35 0 -49 -33q-3 -6 -7 -3z" />
    <glyph glyph-name="Ograve" unicode="&#xd2;" horiz-adv-x="866" 
d="M492 793l-7 -6q-6 -3 -10 0q-34 16 -77 43t-77 52q-10 8 -11 11.5t4 9.5q11 8 27 12q6 2 10 -2q19 -19 44 -40.5t51 -41t46 -32.5q6 -3 0 -6zM430 -6q-101 0 -178 47t-120 131.5t-43 194.5t43.5 194t120.5 131t177 47q104 0 182 -46.5t121.5 -130.5t43.5 -195
q0 -112 -43 -196t-121 -130.5t-183 -46.5zM429 28q94 0 163 42t107.5 118t38.5 179t-38.5 178.5t-107.5 117.5t-163 42q-91 0 -159 -42t-105 -117.5t-37 -178.5t37.5 -179t105 -118t158.5 -42z" />
    <glyph glyph-name="Oacute" unicode="&#xd3;" horiz-adv-x="866" 
d="M430 -6q-101 0 -178 47t-120 131.5t-43 194.5t43.5 194t120.5 131t177 47q104 0 182 -46.5t121.5 -130.5t43.5 -195q0 -112 -43 -196t-121 -130.5t-183 -46.5zM429 28q94 0 163 42t107.5 118t38.5 179t-38.5 178.5t-107.5 117.5t-163 42q-91 0 -159 -42t-105 -117.5
t-37 -178.5t37.5 -179t105 -118t158.5 -42zM376 793q-6 3 0 6q21 13 46.5 32.5t50.5 41t44 40.5q4 4 10 2q17 -4 27 -12q5 -6 4 -9.5t-11 -11.5q-34 -25 -77 -52t-77 -43q-4 -3 -10 0z" />
    <glyph glyph-name="Ocircumflex" unicode="&#xd4;" horiz-adv-x="866" 
d="M430 -6q-101 0 -178 47t-120 131.5t-43 194.5t43.5 194t120.5 131t177 47q104 0 182 -46.5t121.5 -130.5t43.5 -195q0 -112 -43 -196t-121 -130.5t-183 -46.5zM429 28q94 0 163 42t107.5 118t38.5 179t-38.5 178.5t-107.5 117.5t-163 42q-91 0 -159 -42t-105 -117.5
t-37 -178.5t37.5 -179t105 -118t158.5 -42zM292 789q-5 3 -1 7q32 29 62 60.5t64 69.5q4 5 10 5h12q6 0 10 -4q35 -39 66 -70t62 -60q4 -4 -1 -7q-6 -4 -10 -5q-4 -3 -10 1q-27 20 -59 44.5t-66 51.5q-32 -27 -62 -52t-57 -45q-6 -3 -11 -2z" />
    <glyph glyph-name="Otilde" unicode="&#xd5;" horiz-adv-x="866" 
d="M430 -6q-101 0 -178 47t-120 131.5t-43 194.5t43.5 194t120.5 131t177 47q104 0 182 -46.5t121.5 -130.5t43.5 -195q0 -112 -43 -196t-121 -130.5t-183 -46.5zM429 28q94 0 163 42t107.5 118t38.5 179t-38.5 178.5t-107.5 117.5t-163 42q-91 0 -159 -42t-105 -117.5
t-37 -178.5t37.5 -179t105 -118t158.5 -42zM303 792q-5 4 -4 9q9 33 24 47.5t40 14.5q26 0 50 -11.5t47 -23.5t45 -12q34 0 49 32q3 6 7 3l4 -1q5 -4 4 -9q-9 -32 -24 -46.5t-40 -14.5q-26 0 -50 12t-46.5 23.5t-45.5 11.5q-35 0 -49 -33q-3 -6 -7 -3z" />
    <glyph glyph-name="Odieresis" unicode="&#xd6;" horiz-adv-x="866" 
d="M430 -6q-101 0 -178 47t-120 131.5t-43 194.5t43.5 194t120.5 131t177 47q104 0 182 -46.5t121.5 -130.5t43.5 -195q0 -112 -43 -196t-121 -130.5t-183 -46.5zM429 28q94 0 163 42t107.5 118t38.5 179t-38.5 178.5t-107.5 117.5t-163 42q-91 0 -159 -42t-105 -117.5
t-37 -178.5t37.5 -179t105 -118t158.5 -42zM339 798q-15 0 -24 9t-9 22q0 14 9 22.5t24 8.5q14 0 23 -8.5t9 -22.5q0 -13 -9 -22t-23 -9zM529 798q-14 0 -23 9t-9 22q0 14 9 22.5t23 8.5t23.5 -8.5t9.5 -22.5q0 -13 -9.5 -22t-23.5 -9z" />
    <glyph glyph-name="multiply" unicode="&#xd7;" horiz-adv-x="670" 
d="M135 69q-4 -4 -9 -1q-4 3 -7 5.5t-6 5.5q-4 5 0 9l202 202l-207 207q-4 4 -1 9q3 4 6.5 6.5t7.5 4.5q5 3 9 -1l206 -205l166 166l32 37q4 5 9 2q5 -4 9 -6.5t8 -6.5q5 -4 1 -8l-205 -205l154 -154l52 -48q4 -4 -1 -8q-4 -3 -7.5 -6.5t-7.5 -6.5q-5 -3 -9 1l-201 202z" />
    <glyph glyph-name="Oslash" unicode="&#xd8;" horiz-adv-x="866" 
d="M183 -22q-3 -6 -8 -3q-4 2 -7 4t-6 5q-4 4 -1 9l52 76q-56 46 -90 120.5t-34 177.5q0 92 27.5 161.5t75.5 116t109.5 70.5t128.5 24q57 0 109 -15.5t95 -46.5l50 72q3 6 9 3q3 -1 6 -3t5 -4q4 -5 1 -10l-50 -73q55 -47 88.5 -121t33.5 -174q0 -93 -27.5 -162.5
t-76 -116.5t-111 -70.5t-132.5 -23.5q-53 0 -103 14.5t-92 44.5zM128 367q0 -93 28.5 -160.5t76.5 -109.5l382 552q-39 28 -86.5 42t-99.5 14q-82 0 -150.5 -37.5t-109.5 -112.5t-41 -188zM429 28q85 0 155.5 38t112.5 113t42 188q0 91 -28 157.5t-76 108.5l-381 -552
q74 -53 175 -53z" />
    <glyph glyph-name="Ugrave" unicode="&#xd9;" horiz-adv-x="869" 
d="M495 793l-7 -6q-6 -3 -10 0q-34 16 -77 43t-77 52q-10 8 -11 11.5t4 9.5q11 8 27 12q6 2 10 -2q19 -19 44 -40.5t51 -41t46 -32.5q6 -3 0 -6zM25 727q0 6 6 6h284q6 0 6 -6v-8q0 -6 -6 -7l-106 -9q-17 0 -17 -14v-453q0 -96 65 -152t177 -56q113 0 179 61.5t66 167.5v428
q0 17 -13 18l-109 9q-6 1 -6 7v8q0 6 6 6h279q6 0 6 -6v-8q0 -6 -6 -7l-104 -9q-17 0 -17 -14v-430q0 -124 -74.5 -194.5t-206.5 -70.5q-130 0 -205 65.5t-75 179.5v446q0 17 -13 18l-110 9q-6 1 -6 7v8z" />
    <glyph glyph-name="Uacute" unicode="&#xda;" horiz-adv-x="869" 
d="M25 727q0 6 6 6h284q6 0 6 -6v-8q0 -6 -6 -7l-106 -9q-17 0 -17 -14v-453q0 -96 65 -152t177 -56q113 0 179 61.5t66 167.5v428q0 17 -13 18l-109 9q-6 1 -6 7v8q0 6 6 6h279q6 0 6 -6v-8q0 -6 -6 -7l-104 -9q-17 0 -17 -14v-430q0 -124 -74.5 -194.5t-206.5 -70.5
q-130 0 -205 65.5t-75 179.5v446q0 17 -13 18l-110 9q-6 1 -6 7v8zM379 793q-6 3 0 6q21 13 46.5 32.5t50.5 41t44 40.5q4 4 10 2q17 -4 27 -12q5 -6 4 -9.5t-11 -11.5q-34 -25 -77 -52t-77 -43q-4 -3 -10 0z" />
    <glyph glyph-name="Ucircumflex" unicode="&#xdb;" horiz-adv-x="869" 
d="M25 727q0 6 6 6h284q6 0 6 -6v-8q0 -6 -6 -7l-106 -9q-17 0 -17 -14v-453q0 -96 65 -152t177 -56q113 0 179 61.5t66 167.5v428q0 17 -13 18l-109 9q-6 1 -6 7v8q0 6 6 6h279q6 0 6 -6v-8q0 -6 -6 -7l-104 -9q-17 0 -17 -14v-430q0 -124 -74.5 -194.5t-206.5 -70.5
q-130 0 -205 65.5t-75 179.5v446q0 17 -13 18l-110 9q-6 1 -6 7v8zM295 789q-5 3 -1 7q32 29 62 60.5t64 69.5q4 5 10 5h12q6 0 10 -4q35 -39 66 -70t62 -60q4 -4 -1 -7q-6 -4 -10 -5q-4 -3 -10 1q-27 20 -59 44.5t-66 51.5q-32 -27 -62 -52t-57 -45q-6 -3 -11 -2z" />
    <glyph glyph-name="Udieresis" unicode="&#xdc;" horiz-adv-x="869" 
d="M25 727q0 6 6 6h284q6 0 6 -6v-8q0 -6 -6 -7l-106 -9q-17 0 -17 -14v-453q0 -96 65 -152t177 -56q113 0 179 61.5t66 167.5v428q0 17 -13 18l-109 9q-6 1 -6 7v8q0 6 6 6h279q6 0 6 -6v-8q0 -6 -6 -7l-104 -9q-17 0 -17 -14v-430q0 -124 -74.5 -194.5t-206.5 -70.5
q-130 0 -205 65.5t-75 179.5v446q0 17 -13 18l-110 9q-6 1 -6 7v8zM342 798q-15 0 -24 9t-9 22q0 14 9 22.5t24 8.5q14 0 23 -8.5t9 -22.5q0 -13 -9 -22t-23 -9zM532 798q-14 0 -23 9t-9 22q0 14 9 22.5t23 8.5t23.5 -8.5t9.5 -22.5q0 -13 -9.5 -22t-23.5 -9z" />
    <glyph glyph-name="Yacute" unicode="&#xdd;" horiz-adv-x="808" 
d="M268 0q-6 0 -6 6v8q0 6 6 7l110 9q13 1 13 18v256l-262 385q-7 11 -24 13l-88 9q-6 1 -6 7v9q0 6 6 6h288q6 0 6 -6v-9q0 -6 -6 -6l-104 -8q-22 -1 -24 -10t10 -27l227 -333l214 335q12 19 6.5 26t-27.5 8l-95 8q-6 1 -6 7v9q0 6 6 6h284q6 0 6 -6v-9q0 -6 -6 -7l-99 -10
q-14 -2 -22 -15l-246 -383v-259q0 -14 17 -14l106 -9q6 -1 6 -7v-8q0 -6 -6 -6h-284zM345 793q-6 3 0 6q21 13 46.5 32.5t50.5 41t44 40.5q4 4 10 2q17 -4 27 -12q5 -6 4 -9.5t-11 -11.5q-34 -25 -77 -52t-77 -43q-4 -3 -10 0z" />
    <glyph glyph-name="Thorn" unicode="&#xde;" horiz-adv-x="678" 
d="M367 558h-160v-358q29 -2 60 -3t67 -1q256 0 256 187q0 175 -223 175zM46 0q-6 0 -6 6v8q0 6 6 7l110 9q13 1 13 18v637q0 17 -13 18l-110 9q-6 1 -6 7v8q0 6 6 6h284q6 0 6 -6v-8q0 -6 -6 -7l-106 -9q-17 0 -17 -14v-102h160q128 0 195 -52.5t67 -151.5
q0 -106 -75.5 -161t-219.5 -55q-36 0 -67 1t-60 3v-127q0 -14 17 -14l106 -9q6 -1 6 -7v-8q0 -6 -6 -6h-284z" />
    <glyph glyph-name="germandbls" unicode="&#xdf;" horiz-adv-x="670" 
d="M75 455q-6 0 -6 6v6q0 6 6 7l86 15v25q0 104 60.5 164.5t163.5 60.5q81 0 131.5 -38t50.5 -100q0 -31 -16 -61.5t-52 -66.5q-29 -30 -44 -47.5t-20.5 -29.5t-5.5 -24q0 -13 7 -24t26.5 -26.5t58.5 -41.5q59 -40 86 -76.5t27 -76.5q0 -63 -46 -98t-129 -35q-40 0 -74 9
t-52 24q-4 4 -4 10l-7 96q0 6 6 7l12 2q6 1 7 -5q8 -45 20.5 -69.5t35 -34.5t59.5 -10q63 0 98.5 25.5t35.5 70.5q0 38 -24.5 69.5t-77.5 65.5q-56 36 -79.5 61.5t-23.5 51.5q0 23 15 46.5t58 67.5q27 28 41 46.5t19.5 34t5.5 33.5q0 50 -43.5 82.5t-110.5 32.5
q-82 0 -130.5 -49.5t-48.5 -132.5v-485q0 -8 3.5 -10.5t13.5 -4.5l77 -7q6 -1 6 -7v-8q0 -6 -6 -6h-224q-6 0 -6 6v8q0 6 6 7l81 8q8 1 10.5 4.5t2.5 13.5v408h-86z" />
    <glyph glyph-name="agrave" unicode="&#xe0;" horiz-adv-x="548" 
d="M193 -6q-61 0 -98 32.5t-37 86.5q0 61 42.5 93t133.5 41l155 16v70q0 130 -131 130q-27 0 -52.5 -6t-43 -21.5t-21.5 -45.5l-6 -48q-1 -6 -7 -6h-8q-6 0 -7 6q-4 24 -8 47.5t-8 47.5q-1 6 4 9q22 14 63.5 30t93.5 16q80 0 123.5 -41t43.5 -115v-299l89 -12q6 -1 6 -7v-7
q0 -6 -6 -6l-55 -5q-33 -3 -48 -2t-18.5 6t-3.5 14v70q-14 -21 -44 -42.5t-69.5 -36.5t-82.5 -15zM194 27q49 0 89 16.5t68 38t38 37.5v115l-150 -16q-79 -9 -111 -32.5t-32 -71.5q0 -40 26 -63.5t72 -23.5zM298 552q-5 -3 -9 1q-40 38 -76 74.5t-69 76.5q-8 10 -8 14t6 8
t13 7.5t13 4.5t9 -4q29 -44 61 -86t69 -83q4 -4 -1 -7z" />
    <glyph glyph-name="aacute" unicode="&#xe1;" horiz-adv-x="548" 
d="M193 -6q-61 0 -98 32.5t-37 86.5q0 61 42.5 93t133.5 41l155 16v70q0 130 -131 130q-27 0 -52.5 -6t-43 -21.5t-21.5 -45.5l-6 -48q-1 -6 -7 -6h-8q-6 0 -7 6q-4 24 -8 47.5t-8 47.5q-1 6 4 9q22 14 63.5 30t93.5 16q80 0 123.5 -41t43.5 -115v-299l89 -12q6 -1 6 -7v-7
q0 -6 -6 -6l-55 -5q-33 -3 -48 -2t-18.5 6t-3.5 14v70q-14 -21 -44 -42.5t-69.5 -36.5t-82.5 -15zM194 27q49 0 89 16.5t68 38t38 37.5v115l-150 -16q-79 -9 -111 -32.5t-32 -71.5q0 -40 26 -63.5t72 -23.5zM225 553q-4 -4 -9 -1l-8 6q-5 3 -1 7q37 41 69.5 83t60.5 86
q3 5 9 4t13 -4.5t13 -7.5t6 -8t-8 -14q-33 -40 -69 -76.5t-76 -74.5z" />
    <glyph glyph-name="acircumflex" unicode="&#xe2;" horiz-adv-x="548" 
d="M193 -6q-61 0 -98 32.5t-37 86.5q0 61 42.5 93t133.5 41l155 16v70q0 130 -131 130q-27 0 -52.5 -6t-43 -21.5t-21.5 -45.5l-6 -48q-1 -6 -7 -6h-8q-6 0 -7 6q-4 24 -8 47.5t-8 47.5q-1 6 4 9q22 14 63.5 30t93.5 16q80 0 123.5 -41t43.5 -115v-299l89 -12q6 -1 6 -7v-7
q0 -6 -6 -6l-55 -5q-33 -3 -48 -2t-18.5 6t-3.5 14v70q-14 -21 -44 -42.5t-69.5 -36.5t-82.5 -15zM194 27q49 0 89 16.5t68 38t38 37.5v115l-150 -16q-79 -9 -111 -32.5t-32 -71.5q0 -40 26 -63.5t72 -23.5zM121 560q-5 3 -1 8q29 34 58 71t62 83q3 5 9 5h13q7 0 9 -5
q34 -46 63 -83t60 -71q4 -4 -1 -7q-2 -1 -4.5 -2.5t-5.5 -3.5q-6 -2 -10 2q-27 24 -57 54t-62 65q-30 -35 -59 -65t-56 -54q-4 -4 -10 -2q-2 1 -4 2.5t-4 2.5z" />
    <glyph glyph-name="atilde" unicode="&#xe3;" horiz-adv-x="548" 
d="M193 -6q-61 0 -98 32.5t-37 86.5q0 61 42.5 93t133.5 41l155 16v70q0 130 -131 130q-27 0 -52.5 -6t-43 -21.5t-21.5 -45.5l-6 -48q-1 -6 -7 -6h-8q-6 0 -7 6q-4 24 -8 47.5t-8 47.5q-1 6 4 9q22 14 63.5 30t93.5 16q80 0 123.5 -41t43.5 -115v-299l89 -12q6 -1 6 -7v-7
q0 -6 -6 -6l-55 -5q-33 -3 -48 -2t-18.5 6t-3.5 14v70q-14 -21 -44 -42.5t-69.5 -36.5t-82.5 -15zM194 27q49 0 89 16.5t68 38t38 37.5v115l-150 -16q-79 -9 -111 -32.5t-32 -71.5q0 -40 26 -63.5t72 -23.5zM126 599q-5 4 -4 9q9 33 24 47.5t40 14.5q26 0 50 -11.5t47 -23.5
t45 -12q34 0 49 32q3 6 7 3l4 -1q5 -4 4 -9q-9 -32 -24 -46.5t-40 -14.5q-26 0 -50 12t-46.5 23.5t-45.5 11.5q-35 0 -49 -33q-3 -6 -7 -3z" />
    <glyph glyph-name="adieresis" unicode="&#xe4;" horiz-adv-x="548" 
d="M193 -6q-61 0 -98 32.5t-37 86.5q0 61 42.5 93t133.5 41l155 16v70q0 130 -131 130q-27 0 -52.5 -6t-43 -21.5t-21.5 -45.5l-6 -48q-1 -6 -7 -6h-8q-6 0 -7 6q-4 24 -8 47.5t-8 47.5q-1 6 4 9q22 14 63.5 30t93.5 16q80 0 123.5 -41t43.5 -115v-299l89 -12q6 -1 6 -7v-7
q0 -6 -6 -6l-55 -5q-33 -3 -48 -2t-18.5 6t-3.5 14v70q-14 -21 -44 -42.5t-69.5 -36.5t-82.5 -15zM194 27q49 0 89 16.5t68 38t38 37.5v115l-150 -16q-79 -9 -111 -32.5t-32 -71.5q0 -40 26 -63.5t72 -23.5zM162 600q-15 0 -24 9t-9 22q0 14 9 23t24 9q14 0 23 -9t9 -23
q0 -13 -9 -22t-23 -9zM352 600q-14 0 -23 9t-9 22q0 14 9 23t23 9t23.5 -9t9.5 -23q0 -13 -9.5 -22t-23.5 -9z" />
    <glyph glyph-name="aring" unicode="&#xe5;" horiz-adv-x="548" 
d="M193 -6q-61 0 -98 32.5t-37 86.5q0 61 42.5 93t133.5 41l155 16v70q0 130 -131 130q-27 0 -52.5 -6t-43 -21.5t-21.5 -45.5l-6 -48q-1 -6 -7 -6h-8q-6 0 -7 6q-4 24 -8 47.5t-8 47.5q-1 6 4 9q22 14 63.5 30t93.5 16q80 0 123.5 -41t43.5 -115v-299l89 -12q6 -1 6 -7v-7
q0 -6 -6 -6l-55 -5q-33 -3 -48 -2t-18.5 6t-3.5 14v70q-14 -21 -44 -42.5t-69.5 -36.5t-82.5 -15zM194 27q49 0 89 16.5t68 38t38 37.5v115l-150 -16q-79 -9 -111 -32.5t-32 -71.5q0 -40 26 -63.5t72 -23.5zM257 542q-40 0 -65.5 24t-25.5 61q0 36 25.5 60t65.5 24t65 -24
t25 -60q0 -37 -25 -61t-65 -24zM257 567q28 0 44.5 17.5t16.5 42.5t-16.5 42t-44.5 17t-45 -17t-17 -42t17 -42.5t45 -17.5z" />
    <glyph glyph-name="ae" unicode="&#xe6;" horiz-adv-x="856" 
d="M193 -6q-58 0 -96.5 31t-38.5 88q0 68 47.5 97t128.5 37l154 16v70q0 74 -37.5 102t-92.5 28q-41 0 -75.5 -14.5t-41.5 -58.5l-6 -48q-1 -6 -7 -6h-8q-6 0 -7 6q-4 24 -8 47.5t-8 47.5q-1 6 4 9q35 21 77.5 33.5t79.5 12.5q69 0 110 -31.5t50 -91.5q25 58 74.5 90.5
t115.5 32.5q55 0 99 -28t69.5 -76t25.5 -108q0 -7 -1 -10q-1 -6 -7 -6h-369v-19q0 -63 24 -112.5t66 -77.5t95 -28q87 0 142 45q5 4 8 -1l5 -7q3 -5 -1 -9q-26 -29 -67 -45t-88 -16q-67 0 -117 31.5t-77 88.5q-14 -25 -47.5 -53t-79 -47.5t-95.5 -19.5zM608 459
q-76 0 -122.5 -43.5t-57.5 -123.5h337q-2 48 -23 86t-55.5 59.5t-78.5 21.5zM96 114q0 -43 27.5 -65t70.5 -22q50 0 92.5 19t73 45t45.5 47q-16 44 -17 96l-149 -16q-74 -8 -108.5 -30.5t-34.5 -73.5z" />
    <glyph glyph-name="ccedilla" unicode="&#xe7;" horiz-adv-x="519" 
d="M283 -6q-65 0 -113.5 31t-75.5 87.5t-27 130.5q0 75 28 131t78 87t116 31q49 0 88.5 -11.5t62.5 -22.5q5 -4 5 -9l-8 -126q0 -6 -6 -6h-15q-6 0 -7 6l-10 113q-24 10 -53.5 16.5t-56.5 6.5q-88 0 -136.5 -56.5t-48.5 -157.5q0 -63 23.5 -112.5t64 -77.5t91.5 -28
q57 0 93 13t60 32q5 4 9 -1l6 -7q4 -5 0 -9q-28 -29 -72 -45t-96 -16zM283 -208q-29 0 -56.5 10t-45 25.5t-17.5 31.5q0 15 15 15q12 0 20 -8.5t17.5 -19t25.5 -19t43 -8.5q26 0 40.5 11.5t14.5 32.5q0 50 -92 68q-7 1 -3 6l39 79h31l-33 -66q45 -8 71 -31t26 -54
q0 -34 -26 -53.5t-70 -19.5z" />
    <glyph glyph-name="egrave" unicode="&#xe8;" horiz-adv-x="535" 
d="M288 -6q-66 0 -116 31t-77.5 87t-27.5 131t27.5 131t77 87t115.5 31q56 0 100 -27.5t69 -75t25 -109.5v-10q-1 -6 -7 -6h-370v-19q0 -63 24 -112.5t66 -77.5t95 -28q87 0 142 45q5 4 8 -1l5 -7q3 -5 -1 -9q-26 -29 -67 -45t-88 -16zM287 459q-76 0 -122.5 -43.5
t-57.5 -123.5h338q-2 48 -23 86t-56 59.5t-79 21.5zM326 552q-5 -3 -9 1q-40 38 -76 74.5t-69 76.5q-8 10 -8 14t6 8t13 7.5t13 4.5t9 -4q29 -44 61 -86t69 -83q4 -4 -1 -7z" />
    <glyph glyph-name="eacute" unicode="&#xe9;" horiz-adv-x="535" 
d="M288 -6q-66 0 -116 31t-77.5 87t-27.5 131t27.5 131t77 87t115.5 31q56 0 100 -27.5t69 -75t25 -109.5v-10q-1 -6 -7 -6h-370v-19q0 -63 24 -112.5t66 -77.5t95 -28q87 0 142 45q5 4 8 -1l5 -7q3 -5 -1 -9q-26 -29 -67 -45t-88 -16zM287 459q-76 0 -122.5 -43.5
t-57.5 -123.5h338q-2 48 -23 86t-56 59.5t-79 21.5zM253 553q-4 -4 -9 -1l-8 6q-5 3 -1 7q37 41 69.5 83t60.5 86q3 5 9 4t13 -4.5t13 -7.5t6 -8t-8 -14q-33 -40 -69 -76.5t-76 -74.5z" />
    <glyph glyph-name="ecircumflex" unicode="&#xea;" horiz-adv-x="535" 
d="M288 -6q-66 0 -116 31t-77.5 87t-27.5 131t27.5 131t77 87t115.5 31q56 0 100 -27.5t69 -75t25 -109.5v-10q-1 -6 -7 -6h-370v-19q0 -63 24 -112.5t66 -77.5t95 -28q87 0 142 45q5 4 8 -1l5 -7q3 -5 -1 -9q-26 -29 -67 -45t-88 -16zM287 459q-76 0 -122.5 -43.5
t-57.5 -123.5h338q-2 48 -23 86t-56 59.5t-79 21.5zM149 560q-5 3 -1 8q29 34 58 71t62 83q3 5 9 5h13q7 0 9 -5q34 -46 63 -83t60 -71q4 -4 -1 -7q-2 -1 -4.5 -2.5t-5.5 -3.5q-6 -2 -10 2q-27 24 -57 54t-62 65q-30 -35 -59 -65t-56 -54q-4 -4 -10 -2q-2 1 -4 2.5t-4 2.5z
" />
    <glyph glyph-name="edieresis" unicode="&#xeb;" horiz-adv-x="535" 
d="M288 -6q-66 0 -116 31t-77.5 87t-27.5 131t27.5 131t77 87t115.5 31q56 0 100 -27.5t69 -75t25 -109.5v-10q-1 -6 -7 -6h-370v-19q0 -63 24 -112.5t66 -77.5t95 -28q87 0 142 45q5 4 8 -1l5 -7q3 -5 -1 -9q-26 -29 -67 -45t-88 -16zM287 459q-76 0 -122.5 -43.5
t-57.5 -123.5h338q-2 48 -23 86t-56 59.5t-79 21.5zM190 600q-15 0 -24 9t-9 22q0 14 9 23t24 9q14 0 23 -9t9 -23q0 -13 -9 -22t-23 -9zM380 600q-14 0 -23 9t-9 22q0 14 9 23t23 9t23.5 -9t9.5 -23q0 -13 -9.5 -22t-23.5 -9z" />
    <glyph glyph-name="igrave" unicode="&#xec;" horiz-adv-x="313" 
d="M59 0q-6 0 -6 6v8q0 6 6 7l69 8q8 1 10.5 4.5t2.5 13.5v401l-89 7q-6 1 -6 7v7q0 6 6 7l105 15q13 2 16.5 -0.5t3.5 -10.5v-437q0 -8 3.5 -10.5t13.5 -4.5l89 -7q6 -1 6 -7v-8q0 -6 -6 -6h-224zM200 552q-5 -3 -9 1q-40 38 -76 74.5t-69 76.5q-8 10 -8 14t6 8t13 7.5
t13 4.5t9 -4q29 -44 61 -86t69 -83q4 -4 -1 -7z" />
    <glyph glyph-name="iacute" unicode="&#xed;" horiz-adv-x="313" 
d="M59 0q-6 0 -6 6v8q0 6 6 7l69 8q8 1 10.5 4.5t2.5 13.5v401l-89 7q-6 1 -6 7v7q0 6 6 7l105 15q13 2 16.5 -0.5t3.5 -10.5v-437q0 -8 3.5 -10.5t13.5 -4.5l89 -7q6 -1 6 -7v-8q0 -6 -6 -6h-224zM127 553q-4 -4 -9 -1l-8 6q-5 3 -1 7q37 41 69.5 83t60.5 86q3 5 9 4
t13 -4.5t13 -7.5t6 -8t-8 -14q-33 -40 -69 -76.5t-76 -74.5z" />
    <glyph glyph-name="icircumflex" unicode="&#xee;" horiz-adv-x="313" 
d="M59 0q-6 0 -6 6v8q0 6 6 7l69 8q8 1 10.5 4.5t2.5 13.5v401l-89 7q-6 1 -6 7v7q0 6 6 7l105 15q13 2 16.5 -0.5t3.5 -10.5v-437q0 -8 3.5 -10.5t13.5 -4.5l89 -7q6 -1 6 -7v-8q0 -6 -6 -6h-224zM23 560q-5 3 -1 8q29 34 58 71t62 83q3 5 9 5h13q7 0 9 -5q34 -46 63 -83
t60 -71q4 -4 -1 -7q-2 -1 -4.5 -2.5t-5.5 -3.5q-6 -2 -10 2q-27 24 -57 54t-62 65q-30 -35 -59 -65t-56 -54q-4 -4 -10 -2q-2 1 -4 2.5t-4 2.5z" />
    <glyph glyph-name="idieresis" unicode="&#xef;" horiz-adv-x="313" 
d="M59 0q-6 0 -6 6v8q0 6 6 7l69 8q8 1 10.5 4.5t2.5 13.5v401l-89 7q-6 1 -6 7v7q0 6 6 7l105 15q13 2 16.5 -0.5t3.5 -10.5v-437q0 -8 3.5 -10.5t13.5 -4.5l89 -7q6 -1 6 -7v-8q0 -6 -6 -6h-224zM64 600q-15 0 -24 9t-9 22q0 14 9 23t24 9q14 0 23 -9t9 -23q0 -13 -9 -22
t-23 -9zM254 600q-14 0 -23 9t-9 22q0 14 9 23t23 9t23.5 -9t9.5 -23q0 -13 -9.5 -22t-23.5 -9z" />
    <glyph glyph-name="eth" unicode="&#xf0;" horiz-adv-x="593" 
d="M296 -6q-106 0 -167.5 66.5t-61.5 182.5t61.5 182.5t167.5 66.5q58 0 102.5 -22.5t71.5 -63.5q-14 56 -43.5 112t-82.5 107l-132 -76q-4 -3 -10 1l-14 10q-5 4 0 7l135 77q-30 25 -66.5 47.5t-81.5 41.5q-6 2 -2 6l10 12q4 4 10 2q48 -20 87.5 -43t71.5 -49l86 49
q4 3 10 -1l14 -10q5 -3 0 -7l-88 -50q67 -63 99 -133.5t42 -139.5t10 -126q0 -116 -61 -182.5t-168 -66.5zM296 27q92 0 142.5 57t50.5 158t-50.5 159t-142.5 58q-91 0 -141.5 -56.5t-50.5 -159.5q0 -102 50.5 -159t141.5 -57z" />
    <glyph glyph-name="ntilde" unicode="&#xf1;" horiz-adv-x="669" 
d="M59 0q-6 0 -6 6v8q0 6 6 7l69 8q8 1 10.5 4.5t2.5 13.5v401l-89 7q-6 1 -6 7v7q0 6 6 7l104 15q13 2 16.5 -0.5t3.5 -10.5v-88l1 -14q44 50 105 82t117 32q69 0 105.5 -39.5t36.5 -113.5v-296q0 -8 3.5 -10.5t13.5 -4.5l89 -7q6 -1 6 -7v-8q0 -6 -6 -6h-224q-6 0 -6 6v8
q0 6 6 7l69 8q8 1 10.5 4.5t2.5 13.5v292q0 120 -111 120q-54 0 -109.5 -28.5t-107.5 -83.5v-304q0 -8 3.5 -10.5t13.5 -4.5l89 -7q6 -1 6 -7v-8q0 -6 -6 -6h-224zM215 599q-5 4 -4 9q9 33 24 47.5t40 14.5q26 0 50 -11.5t47 -23.5t45 -12q34 0 49 32q3 6 7 3l4 -1
q5 -4 4 -9q-9 -32 -24 -46.5t-40 -14.5q-26 0 -50 12t-46.5 23.5t-45.5 11.5q-35 0 -49 -33q-3 -6 -7 -3z" />
    <glyph glyph-name="ograve" unicode="&#xf2;" horiz-adv-x="593" 
d="M296 -6q-106 0 -167.5 66.5t-61.5 182.5t61.5 182.5t167.5 66.5q107 0 168 -66.5t61 -182.5q0 -117 -61 -183t-168 -66zM296 27q91 0 141.5 57t50.5 159q0 101 -51 158.5t-141 57.5t-141 -57t-51 -159q0 -103 50.5 -159.5t141.5 -56.5zM337 552q-5 -3 -9 1
q-40 38 -76 74.5t-69 76.5q-8 10 -8 14t6 8t13 7.5t13 4.5t9 -4q29 -44 61 -86t69 -83q4 -4 -1 -7z" />
    <glyph glyph-name="oacute" unicode="&#xf3;" horiz-adv-x="593" 
d="M296 -6q-106 0 -167.5 66.5t-61.5 182.5t61.5 182.5t167.5 66.5q107 0 168 -66.5t61 -182.5q0 -117 -61 -183t-168 -66zM296 27q91 0 141.5 57t50.5 159q0 101 -51 158.5t-141 57.5t-141 -57t-51 -159q0 -103 50.5 -159.5t141.5 -56.5zM264 553q-4 -4 -9 -1l-8 6
q-5 3 -1 7q37 41 69.5 83t60.5 86q3 5 9 4t13 -4.5t13 -7.5t6 -8t-8 -14q-33 -40 -69 -76.5t-76 -74.5z" />
    <glyph glyph-name="ocircumflex" unicode="&#xf4;" horiz-adv-x="593" 
d="M296 -6q-106 0 -167.5 66.5t-61.5 182.5t61.5 182.5t167.5 66.5q107 0 168 -66.5t61 -182.5q0 -117 -61 -183t-168 -66zM296 27q91 0 141.5 57t50.5 159q0 101 -51 158.5t-141 57.5t-141 -57t-51 -159q0 -103 50.5 -159.5t141.5 -56.5zM160 560q-5 3 -1 8q29 34 58 71
t62 83q3 5 9 5h13q7 0 9 -5q34 -46 63 -83t60 -71q4 -4 -1 -7q-2 -1 -4.5 -2.5t-5.5 -3.5q-6 -2 -10 2q-27 24 -57 54t-62 65q-30 -35 -59 -65t-56 -54q-4 -4 -10 -2q-2 1 -4 2.5t-4 2.5z" />
    <glyph glyph-name="otilde" unicode="&#xf5;" horiz-adv-x="593" 
d="M296 -6q-106 0 -167.5 66.5t-61.5 182.5t61.5 182.5t167.5 66.5q107 0 168 -66.5t61 -182.5q0 -117 -61 -183t-168 -66zM296 27q91 0 141.5 57t50.5 159q0 101 -51 158.5t-141 57.5t-141 -57t-51 -159q0 -103 50.5 -159.5t141.5 -56.5zM165 599q-5 4 -4 9q9 33 24 47.5
t40 14.5q26 0 50 -11.5t47 -23.5t45 -12q34 0 49 32q3 6 7 3l4 -1q5 -4 4 -9q-9 -32 -24 -46.5t-40 -14.5q-26 0 -50 12t-46.5 23.5t-45.5 11.5q-35 0 -49 -33q-3 -6 -7 -3z" />
    <glyph glyph-name="odieresis" unicode="&#xf6;" horiz-adv-x="593" 
d="M296 -6q-106 0 -167.5 66.5t-61.5 182.5t61.5 182.5t167.5 66.5q107 0 168 -66.5t61 -182.5q0 -117 -61 -183t-168 -66zM296 27q91 0 141.5 57t50.5 159q0 101 -51 158.5t-141 57.5t-141 -57t-51 -159q0 -103 50.5 -159.5t141.5 -56.5zM201 600q-15 0 -24 9t-9 22
q0 14 9 23t24 9q14 0 23 -9t9 -23q0 -13 -9 -22t-23 -9zM391 600q-14 0 -23 9t-9 22q0 14 9 23t23 9t23.5 -9t9.5 -23q0 -13 -9.5 -22t-23.5 -9z" />
    <glyph glyph-name="divide" unicode="&#xf7;" horiz-adv-x="670" 
d="M336 422q-26 0 -36.5 13.5t-10.5 34.5q0 20 10.5 34t36.5 14t36 -14t10 -34q0 -21 -10 -34.5t-36 -13.5zM39 299q1 6 7 6h512l69 2q6 0 6 -6v-9.5t-2 -9.5q-1 -6 -7 -6h-578q-6 0 -7 6q-1 9 0 17zM336 29q-26 0 -36.5 13t-10.5 34t10.5 35t36.5 14t36 -14t10 -35t-10 -34
t-36 -13z" />
    <glyph glyph-name="oslash" unicode="&#xf8;" horiz-adv-x="593" 
d="M296 -6q-75 0 -129 34l-54 -81q-3 -5 -9 -3q-6 3 -11 8q-2 5 0 10l54 81q-38 31 -59 82t-21 118q0 116 61.5 182.5t167.5 66.5q76 0 130 -34l44 65q3 6 9 3t11 -8q3 -5 0 -10l-44 -65q79 -66 79 -200q0 -115 -60.5 -182t-168.5 -67zM104 243q0 -114 63 -171l240 357
q-46 30 -111 30q-92 0 -142 -57.5t-50 -158.5zM296 27q92 0 142.5 57t50.5 158q0 114 -63 171l-239 -356q45 -30 109 -30z" />
    <glyph glyph-name="ugrave" unicode="&#xf9;" horiz-adv-x="652" 
d="M266 -6q-141 0 -141 153v301l-89 7q-6 1 -6 7v7q0 6 6 7l105 15q13 2 16.5 -0.5t3.5 -10.5v-333q0 -119 106 -119q115 0 217 106v314l-89 7q-6 1 -6 7v7q0 6 6 7l105 15q13 2 16.5 -0.5t3.5 -10.5v-443l90 -12q6 -1 6 -7v-7q0 -6 -6 -7l-117 -10q-9 0 -9 11v96
q-43 -48 -101 -77.5t-117 -29.5zM364 552q-5 -3 -9 1q-40 38 -76 74.5t-69 76.5q-8 10 -8 14t6 8t13 7.5t13 4.5t9 -4q29 -44 61 -86t69 -83q4 -4 -1 -7z" />
    <glyph glyph-name="uacute" unicode="&#xfa;" horiz-adv-x="652" 
d="M266 -6q-141 0 -141 153v301l-89 7q-6 1 -6 7v7q0 6 6 7l105 15q13 2 16.5 -0.5t3.5 -10.5v-333q0 -119 106 -119q115 0 217 106v314l-89 7q-6 1 -6 7v7q0 6 6 7l105 15q13 2 16.5 -0.5t3.5 -10.5v-443l90 -12q6 -1 6 -7v-7q0 -6 -6 -7l-117 -10q-9 0 -9 11v96
q-43 -48 -101 -77.5t-117 -29.5zM291 553q-4 -4 -9 -1l-8 6q-5 3 -1 7q37 41 69.5 83t60.5 86q3 5 9 4t13 -4.5t13 -7.5t6 -8t-8 -14q-33 -40 -69 -76.5t-76 -74.5z" />
    <glyph glyph-name="ucircumflex" unicode="&#xfb;" horiz-adv-x="652" 
d="M266 -6q-141 0 -141 153v301l-89 7q-6 1 -6 7v7q0 6 6 7l105 15q13 2 16.5 -0.5t3.5 -10.5v-333q0 -119 106 -119q115 0 217 106v314l-89 7q-6 1 -6 7v7q0 6 6 7l105 15q13 2 16.5 -0.5t3.5 -10.5v-443l90 -12q6 -1 6 -7v-7q0 -6 -6 -7l-117 -10q-9 0 -9 11v96
q-43 -48 -101 -77.5t-117 -29.5zM187 560q-5 3 -1 8q29 34 58 71t62 83q3 5 9 5h13q7 0 9 -5q34 -46 63 -83t60 -71q4 -4 -1 -7q-2 -1 -4.5 -2.5t-5.5 -3.5q-6 -2 -10 2q-27 24 -57 54t-62 65q-30 -35 -59 -65t-56 -54q-4 -4 -10 -2q-2 1 -4 2.5t-4 2.5z" />
    <glyph glyph-name="udieresis" unicode="&#xfc;" horiz-adv-x="652" 
d="M266 -6q-141 0 -141 153v301l-89 7q-6 1 -6 7v7q0 6 6 7l105 15q13 2 16.5 -0.5t3.5 -10.5v-333q0 -119 106 -119q115 0 217 106v314l-89 7q-6 1 -6 7v7q0 6 6 7l105 15q13 2 16.5 -0.5t3.5 -10.5v-443l90 -12q6 -1 6 -7v-7q0 -6 -6 -7l-117 -10q-9 0 -9 11v96
q-43 -48 -101 -77.5t-117 -29.5zM228 600q-15 0 -24 9t-9 22q0 14 9 23t24 9q14 0 23 -9t9 -23q0 -13 -9 -22t-23 -9zM418 600q-14 0 -23 9t-9 22q0 14 9 23t23 9t23.5 -9t9.5 -23q0 -13 -9.5 -22t-23.5 -9z" />
    <glyph glyph-name="yacute" unicode="&#xfd;" horiz-adv-x="514" 
d="M110 -211q-16 0 -26.5 6t-10.5 18q0 10 5 18q3 5 9 4q8 -2 17 -3.5t19 -1.5q30 0 49.5 18t36.5 57l51 116l-214 425q-6 12 -23 14l-52 4q-6 1 -6 7v9q0 6 6 6h216q6 0 6 -6v-9q0 -6 -6 -6l-69 -5q-22 -1 -25.5 -10t6.5 -29l179 -359l160 362q9 21 2.5 28.5t-28.5 8.5
l-66 4q-6 0 -6 6v9q0 6 6 6h208q6 0 6 -6v-9q0 -6 -6 -7l-54 -5q-14 -2 -20 -17l-244 -548q-25 -55 -54.5 -80t-71.5 -25zM243 553q-4 -4 -9 -1l-8 6q-5 3 -1 7q37 41 69.5 83t60.5 86q3 5 9 4t13 -4.5t13 -7.5t6 -8t-8 -14q-33 -40 -69 -76.5t-76 -74.5z" />
    <glyph glyph-name="thorn" unicode="&#xfe;" horiz-adv-x="606" 
d="M39 -205q-6 0 -6 6v8q0 6 6 7l69 8q8 1 10.5 4.5t2.5 13.5v855l-89 7q-6 1 -6 7v7q0 6 6 7l105 15q13 2 16.5 -0.5t3.5 -10.5v-340q38 47 88 75t99 28q91 0 142.5 -63.5t51.5 -175.5q0 -120 -59.5 -189.5t-163.5 -69.5q-90 0 -158 66v-222q0 -8 3.5 -10.5t13.5 -4.5
l89 -7q6 -1 6 -7v-8q0 -6 -6 -6h-224zM344 459q-48 0 -97 -27t-90 -76v-260q65 -69 157 -69q89 0 138.5 59.5t49.5 166.5q0 97 -42 151.5t-116 54.5z" />
    <glyph glyph-name="ydieresis" unicode="&#xff;" horiz-adv-x="514" 
d="M110 -211q-16 0 -26.5 6t-10.5 18q0 10 5 18q3 5 9 4q8 -2 17 -3.5t19 -1.5q30 0 49.5 18t36.5 57l51 116l-214 425q-6 12 -23 14l-52 4q-6 1 -6 7v9q0 6 6 6h216q6 0 6 -6v-9q0 -6 -6 -6l-69 -5q-22 -1 -25.5 -10t6.5 -29l179 -359l160 362q9 21 2.5 28.5t-28.5 8.5
l-66 4q-6 0 -6 6v9q0 6 6 6h208q6 0 6 -6v-9q0 -6 -6 -7l-54 -5q-14 -2 -20 -17l-244 -548q-25 -55 -54.5 -80t-71.5 -25zM180 600q-15 0 -24 9t-9 22q0 14 9 23t24 9q14 0 23 -9t9 -23q0 -13 -9 -22t-23 -9zM370 600q-14 0 -23 9t-9 22q0 14 9 23t23 9t23.5 -9t9.5 -23
q0 -13 -9.5 -22t-23.5 -9z" />
    <glyph glyph-name="Amacron" unicode="&#x100;" horiz-adv-x="815" 
d="M12 0q-6 0 -6 6v8q0 6 6 7l92 9q14 2 19 17l261 677q2 6 8 8l15 3q6 2 7 -4l9 -38l264 -650q5 -12 22 -14l89 -8q6 -1 6 -7v-8q0 -6 -6 -6h-284q-6 0 -6 6v8q0 6 6 6l100 8q23 2 26.5 11.5t-4.5 29.5l-88 218q-150 -1 -299 0l-84 -221q-8 -21 -1 -28.5t29 -9.5l103 -8
q6 0 6 -6v-8q0 -6 -6 -6h-284zM260 316q138 -3 276 0l-142 349zM277 829q1 6 7 6h178l69 2q6 0 6 -6q0 -5 -0.5 -9.5t-1.5 -9.5q-1 -6 -7 -6h-244q-6 0 -7 6q-2 8 0 17z" />
    <glyph glyph-name="amacron" unicode="&#x101;" horiz-adv-x="548" 
d="M193 -6q-61 0 -98 32.5t-37 86.5q0 61 42.5 93t133.5 41l155 16v70q0 130 -131 130q-27 0 -52.5 -6t-43 -21.5t-21.5 -45.5l-6 -48q-1 -6 -7 -6h-8q-6 0 -7 6q-4 24 -8 47.5t-8 47.5q-1 6 4 9q22 14 63.5 30t93.5 16q80 0 123.5 -41t43.5 -115v-299l89 -12q6 -1 6 -7v-7
q0 -6 -6 -6l-55 -5q-33 -3 -48 -2t-18.5 6t-3.5 14v70q-14 -21 -44 -42.5t-69.5 -36.5t-82.5 -15zM194 27q49 0 89 16.5t68 38t38 37.5v115l-150 -16q-79 -9 -111 -32.5t-32 -71.5q0 -40 26 -63.5t72 -23.5zM128 633q1 6 7 6h178l69 2q6 0 6 -6q0 -5 -0.5 -9.5t-1.5 -9.5
q-1 -6 -7 -6h-244q-6 0 -7 6q-2 8 0 17z" />
    <glyph glyph-name="Abreve" unicode="&#x102;" horiz-adv-x="815" 
d="M12 0q-6 0 -6 6v8q0 6 6 7l92 9q14 2 19 17l261 677q2 6 8 8l15 3q6 2 7 -4l9 -38l264 -650q5 -12 22 -14l89 -8q6 -1 6 -7v-8q0 -6 -6 -6h-284q-6 0 -6 6v8q0 6 6 6l100 8q23 2 26.5 11.5t-4.5 29.5l-88 218q-150 -1 -299 0l-84 -221q-8 -21 -1 -28.5t29 -9.5l103 -8
q6 0 6 -6v-8q0 -6 -6 -6h-284zM260 316q138 -3 276 0l-142 349zM407 778q-61 0 -92 31.5t-43 73.5q-2 6 4 8l10 4q6 2 8 -4q14 -31 40 -53.5t73 -22.5q48 0 74 22.5t40 53.5q2 6 8 4l10 -4q6 -2 4 -8q-12 -42 -43 -73.5t-93 -31.5z" />
    <glyph glyph-name="abreve" unicode="&#x103;" horiz-adv-x="548" 
d="M193 -6q-61 0 -98 32.5t-37 86.5q0 61 42.5 93t133.5 41l155 16v70q0 130 -131 130q-27 0 -52.5 -6t-43 -21.5t-21.5 -45.5l-6 -48q-1 -6 -7 -6h-8q-6 0 -7 6q-4 24 -8 47.5t-8 47.5q-1 6 4 9q22 14 63.5 30t93.5 16q80 0 123.5 -41t43.5 -115v-299l89 -12q6 -1 6 -7v-7
q0 -6 -6 -6l-55 -5q-33 -3 -48 -2t-18.5 6t-3.5 14v70q-14 -21 -44 -42.5t-69.5 -36.5t-82.5 -15zM194 27q49 0 89 16.5t68 38t38 37.5v115l-150 -16q-79 -9 -111 -32.5t-32 -71.5q0 -40 26 -63.5t72 -23.5zM257 573q-61 0 -92 31.5t-43 73.5q-2 6 4 8l10 4q6 2 8 -4
q14 -31 40 -53.5t73 -22.5q48 0 74 22.5t40 53.5q2 6 8 4l10 -4q6 -2 4 -8q-12 -42 -43 -73.5t-93 -31.5z" />
    <glyph glyph-name="Aogonek" unicode="&#x104;" horiz-adv-x="815" 
d="M12 0q-6 0 -6 6v8q0 6 6 7l92 9q14 2 19 17l261 677q2 6 8 8l15 3q6 2 7 -4l9 -38l264 -650q5 -12 22 -14l89 -8q6 -1 6 -7v-8q0 -6 -6 -6h-284q-6 0 -6 6v8q0 6 6 6l100 8q23 2 26.5 11.5t-4.5 29.5l-88 218q-150 -1 -299 0l-84 -221q-8 -21 -1 -28.5t29 -9.5l103 -8
q6 0 6 -6v-8q0 -6 -6 -6h-284zM260 316q138 -3 276 0l-142 349zM641 -218q-34 0 -55 18.5t-21 49.5q0 34 24.5 73t78.5 91l14 -14q-43 -49 -62 -83t-19 -62q0 -44 51 -44q14 0 25.5 2.5t25.5 7.5q6 2 8 -4l3 -8q3 -6 -3 -9q-31 -18 -70 -18z" />
    <glyph glyph-name="aogonek" unicode="&#x105;" horiz-adv-x="552" 
d="M195 -6q-61 0 -98 32.5t-37 86.5q0 61 42.5 93t133.5 41l155 16v70q0 130 -131 130q-27 0 -52.5 -6t-43 -21.5t-21.5 -45.5l-6 -48q-1 -6 -7 -6h-8q-6 0 -7 6q-4 24 -8 47.5t-8 47.5q-1 6 4 9q22 14 63.5 30t93.5 16q80 0 123.5 -41t43.5 -115v-297l89 -7q6 0 6 -6v-5
q0 -6 -5 -9q-73 -48 -97 -86.5t-24 -65.5q0 -22 13 -35.5t38 -13.5q14 0 27 3t24 7q6 2 8 -4l3 -8q3 -6 -3 -9q-31 -18 -70 -18q-34 0 -55 19.5t-21 53.5q0 26 22.5 66t85.5 84l-65 -4q-7 -1 -9.5 2t-2.5 16v69q-14 -21 -44 -42.5t-69.5 -36.5t-82.5 -15zM196 27
q49 0 89 16.5t68 38t38 37.5v115l-150 -16q-79 -9 -111 -32.5t-32 -71.5q0 -40 26 -63.5t72 -23.5z" />
    <glyph glyph-name="Cacute" unicode="&#x106;" horiz-adv-x="761" 
d="M430 -6q-101 0 -178 47t-120 131.5t-43 194.5t43.5 194t120.5 131t177 47q62 0 111.5 -11t82.5 -26l23 -5q8 -2 10.5 -5.5t3.5 -16.5l14 -156q1 -6 -5 -7l-11 -1q-6 -1 -7 5l-31 125q-3 13 -17 22q-35 21 -80.5 31.5t-94.5 10.5q-91 0 -159 -41.5t-105 -117.5t-37 -179
q0 -102 37.5 -178.5t105 -118.5t158.5 -42q50 0 96.5 11t81.5 32q12 7 15 24l30 122q1 6 7 5l11 -2q6 -1 5 -7l-15 -162q-1 -7 -4 -10t-15 -7l-17 -4q-33 -14 -82.5 -25t-111.5 -11zM371 793q-6 3 0 6q21 13 46.5 32.5t50.5 41t44 40.5q4 4 10 2q17 -4 27 -12q5 -6 4 -9.5
t-11 -11.5q-34 -25 -77 -52t-77 -43q-4 -3 -10 0z" />
    <glyph glyph-name="cacute" unicode="&#x107;" horiz-adv-x="519" 
d="M283 -6q-65 0 -113.5 31t-75.5 87.5t-27 130.5q0 75 28 131t78 87t116 31q49 0 88.5 -11.5t62.5 -22.5q5 -4 5 -9l-8 -126q0 -6 -6 -6h-15q-6 0 -7 6l-10 113q-24 10 -53.5 16.5t-56.5 6.5q-88 0 -136.5 -56.5t-48.5 -157.5q0 -63 23.5 -112.5t64 -77.5t91.5 -28
q57 0 93 13t60 32q5 4 9 -1l6 -7q4 -5 0 -9q-28 -29 -72 -45t-96 -16zM252 553q-4 -4 -9 -1l-8 6q-5 3 -1 7q37 41 69.5 83t60.5 86q3 5 9 4t13 -4.5t13 -7.5t6 -8t-8 -14q-33 -40 -69 -76.5t-76 -74.5z" />
    <glyph glyph-name="Ccircumflex" unicode="&#x108;" horiz-adv-x="761" 
d="M430 -6q-101 0 -178 47t-120 131.5t-43 194.5t43.5 194t120.5 131t177 47q62 0 111.5 -11t82.5 -26l23 -5q8 -2 10.5 -5.5t3.5 -16.5l14 -156q1 -6 -5 -7l-11 -1q-6 -1 -7 5l-31 125q-3 13 -17 22q-35 21 -80.5 31.5t-94.5 10.5q-91 0 -159 -41.5t-105 -117.5t-37 -179
q0 -102 37.5 -178.5t105 -118.5t158.5 -42q50 0 96.5 11t81.5 32q12 7 15 24l30 122q1 6 7 5l11 -2q6 -1 5 -7l-15 -162q-1 -7 -4 -10t-15 -7l-17 -4q-33 -14 -82.5 -25t-111.5 -11zM287 789q-5 3 -1 7q32 29 62 60.5t64 69.5q4 5 10 5h12q6 0 10 -4q35 -39 66 -70t62 -60
q4 -4 -1 -7q-6 -4 -10 -5q-4 -3 -10 1q-27 20 -59 44.5t-66 51.5q-32 -27 -62 -52t-57 -45q-6 -3 -11 -2z" />
    <glyph glyph-name="ccircumflex" unicode="&#x109;" horiz-adv-x="519" 
d="M283 -6q-65 0 -113.5 31t-75.5 87.5t-27 130.5q0 75 28 131t78 87t116 31q49 0 88.5 -11.5t62.5 -22.5q5 -4 5 -9l-8 -126q0 -6 -6 -6h-15q-6 0 -7 6l-10 113q-24 10 -53.5 16.5t-56.5 6.5q-88 0 -136.5 -56.5t-48.5 -157.5q0 -63 23.5 -112.5t64 -77.5t91.5 -28
q57 0 93 13t60 32q5 4 9 -1l6 -7q4 -5 0 -9q-28 -29 -72 -45t-96 -16zM148 560q-5 3 -1 8q29 34 58 71t62 83q3 5 9 5h13q7 0 9 -5q34 -46 63 -83t60 -71q4 -4 -1 -7q-2 -1 -4.5 -2.5t-5.5 -3.5q-6 -2 -10 2q-27 24 -57 54t-62 65q-30 -35 -59 -65t-56 -54q-4 -4 -10 -2
q-2 1 -4 2.5t-4 2.5z" />
    <glyph glyph-name="Cdotaccent" unicode="&#x10a;" horiz-adv-x="761" 
d="M430 -6q-101 0 -178 47t-120 131.5t-43 194.5t43.5 194t120.5 131t177 47q62 0 111.5 -11t82.5 -26l23 -5q8 -2 10.5 -5.5t3.5 -16.5l14 -156q1 -6 -5 -7l-11 -1q-6 -1 -7 5l-31 125q-3 13 -17 22q-35 21 -80.5 31.5t-94.5 10.5q-91 0 -159 -41.5t-105 -117.5t-37 -179
q0 -102 37.5 -178.5t105 -118.5t158.5 -42q50 0 96.5 11t81.5 32q12 7 15 24l30 122q1 6 7 5l11 -2q6 -1 5 -7l-15 -162q-1 -7 -4 -10t-15 -7l-17 -4q-33 -14 -82.5 -25t-111.5 -11zM429 798q-15 0 -24 9t-9 22q0 14 9 22.5t24 8.5q14 0 23 -8.5t9 -22.5q0 -13 -9 -22
t-23 -9z" />
    <glyph glyph-name="cdotaccent" unicode="&#x10b;" horiz-adv-x="519" 
d="M283 -6q-65 0 -113.5 31t-75.5 87.5t-27 130.5q0 75 28 131t78 87t116 31q49 0 88.5 -11.5t62.5 -22.5q5 -4 5 -9l-8 -126q0 -6 -6 -6h-15q-6 0 -7 6l-10 113q-24 10 -53.5 16.5t-56.5 6.5q-88 0 -136.5 -56.5t-48.5 -157.5q0 -63 23.5 -112.5t64 -77.5t91.5 -28
q57 0 93 13t60 32q5 4 9 -1l6 -7q4 -5 0 -9q-28 -29 -72 -45t-96 -16zM284 600q-15 0 -24 9t-9 22q0 14 9 23t24 9q14 0 23 -9t9 -23q0 -13 -9 -22t-23 -9z" />
    <glyph glyph-name="Ccaron" unicode="&#x10c;" horiz-adv-x="761" 
d="M571 924q5 -3 1 -7q-31 -29 -61 -60.5t-65 -69.5q-4 -5 -10 -5h-12q-6 0 -10 4q-35 39 -65.5 70.5t-62.5 59.5q-4 4 1 7q6 4 10 5q4 3 10 -1q27 -20 59 -44.5t66 -51.5q32 27 62 52t57 45q6 3 11 2zM430 -6q-101 0 -178 47t-120 131.5t-43 194.5t43.5 194t120.5 131
t177 47q62 0 111.5 -11t82.5 -26l23 -5q8 -2 10.5 -5.5t3.5 -16.5l14 -156q1 -6 -5 -7l-11 -1q-6 -1 -7 5l-31 125q-3 13 -17 22q-35 21 -80.5 31.5t-94.5 10.5q-91 0 -159 -41.5t-105 -117.5t-37 -179q0 -102 37.5 -178.5t105 -118.5t158.5 -42q50 0 96.5 11t81.5 32
q12 7 15 24l30 122q1 6 7 5l11 -2q6 -1 5 -7l-15 -162q-1 -7 -4 -10t-15 -7l-17 -4q-33 -14 -82.5 -25t-111.5 -11z" />
    <glyph glyph-name="ccaron" unicode="&#x10d;" horiz-adv-x="519" 
d="M420 732q5 -3 1 -8q-29 -34 -58 -70.5t-62 -83.5q-2 -5 -9 -5h-13q-6 0 -9 5q-34 47 -63 83.5t-60 70.5q-4 4 1 7q2 2 4.5 3.5t5.5 2.5q6 2 10 -2q27 -24 57 -54t62 -65q30 35 59 65t56 54q4 4 10 2l4 -2t4 -3zM283 -6q-65 0 -113.5 31t-75.5 87.5t-27 130.5q0 75 28 131
t78 87t116 31q49 0 88.5 -11.5t62.5 -22.5q5 -4 5 -9l-8 -126q0 -6 -6 -6h-15q-6 0 -7 6l-10 113q-24 10 -53.5 16.5t-56.5 6.5q-88 0 -136.5 -56.5t-48.5 -157.5q0 -63 23.5 -112.5t64 -77.5t91.5 -28q57 0 93 13t60 32q5 4 9 -1l6 -7q4 -5 0 -9q-28 -29 -72 -45t-96 -16z
" />
    <glyph glyph-name="Dcaron" unicode="&#x10e;" horiz-adv-x="824" 
d="M528 924q5 -3 1 -7q-31 -29 -61 -60.5t-65 -69.5q-4 -5 -10 -5h-12q-6 0 -10 4q-35 39 -65.5 70.5t-62.5 59.5q-4 4 1 7q6 4 10 5q4 3 10 -1q27 -20 59 -44.5t66 -51.5q32 27 62 52t57 45q6 3 11 2zM46 0q-6 0 -6 6v8q0 6 6 7l110 9q13 1 13 18v637q0 17 -13 18l-110 9
q-6 1 -6 7v8q0 6 6 6h320q114 0 197 -44.5t127.5 -126.5t44.5 -195t-45 -195.5t-127.5 -127t-196.5 -44.5h-320zM366 704h-159v-662q0 -13 17 -13h142q103 0 176.5 41t113.5 116.5t40 180.5t-39.5 180.5t-113.5 116t-177 40.5z" />
    <glyph glyph-name="dcaron" unicode="&#x10f;" horiz-adv-x="616" 
d="M290 492q90 0 158 -66v271l-89 7q-6 1 -6 7v7q0 6 6 7l105 15q13 2 16.5 -0.5t3.5 -10.5v-692l90 -12q6 -1 6 -7v-7q0 -6 -6 -7l-117 -10q-9 0 -9 11v92q-38 -47 -88 -75t-99 -28q-91 0 -142.5 63.5t-51.5 175.5q0 120 60 189.5t163 69.5zM261 27q48 0 97 27t90 76v260
q-65 69 -157 69q-89 0 -138.5 -59.5t-49.5 -166.5q0 -97 42 -151.5t116 -54.5zM598 758q1 -4 1 -8q1 -35 -7 -78t-31 -93q-3 -5 -8 -3l-8 2q-6 2 -4 8q17 53 18 95t1 79q6 3 12.5 5.5t13.5 2.5q4 0 7.5 -1.5t4.5 -8.5z" />
    <glyph glyph-name="Dcroat" unicode="&#x110;" horiz-adv-x="824" 
d="M46 0q-6 0 -6 6v8q0 6 6 7l110 9q13 1 13 18v637q0 17 -13 18l-110 9q-6 1 -6 7v8q0 6 6 6h320q114 0 197 -44.5t127.5 -126.5t44.5 -195t-45 -195.5t-127.5 -127t-196.5 -44.5h-320zM366 704h-159v-662q0 -13 17 -13h142q103 0 176.5 41t113.5 116.5t40 180.5
t-39.5 180.5t-113.5 116t-177 40.5zM48 352q-6 0 -5 6l3 15q1 6 7 6h322l41 2q6 0 6 -6v-8t-1 -9q-1 -6 -7 -6h-366z" />
    <glyph glyph-name="dcroat" unicode="&#x111;" horiz-adv-x="616" 
d="M290 492q90 0 158 -66v271l-89 7q-6 1 -6 7v7q0 6 6 7l105 15q13 2 16.5 -0.5t3.5 -10.5v-692l90 -12q6 -1 6 -7v-7q0 -6 -6 -7l-117 -10q-9 0 -9 11v92q-38 -47 -88 -75t-99 -28q-91 0 -142.5 63.5t-51.5 175.5q0 120 60 189.5t163 69.5zM261 27q48 0 97 27t90 76v260
q-65 69 -157 69q-89 0 -138.5 -59.5t-49.5 -166.5q0 -97 42 -151.5t116 -54.5zM264 578q-6 0 -5 6l3 15q1 6 7 6h260l41 2q6 0 6 -6v-8t-1 -9q-1 -6 -7 -6h-304z" />
    <glyph glyph-name="Emacron" unicode="&#x112;" horiz-adv-x="748" 
d="M46 0q-6 0 -6 6v8q0 6 6 7l110 9q13 1 13 18v637q0 17 -13 18l-110 9q-6 1 -6 7v8q0 6 6 6h548l41 3q8 1 10 -2t3 -16l12 -152q0 -6 -6 -7l-11 -3q-6 -1 -7 5l-31 130q-3 13 -20 13h-378v-310h304q12 0 17 17l16 73q1 6 7 6h7q6 0 6 -6v-224q0 -6 -6 -6h-7q-6 0 -7 6
l-17 92q-1 13 -19 13h-301v-323q0 -13 17 -13h367q12 0 19 16l47 133q2 6 8 5l11 -2q6 -1 5 -7l-32 -167q-1 -7 -4.5 -9t-16.5 -1l-34 3h-548zM244 829q1 6 7 6h178l69 2q6 0 6 -6q0 -5 -0.5 -9.5t-1.5 -9.5q-1 -6 -7 -6h-244q-6 0 -7 6q-2 8 0 17z" />
    <glyph glyph-name="emacron" unicode="&#x113;" horiz-adv-x="535" 
d="M288 -6q-66 0 -116 31t-77.5 87t-27.5 131t27.5 131t77 87t115.5 31q56 0 100 -27.5t69 -75t25 -109.5v-10q-1 -6 -7 -6h-370v-19q0 -63 24 -112.5t66 -77.5t95 -28q87 0 142 45q5 4 8 -1l5 -7q3 -5 -1 -9q-26 -29 -67 -45t-88 -16zM287 459q-76 0 -122.5 -43.5
t-57.5 -123.5h338q-2 48 -23 86t-56 59.5t-79 21.5zM156 633q1 6 7 6h178l69 2q6 0 6 -6q0 -5 -0.5 -9.5t-1.5 -9.5q-1 -6 -7 -6h-244q-6 0 -7 6q-2 8 0 17z" />
    <glyph glyph-name="Ebreve" unicode="&#x114;" horiz-adv-x="748" 
d="M46 0q-6 0 -6 6v8q0 6 6 7l110 9q13 1 13 18v637q0 17 -13 18l-110 9q-6 1 -6 7v8q0 6 6 6h548l41 3q8 1 10 -2t3 -16l12 -152q0 -6 -6 -7l-11 -3q-6 -1 -7 5l-31 130q-3 13 -20 13h-378v-310h304q12 0 17 17l16 73q1 6 7 6h7q6 0 6 -6v-224q0 -6 -6 -6h-7q-6 0 -7 6
l-17 92q-1 13 -19 13h-301v-323q0 -13 17 -13h367q12 0 19 16l47 133q2 6 8 5l11 -2q6 -1 5 -7l-32 -167q-1 -7 -4.5 -9t-16.5 -1l-34 3h-548zM374 778q-61 0 -92 31.5t-43 73.5q-2 6 4 8l10 4q6 2 8 -4q14 -31 40 -53.5t73 -22.5q48 0 74 22.5t40 53.5q2 6 8 4l10 -4
q6 -2 4 -8q-12 -42 -43 -73.5t-93 -31.5z" />
    <glyph glyph-name="ebreve" unicode="&#x115;" horiz-adv-x="535" 
d="M288 -6q-66 0 -116 31t-77.5 87t-27.5 131t27.5 131t77 87t115.5 31q56 0 100 -27.5t69 -75t25 -109.5v-10q-1 -6 -7 -6h-370v-19q0 -63 24 -112.5t66 -77.5t95 -28q87 0 142 45q5 4 8 -1l5 -7q3 -5 -1 -9q-26 -29 -67 -45t-88 -16zM287 459q-76 0 -122.5 -43.5
t-57.5 -123.5h338q-2 48 -23 86t-56 59.5t-79 21.5zM285 573q-61 0 -92 31.5t-43 73.5q-2 6 4 8l10 4q6 2 8 -4q14 -31 40 -53.5t73 -22.5q48 0 74 22.5t40 53.5q2 6 8 4l10 -4q6 -2 4 -8q-12 -42 -43 -73.5t-93 -31.5z" />
    <glyph glyph-name="Edotaccent" unicode="&#x116;" horiz-adv-x="748" 
d="M46 0q-6 0 -6 6v8q0 6 6 7l110 9q13 1 13 18v637q0 17 -13 18l-110 9q-6 1 -6 7v8q0 6 6 6h548l41 3q8 1 10 -2t3 -16l12 -152q0 -6 -6 -7l-11 -3q-6 -1 -7 5l-31 130q-3 13 -20 13h-378v-310h304q12 0 17 17l16 73q1 6 7 6h7q6 0 6 -6v-224q0 -6 -6 -6h-7q-6 0 -7 6
l-17 92q-1 13 -19 13h-301v-323q0 -13 17 -13h367q12 0 19 16l47 133q2 6 8 5l11 -2q6 -1 5 -7l-32 -167q-1 -7 -4.5 -9t-16.5 -1l-34 3h-548zM375 798q-15 0 -24 9t-9 22q0 14 9 22.5t24 8.5q14 0 23 -8.5t9 -22.5q0 -13 -9 -22t-23 -9z" />
    <glyph glyph-name="edotaccent" unicode="&#x117;" horiz-adv-x="535" 
d="M288 -6q-66 0 -116 31t-77.5 87t-27.5 131t27.5 131t77 87t115.5 31q56 0 100 -27.5t69 -75t25 -109.5v-10q-1 -6 -7 -6h-370v-19q0 -63 24 -112.5t66 -77.5t95 -28q87 0 142 45q5 4 8 -1l5 -7q3 -5 -1 -9q-26 -29 -67 -45t-88 -16zM287 459q-76 0 -122.5 -43.5
t-57.5 -123.5h338q-2 48 -23 86t-56 59.5t-79 21.5zM285 600q-15 0 -24 9t-9 22q0 14 9 23t24 9q14 0 23 -9t9 -23q0 -13 -9 -22t-23 -9z" />
    <glyph glyph-name="Eogonek" unicode="&#x118;" horiz-adv-x="748" 
d="M46 0q-6 0 -6 6v8q0 6 6 7l110 9q13 1 13 18v637q0 17 -13 18l-110 9q-6 1 -6 7v8q0 6 6 6h548l41 3q8 1 10 -2t3 -16l12 -152q0 -6 -6 -7l-11 -3q-6 -1 -7 5l-31 130q-3 13 -20 13h-378v-310h304q12 0 17 17l16 73q1 6 7 6h7q6 0 6 -6v-224q0 -6 -6 -6h-7q-6 0 -7 6
l-17 92q-1 13 -19 13h-301v-323q0 -13 17 -13h367q12 0 19 16l47 133q2 6 8 5l11 -2q6 -1 5 -7l-32 -167q-1 -7 -4.5 -9t-16.5 -1l-34 3h-548zM586 -218q-34 0 -55 18.5t-21 49.5q0 34 24.5 73t78.5 91l14 -14q-43 -49 -62 -83t-19 -62q0 -44 51 -44q14 0 25.5 2.5t25.5 7.5
q6 2 8 -4l3 -8q3 -6 -3 -9q-31 -18 -70 -18z" />
    <glyph glyph-name="eogonek" unicode="&#x119;" horiz-adv-x="535" 
d="M350 -218q-34 0 -55 18.5t-21 49.5q0 35 24 73.5t72 84.5q-38 -14 -82 -14q-66 0 -116 31t-77.5 87t-27.5 131t27.5 131t77 87t115.5 31q56 0 100 -27.5t69 -75t25 -109.5v-10q-1 -6 -7 -6h-370v-19q0 -63 24 -112.5t66 -77.5t95 -28q43 0 77 10.5t65 34.5q5 4 8 -1l5 -7
q3 -5 -1 -9q-67 -64 -100 -111.5t-33 -88.5q0 -19 13 -31.5t38 -12.5q14 0 27 3t24 7q6 2 8 -4l3 -8q3 -6 -3 -9q-31 -18 -70 -18zM287 459q-76 0 -122.5 -43.5t-57.5 -123.5h338q-2 48 -23 86t-56 59.5t-79 21.5z" />
    <glyph glyph-name="Ecaron" unicode="&#x11a;" horiz-adv-x="748" 
d="M517 924q5 -3 1 -7q-31 -29 -61 -60.5t-65 -69.5q-4 -5 -10 -5h-12q-6 0 -10 4q-35 39 -65.5 70.5t-62.5 59.5q-4 4 1 7q6 4 10 5q4 3 10 -1q27 -20 59 -44.5t66 -51.5q32 27 62 52t57 45q6 3 11 2zM46 0q-6 0 -6 6v8q0 6 6 7l110 9q13 1 13 18v637q0 17 -13 18l-110 9
q-6 1 -6 7v8q0 6 6 6h548l41 3q8 1 10 -2t3 -16l12 -152q0 -6 -6 -7l-11 -3q-6 -1 -7 5l-31 130q-3 13 -20 13h-378v-310h304q12 0 17 17l16 73q1 6 7 6h7q6 0 6 -6v-224q0 -6 -6 -6h-7q-6 0 -7 6l-17 92q-1 13 -19 13h-301v-323q0 -13 17 -13h367q12 0 19 16l47 133
q2 6 8 5l11 -2q6 -1 5 -7l-32 -167q-1 -7 -4.5 -9t-16.5 -1l-34 3h-548z" />
    <glyph glyph-name="ecaron" unicode="&#x11b;" horiz-adv-x="535" 
d="M421 732q5 -3 1 -8q-29 -34 -58 -70.5t-62 -83.5q-2 -5 -9 -5h-13q-6 0 -9 5q-34 47 -63 83.5t-60 70.5q-4 4 1 7q2 2 4.5 3.5t5.5 2.5q6 2 10 -2q27 -24 57 -54t62 -65q30 35 59 65t56 54q4 4 10 2l4 -2t4 -3zM288 -6q-66 0 -116 31t-77.5 87t-27.5 131t27.5 131t77 87
t115.5 31q56 0 100 -27.5t69 -75t25 -109.5v-10q-1 -6 -7 -6h-370v-19q0 -63 24 -112.5t66 -77.5t95 -28q87 0 142 45q5 4 8 -1l5 -7q3 -5 -1 -9q-26 -29 -67 -45t-88 -16zM287 459q-76 0 -122.5 -43.5t-57.5 -123.5h338q-2 48 -23 86t-56 59.5t-79 21.5z" />
    <glyph glyph-name="Gcircumflex" unicode="&#x11c;" horiz-adv-x="824" 
d="M429 705q-91 0 -159 -41.5t-105 -117.5t-37 -179q0 -102 37.5 -178.5t105 -118.5t158.5 -42q58 0 115 11.5t102 30.5v199q0 14 -17 14l-143 12q-6 1 -6 7v9q0 6 6 6h285q6 0 6 -6v-9q0 -6 -6 -7l-74 -11q-13 -1 -13 -19v-155l4 -45q1 -10 -1 -13t-10 -7
q-59 -27 -123.5 -39t-123.5 -12q-101 0 -178 47t-120 131.5t-43 194.5t43.5 194t120.5 131t177 47q62 0 111.5 -11t82.5 -26l23 -5q8 -2 10.5 -5.5t3.5 -16.5l14 -156q1 -6 -5 -7l-11 -1q-6 -1 -7 5l-31 125q-3 13 -17 22q-35 21 -80.5 31.5t-94.5 10.5zM287 789q-5 3 -1 7
q32 29 62 60.5t64 69.5q4 5 10 5h12q6 0 10 -4q35 -39 66 -70t62 -60q4 -4 -1 -7q-6 -4 -10 -5q-4 -3 -10 1q-27 20 -59 44.5t-66 51.5q-32 -27 -62 -52t-57 -45q-6 -3 -11 -2z" />
    <glyph glyph-name="gcircumflex" unicode="&#x11d;" horiz-adv-x="545" 
d="M259 -227q-100 0 -154 35t-54 99q0 28 16 50t39.5 38t46.5 24q-49 19 -49 74q0 24 14.5 42t54.5 43q-43 20 -68 59t-25 91q0 75 50 119.5t134 44.5q27 0 63.5 -2.5t87.5 -5.5l81 22q6 2 10 -3q5 -8 10.5 -17t8.5 -20q1 -6 -5 -6h-139q33 -20 51 -54t18 -78
q0 -76 -51.5 -121.5t-138.5 -45.5q-37 0 -68 10q-27 -21 -39 -39t-12 -38q0 -54 92 -54h128q63 0 98 -28.5t35 -81.5q0 -74 -62 -115.5t-173 -41.5zM260 192q74 0 114.5 35.5t40.5 100.5q0 62 -42 97.5t-114 35.5q-65 0 -104.5 -36.5t-39.5 -96.5q0 -61 39.5 -98.5
t105.5 -37.5zM87 -90q0 -50 45 -77t127 -27q198 0 198 124q0 35 -26 56t-70 21h-128q-32 0 -56 5q-90 -38 -90 -102zM155 560q-5 3 -1 8q29 34 58 71t62 83q3 5 9 5h13q7 0 9 -5q34 -46 63 -83t60 -71q4 -4 -1 -7q-2 -1 -4.5 -2.5t-5.5 -3.5q-6 -2 -10 2q-27 24 -57 54
t-62 65q-30 -35 -59 -65t-56 -54q-4 -4 -10 -2q-2 1 -4 2.5t-4 2.5z" />
    <glyph glyph-name="Gbreve" unicode="&#x11e;" horiz-adv-x="824" 
d="M429 705q-91 0 -159 -41.5t-105 -117.5t-37 -179q0 -102 37.5 -178.5t105 -118.5t158.5 -42q58 0 115 11.5t102 30.5v199q0 14 -17 14l-143 12q-6 1 -6 7v9q0 6 6 6h285q6 0 6 -6v-9q0 -6 -6 -7l-74 -11q-13 -1 -13 -19v-155l4 -45q1 -10 -1 -13t-10 -7
q-59 -27 -123.5 -39t-123.5 -12q-101 0 -178 47t-120 131.5t-43 194.5t43.5 194t120.5 131t177 47q62 0 111.5 -11t82.5 -26l23 -5q8 -2 10.5 -5.5t3.5 -16.5l14 -156q1 -6 -5 -7l-11 -1q-6 -1 -7 5l-31 125q-3 13 -17 22q-35 21 -80.5 31.5t-94.5 10.5zM428 778
q-61 0 -92 31.5t-43 73.5q-2 6 4 8l10 4q6 2 8 -4q14 -31 40 -53.5t73 -22.5q48 0 74 22.5t40 53.5q2 6 8 4l10 -4q6 -2 4 -8q-12 -42 -43 -73.5t-93 -31.5z" />
    <glyph glyph-name="gbreve" unicode="&#x11f;" horiz-adv-x="545" 
d="M259 -227q-100 0 -154 35t-54 99q0 28 16 50t39.5 38t46.5 24q-49 19 -49 74q0 24 14.5 42t54.5 43q-43 20 -68 59t-25 91q0 75 50 119.5t134 44.5q27 0 63.5 -2.5t87.5 -5.5l81 22q6 2 10 -3q5 -8 10.5 -17t8.5 -20q1 -6 -5 -6h-139q33 -20 51 -54t18 -78
q0 -76 -51.5 -121.5t-138.5 -45.5q-37 0 -68 10q-27 -21 -39 -39t-12 -38q0 -54 92 -54h128q63 0 98 -28.5t35 -81.5q0 -74 -62 -115.5t-173 -41.5zM260 192q74 0 114.5 35.5t40.5 100.5q0 62 -42 97.5t-114 35.5q-65 0 -104.5 -36.5t-39.5 -96.5q0 -61 39.5 -98.5
t105.5 -37.5zM87 -90q0 -50 45 -77t127 -27q198 0 198 124q0 35 -26 56t-70 21h-128q-32 0 -56 5q-90 -38 -90 -102zM291 573q-61 0 -92 31.5t-43 73.5q-2 6 4 8l10 4q6 2 8 -4q14 -31 40 -53.5t73 -22.5q48 0 74 22.5t40 53.5q2 6 8 4l10 -4q6 -2 4 -8q-12 -42 -43 -73.5
t-93 -31.5z" />
    <glyph glyph-name="Gdotaccent" unicode="&#x120;" horiz-adv-x="824" 
d="M429 705q-91 0 -159 -41.5t-105 -117.5t-37 -179q0 -102 37.5 -178.5t105 -118.5t158.5 -42q58 0 115 11.5t102 30.5v199q0 14 -17 14l-143 12q-6 1 -6 7v9q0 6 6 6h285q6 0 6 -6v-9q0 -6 -6 -7l-74 -11q-13 -1 -13 -19v-155l4 -45q1 -10 -1 -13t-10 -7
q-59 -27 -123.5 -39t-123.5 -12q-101 0 -178 47t-120 131.5t-43 194.5t43.5 194t120.5 131t177 47q62 0 111.5 -11t82.5 -26l23 -5q8 -2 10.5 -5.5t3.5 -16.5l14 -156q1 -6 -5 -7l-11 -1q-6 -1 -7 5l-31 125q-3 13 -17 22q-35 21 -80.5 31.5t-94.5 10.5zM429 798
q-15 0 -24 9t-9 22q0 14 9 22.5t24 8.5q14 0 23 -8.5t9 -22.5q0 -13 -9 -22t-23 -9z" />
    <glyph glyph-name="gdotaccent" unicode="&#x121;" horiz-adv-x="545" 
d="M259 -227q-100 0 -154 35t-54 99q0 28 16 50t39.5 38t46.5 24q-49 19 -49 74q0 24 14.5 42t54.5 43q-43 20 -68 59t-25 91q0 75 50 119.5t134 44.5q27 0 63.5 -2.5t87.5 -5.5l81 22q6 2 10 -3q5 -8 10.5 -17t8.5 -20q1 -6 -5 -6h-139q33 -20 51 -54t18 -78
q0 -76 -51.5 -121.5t-138.5 -45.5q-37 0 -68 10q-27 -21 -39 -39t-12 -38q0 -54 92 -54h128q63 0 98 -28.5t35 -81.5q0 -74 -62 -115.5t-173 -41.5zM260 192q74 0 114.5 35.5t40.5 100.5q0 62 -42 97.5t-114 35.5q-65 0 -104.5 -36.5t-39.5 -96.5q0 -61 39.5 -98.5
t105.5 -37.5zM87 -90q0 -50 45 -77t127 -27q198 0 198 124q0 35 -26 56t-70 21h-128q-32 0 -56 5q-90 -38 -90 -102zM291 600q-15 0 -24 9t-9 22q0 14 9 23t24 9q14 0 23 -9t9 -23q0 -13 -9 -22t-23 -9z" />
    <glyph glyph-name="uni0122" unicode="&#x122;" horiz-adv-x="824" 
d="M429 705q-91 0 -159 -41.5t-105 -117.5t-37 -179q0 -102 37.5 -178.5t105 -118.5t158.5 -42q58 0 115 11.5t102 30.5v199q0 14 -17 14l-143 12q-6 1 -6 7v9q0 6 6 6h285q6 0 6 -6v-9q0 -6 -6 -7l-74 -11q-13 -1 -13 -19v-155l4 -45q1 -10 -1 -13t-10 -7
q-59 -27 -123.5 -39t-123.5 -12q-101 0 -178 47t-120 131.5t-43 194.5t43.5 194t120.5 131t177 47q62 0 111.5 -11t82.5 -26l23 -5q8 -2 10.5 -5.5t3.5 -16.5l14 -156q1 -6 -5 -7l-11 -1q-6 -1 -7 5l-31 125q-3 13 -17 22q-35 21 -80.5 31.5t-94.5 10.5zM386 -246
q-6 -2 -10 3l-1 1q-4 5 2 7q23 10 41 25.5t18 37.5q0 19 -13.5 33t-27.5 23q-5 4 -2 9q8 8 20.5 16t22.5 8q14 0 26 -19.5t12 -44.5q0 -29 -14 -49t-34 -32t-40 -18z" />
    <glyph glyph-name="uni0123" unicode="&#x123;" horiz-adv-x="545" 
d="M334 733q6 2 10 -3l1 -1q4 -5 -2 -7q-22 -10 -40.5 -25t-18.5 -38q0 -19 14 -33t27 -23q5 -4 2 -9q-7 -8 -20 -16t-23 -8q-13 0 -25.5 19.5t-12.5 44.5q0 29 14 49t34.5 32t39.5 18zM259 -227q-100 0 -154 35t-54 99q0 28 16 50t39.5 38t46.5 24q-49 19 -49 74
q0 24 14.5 42t54.5 43q-43 20 -68 59t-25 91q0 75 50 119.5t134 44.5q27 0 63.5 -2.5t87.5 -5.5l81 22q6 2 10 -3q5 -8 10.5 -17t8.5 -20q1 -6 -5 -6h-139q33 -20 51 -54t18 -78q0 -76 -51.5 -121.5t-138.5 -45.5q-37 0 -68 10q-27 -21 -39 -39t-12 -38q0 -54 92 -54h128
q63 0 98 -28.5t35 -81.5q0 -74 -62 -115.5t-173 -41.5zM260 192q74 0 114.5 35.5t40.5 100.5q0 62 -42 97.5t-114 35.5q-65 0 -104.5 -36.5t-39.5 -96.5q0 -61 39.5 -98.5t105.5 -37.5zM87 -90q0 -50 45 -77t127 -27q198 0 198 124q0 35 -26 56t-70 21h-128q-32 0 -56 5
q-90 -38 -90 -102z" />
    <glyph glyph-name="Hcircumflex" unicode="&#x124;" horiz-adv-x="871" 
d="M46 0q-6 0 -6 6v8q0 6 6 7l110 9q13 1 13 18v637q0 17 -13 18l-110 9q-6 1 -6 7v8q0 6 6 6h284q6 0 6 -6v-8q0 -6 -6 -7l-106 -9q-17 0 -17 -14v-295q228 -3 457 0v291q0 17 -13 18l-110 9q-6 1 -6 7v8q0 6 6 6h284q6 0 6 -6v-8q0 -6 -6 -7l-106 -9q-17 0 -17 -14v-645
q0 -14 17 -14l106 -9q6 -1 6 -7v-8q0 -6 -6 -6h-284q-6 0 -6 6v8q0 6 6 7l110 9q13 1 13 18v317q-228 -3 -457 0v-321q0 -14 17 -14l106 -9q6 -1 6 -7v-8q0 -6 -6 -6h-284zM294 789q-5 3 -1 7q32 29 62 60.5t64 69.5q4 5 10 5h12q6 0 10 -4q35 -39 66 -70t62 -60q4 -4 -1 -7
q-6 -4 -10 -5q-4 -3 -10 1q-27 20 -59 44.5t-66 51.5q-32 -27 -62 -52t-57 -45q-6 -3 -11 -2z" />
    <glyph glyph-name="hcircumflex" unicode="&#x125;" horiz-adv-x="647" 
d="M39 0q-6 0 -6 6v8q0 6 6 7l69 8q8 1 10.5 4.5t2.5 13.5v650l-89 7q-6 1 -6 7v7q0 6 6 7l105 15q13 2 16.5 -0.5t3.5 -10.5v-350q29 34 67 59t77.5 39.5t75.5 14.5q69 0 105.5 -39.5t36.5 -113.5v-296q0 -8 3.5 -10.5t13.5 -4.5l89 -7q6 -1 6 -7v-8q0 -6 -6 -6h-224
q-6 0 -6 6v8q0 6 6 7l69 8q8 1 10.5 4.5t2.5 13.5v292q0 120 -111 120q-110 0 -215 -109v-307q0 -8 3.5 -10.5t13.5 -4.5l89 -7q6 -1 6 -7v-8q0 -6 -6 -6h-224zM-3 789q-5 3 -1 7q32 29 62 60.5t64 69.5q4 5 10 5h12q6 0 10 -4q35 -39 66 -70t62 -60q4 -4 -1 -7
q-6 -4 -10 -5q-4 -3 -10 1q-27 20 -59 44.5t-66 51.5q-32 -27 -62 -52t-57 -45q-6 -3 -11 -2z" />
    <glyph glyph-name="Hbar" unicode="&#x126;" horiz-adv-x="871" 
d="M46 0q-6 0 -6 6v8q0 6 6 7l110 9q13 1 13 18v637q0 17 -13 18l-110 9q-6 1 -6 7v8q0 6 6 6h284q6 0 6 -6v-8q0 -6 -6 -7l-106 -9q-17 0 -17 -14v-295q228 -3 457 0v291q0 17 -13 18l-110 9q-6 1 -6 7v8q0 6 6 6h284q6 0 6 -6v-8q0 -6 -6 -7l-106 -9q-17 0 -17 -14v-645
q0 -14 17 -14l106 -9q6 -1 6 -7v-8q0 -6 -6 -6h-284q-6 0 -6 6v8q0 6 6 7l110 9q13 1 13 18v317q-228 -3 -457 0v-321q0 -14 17 -14l106 -9q6 -1 6 -7v-8q0 -6 -6 -6h-284zM66 528q-6 0 -5 6l3 17q1 6 7 6h694l41 2q6 0 6 -6v-9.5t-2 -9.5q-1 -6 -7 -6h-737z" />
    <glyph glyph-name="hbar" unicode="&#x127;" horiz-adv-x="647" 
d="M39 0q-6 0 -6 6v8q0 6 6 7l69 8q8 1 10.5 4.5t2.5 13.5v650l-89 7q-6 1 -6 7v7q0 6 6 7l105 15q13 2 16.5 -0.5t3.5 -10.5v-350q29 34 67 59t77.5 39.5t75.5 14.5q69 0 105.5 -39.5t36.5 -113.5v-296q0 -8 3.5 -10.5t13.5 -4.5l89 -7q6 -1 6 -7v-8q0 -6 -6 -6h-224
q-6 0 -6 6v8q0 6 6 7l69 8q8 1 10.5 4.5t2.5 13.5v292q0 120 -111 120q-110 0 -215 -109v-307q0 -8 3.5 -10.5t13.5 -4.5l89 -7q6 -1 6 -7v-8q0 -6 -6 -6h-224zM29 578q-6 0 -5 6l3 15q1 6 7 6h260l41 2q6 0 6 -6v-8t-1 -9q-1 -6 -7 -6h-304z" />
    <glyph glyph-name="Itilde" unicode="&#x128;" horiz-adv-x="376" 
d="M46 0q-6 0 -6 6v8q0 6 6 7l110 9q13 1 13 18v637q0 17 -13 18l-110 9q-6 1 -6 7v8q0 6 6 6h284q6 0 6 -6v-8q0 -6 -6 -7l-106 -9q-17 0 -17 -14v-645q0 -14 17 -14l106 -9q6 -1 6 -7v-8q0 -6 -6 -6h-284zM57 792q-5 4 -4 9q9 33 24 47.5t40 14.5q26 0 50 -11.5t47 -23.5
t45 -12q34 0 49 32q3 6 7 3l4 -1q5 -4 4 -9q-9 -32 -24 -46.5t-40 -14.5q-26 0 -50 12t-46.5 23.5t-45.5 11.5q-35 0 -49 -33q-3 -6 -7 -3z" />
    <glyph glyph-name="itilde" unicode="&#x129;" horiz-adv-x="313" 
d="M59 0q-6 0 -6 6v8q0 6 6 7l69 8q8 1 10.5 4.5t2.5 13.5v401l-89 7q-6 1 -6 7v7q0 6 6 7l105 15q13 2 16.5 -0.5t3.5 -10.5v-437q0 -8 3.5 -10.5t13.5 -4.5l89 -7q6 -1 6 -7v-8q0 -6 -6 -6h-224zM28 599q-5 4 -4 9q9 33 24 47.5t40 14.5q26 0 50 -11.5t47 -23.5t45 -12
q34 0 49 32q3 6 7 3l4 -1q5 -4 4 -9q-9 -32 -24 -46.5t-40 -14.5q-26 0 -50 12t-46.5 23.5t-45.5 11.5q-35 0 -49 -33q-3 -6 -7 -3z" />
    <glyph glyph-name="Imacron" unicode="&#x12a;" horiz-adv-x="376" 
d="M46 0q-6 0 -6 6v8q0 6 6 7l110 9q13 1 13 18v637q0 17 -13 18l-110 9q-6 1 -6 7v8q0 6 6 6h284q6 0 6 -6v-8q0 -6 -6 -7l-106 -9q-17 0 -17 -14v-645q0 -14 17 -14l106 -9q6 -1 6 -7v-8q0 -6 -6 -6h-284zM57 829q1 6 7 6h178l69 2q6 0 6 -6q0 -5 -0.5 -9.5t-1.5 -9.5
q-1 -6 -7 -6h-244q-6 0 -7 6q-2 8 0 17z" />
    <glyph glyph-name="imacron" unicode="&#x12b;" horiz-adv-x="313" 
d="M59 0q-6 0 -6 6v8q0 6 6 7l69 8q8 1 10.5 4.5t2.5 13.5v401l-89 7q-6 1 -6 7v7q0 6 6 7l105 15q13 2 16.5 -0.5t3.5 -10.5v-437q0 -8 3.5 -10.5t13.5 -4.5l89 -7q6 -1 6 -7v-8q0 -6 -6 -6h-224zM30 633q1 6 7 6h178l69 2q6 0 6 -6q0 -5 -0.5 -9.5t-1.5 -9.5q-1 -6 -7 -6
h-244q-6 0 -7 6q-2 8 0 17z" />
    <glyph glyph-name="Ibreve" unicode="&#x12c;" horiz-adv-x="376" 
d="M46 0q-6 0 -6 6v8q0 6 6 7l110 9q13 1 13 18v637q0 17 -13 18l-110 9q-6 1 -6 7v8q0 6 6 6h284q6 0 6 -6v-8q0 -6 -6 -7l-106 -9q-17 0 -17 -14v-645q0 -14 17 -14l106 -9q6 -1 6 -7v-8q0 -6 -6 -6h-284zM187 778q-61 0 -92 31.5t-43 73.5q-2 6 4 8l10 4q6 2 8 -4
q14 -31 40 -53.5t73 -22.5q48 0 74 22.5t40 53.5q2 6 8 4l10 -4q6 -2 4 -8q-12 -42 -43 -73.5t-93 -31.5z" />
    <glyph glyph-name="ibreve" unicode="&#x12d;" horiz-adv-x="313" 
d="M59 0q-6 0 -6 6v8q0 6 6 7l69 8q8 1 10.5 4.5t2.5 13.5v401l-89 7q-6 1 -6 7v7q0 6 6 7l105 15q13 2 16.5 -0.5t3.5 -10.5v-437q0 -8 3.5 -10.5t13.5 -4.5l89 -7q6 -1 6 -7v-8q0 -6 -6 -6h-224zM159 573q-61 0 -92 31.5t-43 73.5q-2 6 4 8l10 4q6 2 8 -4q14 -31 40 -53.5
t73 -22.5q48 0 74 22.5t40 53.5q2 6 8 4l10 -4q6 -2 4 -8q-12 -42 -43 -73.5t-93 -31.5z" />
    <glyph glyph-name="Iogonek" unicode="&#x12e;" horiz-adv-x="376" 
d="M46 0q-6 0 -6 6v8q0 6 6 7l110 9q13 1 13 18v637q0 17 -13 18l-110 9q-6 1 -6 7v8q0 6 6 6h284q6 0 6 -6v-8q0 -6 -6 -7l-106 -9q-17 0 -17 -14v-645q0 -14 17 -14l106 -9q6 -1 6 -7v-8q0 -6 -6 -6h-284zM159 -218q-34 0 -55 18.5t-21 49.5q0 34 24.5 73t78.5 91l14 -14
q-43 -49 -62 -83t-19 -62q0 -44 51 -44q14 0 25.5 2.5t25.5 7.5q6 2 8 -4l3 -8q3 -6 -3 -9q-31 -18 -70 -18z" />
    <glyph glyph-name="iogonek" unicode="&#x12f;" horiz-adv-x="313" 
d="M59 0q-6 0 -6 6v8q0 6 6 7l69 8q8 1 10.5 4.5t2.5 13.5v401l-89 7q-6 1 -6 7v7q0 6 6 7l105 15q13 2 16.5 -0.5t3.5 -10.5v-437q0 -8 3.5 -10.5t13.5 -4.5l89 -7q6 -1 6 -7v-8q0 -6 -6 -6h-224zM159 600q-15 0 -24 9t-9 22q0 14 9 23t24 9q14 0 23 -9t9 -23q0 -13 -9 -22
t-23 -9zM129 -218q-34 0 -55 18.5t-21 49.5q0 34 24.5 73t78.5 91l14 -14q-43 -49 -62 -83t-19 -62q0 -44 51 -44q14 0 25.5 2.5t25.5 7.5q6 2 8 -4l3 -8q3 -6 -3 -9q-31 -18 -70 -18z" />
    <glyph glyph-name="Idotaccent" unicode="&#x130;" horiz-adv-x="376" 
d="M46 0q-6 0 -6 6v8q0 6 6 7l110 9q13 1 13 18v637q0 17 -13 18l-110 9q-6 1 -6 7v8q0 6 6 6h284q6 0 6 -6v-8q0 -6 -6 -7l-106 -9q-17 0 -17 -14v-645q0 -14 17 -14l106 -9q6 -1 6 -7v-8q0 -6 -6 -6h-284zM188 798q-15 0 -24 9t-9 22q0 14 9 22.5t24 8.5q14 0 23 -8.5
t9 -22.5q0 -13 -9 -22t-23 -9z" />
    <glyph glyph-name="dotlessi" unicode="&#x131;" horiz-adv-x="313" 
d="M59 0q-6 0 -6 6v8q0 6 6 7l69 8q8 1 10.5 4.5t2.5 13.5v401l-89 7q-6 1 -6 7v7q0 6 6 7l105 15q13 2 16.5 -0.5t3.5 -10.5v-437q0 -8 3.5 -10.5t13.5 -4.5l89 -7q6 -1 6 -7v-8q0 -6 -6 -6h-224z" />
    <glyph glyph-name="Jcircumflex" unicode="&#x134;" horiz-adv-x="359" 
d="M17 -138q-2 5 2 8q60 35 93 69.5t46 82t13 119.5v551q-3 10 -12 11l-110 9q-6 1 -6 7v8q0 6 6 6h284q6 0 6 -6v-8q0 -6 -6 -7l-106 -9q-17 0 -17 -14v-548q0 -76 -15.5 -127.5t-54.5 -89t-108 -74.5q-5 -4 -8 2zM48 789q-5 3 -1 7q32 29 62 60.5t64 69.5q4 5 10 5h12
q6 0 10 -4q35 -39 66 -70t62 -60q4 -4 -1 -7q-6 -4 -10 -5q-4 -3 -10 1q-27 20 -59 44.5t-66 51.5q-32 -27 -62 -52t-57 -45q-6 -3 -11 -2z" />
    <glyph glyph-name="jcircumflex" unicode="&#x135;" horiz-adv-x="248" 
d="M-25 -171q-3 4 2 8q55 31 85 63t42 76t12 110v361l-89 7q-6 1 -6 7v7q0 6 6 7l105 15q13 2 16.5 -0.5t3.5 -10.5v-393q0 -70 -14.5 -117.5t-50.5 -82.5t-99 -69q-4 -3 -8 2zM-2 560q-5 3 -1 8q29 34 58 71t62 83q3 5 9 5h13q7 0 9 -5q34 -46 63 -83t60 -71q4 -4 -1 -7
q-2 -1 -4.5 -2.5t-5.5 -3.5q-6 -2 -10 2q-27 24 -57 54t-62 65q-30 -35 -59 -65t-56 -54q-4 -4 -10 -2q-2 1 -4 2.5t-4 2.5z" />
    <glyph glyph-name="uni0136" unicode="&#x136;" horiz-adv-x="759" 
d="M46 0q-6 0 -6 6v8q0 6 6 7l110 9q13 1 13 18v637q0 17 -13 18l-110 9q-6 1 -6 7v8q0 6 6 6h284q6 0 6 -6v-8q0 -6 -6 -7l-106 -9q-17 0 -17 -14v-309l309 295q17 16 12.5 22t-26.5 8l-76 6q-6 1 -6 7v9q0 6 6 6h273q6 0 6 -6v-9q0 -6 -6 -7l-98 -10q-13 -1 -25 -13
l-323 -306l360 -339q9 -9 26 -11l96 -11q6 -1 6 -7v-8q0 -6 -6 -6h-284q-6 0 -6 6v8q0 6 6 7l81 9q23 2 23 9.5t-16 22.5l-332 314v-332q0 -14 17 -14l106 -9q6 -1 6 -7v-8q0 -6 -6 -6h-284zM335 -246q-6 -2 -10 3l-1 1q-4 5 2 7q23 10 41 25.5t18 37.5q0 19 -13.5 33
t-27.5 23q-5 4 -2 9q8 8 20.5 16t22.5 8q14 0 26 -19.5t12 -44.5q0 -29 -14 -49t-34 -32t-40 -18z" />
    <glyph glyph-name="uni0137" unicode="&#x137;" horiz-adv-x="547" 
d="M39 0q-6 0 -6 6v8q0 6 6 7l69 8q8 1 10.5 4.5t2.5 13.5v650l-89 7q-6 1 -6 7v7q0 6 6 7l105 15q13 2 16.5 -0.5t3.5 -10.5v-467l187 171q17 15 12.5 21t-26.5 7l-37 4q-6 0 -6 6v9q0 6 6 6h206q6 0 6 -6v-9q0 -6 -6 -7l-74 -8q-7 -1 -13.5 -4t-12.5 -8l-165 -148
l219 -253q4 -5 11 -8t14 -5l55 -9q6 -1 6 -7v-8q0 -6 -6 -6h-86q-6 0 -10 5l-228 269l-52 -47v-184q0 -8 3.5 -10.5t13.5 -4.5l89 -7q6 -1 6 -7v-8q0 -6 -6 -6h-224zM230 -246q-6 -2 -10 3l-1 1q-4 5 2 7q23 10 41 25.5t18 37.5q0 19 -13.5 33t-27.5 23q-5 4 -2 9
q8 8 20.5 16t22.5 8q14 0 26 -19.5t12 -44.5q0 -29 -14 -49t-34 -32t-40 -18z" />
    <glyph glyph-name="kgreenlandic" unicode="&#x138;" horiz-adv-x="567" 
d="M59 0q-6 0 -6 6v8q0 6 6 7l69 8q8 1 10.5 4.5t2.5 13.5v401l-89 7q-6 1 -6 7v7q0 6 6 7l105 15q13 2 16.5 -0.5t3.5 -10.5v-218l187 171q17 15 12.5 21t-26.5 7l-37 4q-6 0 -6 6v9q0 6 6 6h206q6 0 6 -6v-9q0 -6 -6 -7l-74 -8q-7 -1 -13.5 -4t-12.5 -8l-165 -148
l219 -253q4 -5 11 -8t14 -5l55 -9q6 -1 6 -7v-8q0 -6 -6 -6h-86q-6 0 -10 5l-228 269l-52 -47v-184q0 -8 3.5 -10.5t13.5 -4.5l89 -7q6 -1 6 -7v-8q0 -6 -6 -6h-224z" />
    <glyph glyph-name="Lacute" unicode="&#x139;" horiz-adv-x="710" 
d="M46 0q-6 0 -6 6v8q0 6 6 7l110 9q13 1 13 18v637q0 17 -13 18l-110 9q-6 1 -6 7v8q0 6 6 6h284q6 0 6 -6v-8q0 -6 -6 -7l-106 -9q-17 0 -17 -14v-647q0 -13 17 -13h346q12 0 19 16l48 133q2 6 8 5l10 -2q6 -1 5 -7l-31 -167q-1 -7 -4.5 -9t-16.5 -1l-35 3h-527zM130 793
q-6 3 0 6q21 13 46.5 32.5t50.5 41t44 40.5q4 4 10 2q17 -4 27 -12q5 -6 4 -9.5t-11 -11.5q-34 -25 -77 -52t-77 -43q-4 -3 -10 0z" />
    <glyph glyph-name="lacute" unicode="&#x13a;" horiz-adv-x="278" 
d="M39 0q-6 0 -6 6v8q0 6 6 7l69 8q8 1 10.5 4.5t2.5 13.5v650l-89 7q-6 1 -6 7v7q0 6 6 7l105 15q13 2 16.5 -0.5t3.5 -10.5v-686q0 -8 3.5 -10.5t13.5 -4.5l89 -7q6 -1 6 -7v-8q0 -6 -6 -6h-224zM82 793q-6 3 0 6q21 13 46.5 32.5t50.5 41t44 40.5q4 4 10 2q17 -4 27 -12
q5 -6 4 -9.5t-11 -11.5q-34 -25 -77 -52t-77 -43q-4 -3 -10 0z" />
    <glyph glyph-name="uni013B" unicode="&#x13b;" horiz-adv-x="710" 
d="M46 0q-6 0 -6 6v8q0 6 6 7l110 9q13 1 13 18v637q0 17 -13 18l-110 9q-6 1 -6 7v8q0 6 6 6h284q6 0 6 -6v-8q0 -6 -6 -7l-106 -9q-17 0 -17 -14v-647q0 -13 17 -13h346q12 0 19 16l48 133q2 6 8 5l10 -2q6 -1 5 -7l-31 -167q-1 -7 -4.5 -9t-16.5 -1l-35 3h-527zM312 -246
q-6 -2 -10 3l-1 1q-4 5 2 7q23 10 41 25.5t18 37.5q0 19 -13.5 33t-27.5 23q-5 4 -2 9q8 8 20.5 16t22.5 8q14 0 26 -19.5t12 -44.5q0 -29 -14 -49t-34 -32t-40 -18z" />
    <glyph glyph-name="uni013C" unicode="&#x13c;" horiz-adv-x="278" 
d="M39 0q-6 0 -6 6v8q0 6 6 7l69 8q8 1 10.5 4.5t2.5 13.5v650l-89 7q-6 1 -6 7v7q0 6 6 7l105 15q13 2 16.5 -0.5t3.5 -10.5v-686q0 -8 3.5 -10.5t13.5 -4.5l89 -7q6 -1 6 -7v-8q0 -6 -6 -6h-224zM97 -246q-6 -2 -10 3l-1 1q-4 5 2 7q23 10 41 25.5t18 37.5q0 19 -13.5 33
t-27.5 23q-5 4 -2 9q8 8 20.5 16t22.5 8q14 0 26 -19.5t12 -44.5q0 -29 -14 -49t-34 -32t-40 -18z" />
    <glyph glyph-name="Lcaron" unicode="&#x13d;" horiz-adv-x="710" 
d="M46 0q-6 0 -6 6v8q0 6 6 7l110 9q13 1 13 18v637q0 17 -13 18l-110 9q-6 1 -6 7v8q0 6 6 6h284q6 0 6 -6v-8q0 -6 -6 -7l-106 -9q-17 0 -17 -14v-647q0 -13 17 -13h346q12 0 19 16l48 133q2 6 8 5l10 -2q6 -1 5 -7l-31 -167q-1 -7 -4.5 -9t-16.5 -1l-35 3h-527zM464 748
q1 -4 1 -8q1 -35 -7 -78t-31 -93q-3 -5 -8 -3l-8 2q-6 2 -4 8q17 53 18 95t1 79q6 3 12.5 5.5t13.5 2.5q4 0 7.5 -1.5t4.5 -8.5z" />
    <glyph glyph-name="lcaron" unicode="&#x13e;" horiz-adv-x="278" 
d="M39 0q-6 0 -6 6v8q0 6 6 7l69 8q8 1 10.5 4.5t2.5 13.5v650l-89 7q-6 1 -6 7v7q0 6 6 7l105 15q13 2 16.5 -0.5t3.5 -10.5v-686q0 -8 3.5 -10.5t13.5 -4.5l89 -7q6 -1 6 -7v-8q0 -6 -6 -6h-224zM271 758q1 -4 1 -8q1 -35 -7 -78t-31 -93q-3 -5 -8 -3l-8 2q-6 2 -4 8
q17 53 18 95t1 79q6 3 12.5 5.5t13.5 2.5q4 0 7.5 -1.5t4.5 -8.5z" />
    <glyph glyph-name="Ldot" unicode="&#x13f;" horiz-adv-x="710" 
d="M46 0q-6 0 -6 6v8q0 6 6 7l110 9q13 1 13 18v637q0 17 -13 18l-110 9q-6 1 -6 7v8q0 6 6 6h284q6 0 6 -6v-8q0 -6 -6 -7l-106 -9q-17 0 -17 -14v-647q0 -13 17 -13h346q12 0 19 16l48 133q2 6 8 5l10 -2q6 -1 5 -7l-31 -167q-1 -7 -4.5 -9t-16.5 -1l-35 3h-527zM536 356
q-19 0 -31 12t-12 30t12 30t31 12t31 -12t12 -30t-12 -30t-31 -12z" />
    <glyph glyph-name="ldot" unicode="&#x140;" horiz-adv-x="349" 
d="M39 0q-6 0 -6 6v8q0 6 6 7l69 8q8 1 10.5 4.5t2.5 13.5v650l-89 7q-6 1 -6 7v7q0 6 6 7l105 15q13 2 16.5 -0.5t3.5 -10.5v-686q0 -8 3.5 -10.5t13.5 -4.5l89 -7q6 -1 6 -7v-8q0 -6 -6 -6h-224zM315 236q-19 0 -31 12t-12 30t12 30t31 12t31 -12t12 -30t-12 -30t-31 -12z
" />
    <glyph glyph-name="Lslash" unicode="&#x141;" horiz-adv-x="710" 
d="M46 0q-6 0 -6 6v8q0 6 6 7l110 9q13 1 13 18v292l-123 -44q-6 -2 -6 4v18q0 6 6 8l123 44v315q0 17 -13 18l-110 9q-6 1 -6 7v8q0 6 6 6h284q6 0 6 -6v-8q0 -6 -6 -7l-106 -9q-17 0 -17 -14v-305l207 74l42 21q4 3 7 -3q2 -5 2.5 -11t0.5 -12q-1 -6 -7 -8l-252 -91v-312
q0 -13 17 -13h346q12 0 19 16l48 133q2 6 8 5l10 -2q6 -1 5 -7l-31 -167q-1 -7 -4.5 -9t-16.5 -1l-35 3h-527z" />
    <glyph glyph-name="lslash" unicode="&#x142;" horiz-adv-x="278" 
d="M39 0q-6 0 -6 6v8q0 6 6 7l69 8q8 1 10.5 4.5t2.5 13.5v319l-76 -44q-5 -2 -5 3v17q0 7 5 9l76 44v302l-89 7q-6 1 -6 7v7q0 6 6 7l105 15q13 2 16.5 -0.5t3.5 -10.5v-313l53 31l42 31q5 4 7 -2q3 -12 2 -23q-1 -7 -6 -9l-98 -57v-344q0 -8 3.5 -10.5t13.5 -4.5l89 -7
q6 -1 6 -7v-8q0 -6 -6 -6h-224z" />
    <glyph glyph-name="Nacute" unicode="&#x143;" horiz-adv-x="848" 
d="M733 702q-17 0 -17 -14v-684q0 -6 -6 -6h-6q-6 0 -10 5l-492 671v-626q0 -17 13 -18l110 -9q6 -1 6 -7v-8q0 -6 -6 -6h-279q-6 0 -6 6v8q0 6 6 7l106 9q17 0 17 14v644q0 14 -17 14l-106 9q-6 1 -6 7v9q0 6 6 6h149q6 0 10 -5l477 -651v607q0 17 -13 18l-110 9q-6 1 -6 7
v9q0 6 6 6h280q6 0 6 -6v-9q0 -6 -6 -7zM378 793q-6 3 0 6q21 13 46.5 32.5t50.5 41t44 40.5q4 4 10 2q17 -4 27 -12q5 -6 4 -9.5t-11 -11.5q-34 -25 -77 -52t-77 -43q-4 -3 -10 0z" />
    <glyph glyph-name="nacute" unicode="&#x144;" horiz-adv-x="669" 
d="M59 0q-6 0 -6 6v8q0 6 6 7l69 8q8 1 10.5 4.5t2.5 13.5v401l-89 7q-6 1 -6 7v7q0 6 6 7l104 15q13 2 16.5 -0.5t3.5 -10.5v-88l1 -14q44 50 105 82t117 32q69 0 105.5 -39.5t36.5 -113.5v-296q0 -8 3.5 -10.5t13.5 -4.5l89 -7q6 -1 6 -7v-8q0 -6 -6 -6h-224q-6 0 -6 6v8
q0 6 6 7l69 8q8 1 10.5 4.5t2.5 13.5v292q0 120 -111 120q-54 0 -109.5 -28.5t-107.5 -83.5v-304q0 -8 3.5 -10.5t13.5 -4.5l89 -7q6 -1 6 -7v-8q0 -6 -6 -6h-224zM314 553q-4 -4 -9 -1l-8 6q-5 3 -1 7q37 41 69.5 83t60.5 86q3 5 9 4t13 -4.5t13 -7.5t6 -8t-8 -14
q-33 -40 -69 -76.5t-76 -74.5z" />
    <glyph glyph-name="uni0145" unicode="&#x145;" horiz-adv-x="848" 
d="M733 702q-17 0 -17 -14v-684q0 -6 -6 -6h-6q-6 0 -10 5l-492 671v-626q0 -17 13 -18l110 -9q6 -1 6 -7v-8q0 -6 -6 -6h-279q-6 0 -6 6v8q0 6 6 7l106 9q17 0 17 14v644q0 14 -17 14l-106 9q-6 1 -6 7v9q0 6 6 6h149q6 0 10 -5l477 -651v607q0 17 -13 18l-110 9q-6 1 -6 7
v9q0 6 6 6h280q6 0 6 -6v-9q0 -6 -6 -7zM393 -246q-6 -2 -10 3l-1 1q-4 5 2 7q23 10 41 25.5t18 37.5q0 19 -13.5 33t-27.5 23q-5 4 -2 9q8 8 20.5 16t22.5 8q14 0 26 -19.5t12 -44.5q0 -29 -14 -49t-34 -32t-40 -18z" />
    <glyph glyph-name="uni0146" unicode="&#x146;" horiz-adv-x="669" 
d="M59 0q-6 0 -6 6v8q0 6 6 7l69 8q8 1 10.5 4.5t2.5 13.5v401l-89 7q-6 1 -6 7v7q0 6 6 7l104 15q13 2 16.5 -0.5t3.5 -10.5v-88l1 -14q44 50 105 82t117 32q69 0 105.5 -39.5t36.5 -113.5v-296q0 -8 3.5 -10.5t13.5 -4.5l89 -7q6 -1 6 -7v-8q0 -6 -6 -6h-224q-6 0 -6 6v8
q0 6 6 7l69 8q8 1 10.5 4.5t2.5 13.5v292q0 120 -111 120q-54 0 -109.5 -28.5t-107.5 -83.5v-304q0 -8 3.5 -10.5t13.5 -4.5l89 -7q6 -1 6 -7v-8q0 -6 -6 -6h-224zM303 -246q-6 -2 -10 3l-1 1q-4 5 2 7q23 10 41 25.5t18 37.5q0 19 -13.5 33t-27.5 23q-5 4 -2 9q8 8 20.5 16
t22.5 8q14 0 26 -19.5t12 -44.5q0 -29 -14 -49t-34 -32t-40 -18z" />
    <glyph glyph-name="Ncaron" unicode="&#x147;" horiz-adv-x="848" 
d="M578 924q5 -3 1 -7q-31 -29 -61 -60.5t-65 -69.5q-4 -5 -10 -5h-12q-6 0 -10 4q-35 39 -65.5 70.5t-62.5 59.5q-4 4 1 7q6 4 10 5q4 3 10 -1q27 -20 59 -44.5t66 -51.5q32 27 62 52t57 45q6 3 11 2zM733 702q-17 0 -17 -14v-684q0 -6 -6 -6h-6q-6 0 -10 5l-492 671v-626
q0 -17 13 -18l110 -9q6 -1 6 -7v-8q0 -6 -6 -6h-279q-6 0 -6 6v8q0 6 6 7l106 9q17 0 17 14v644q0 14 -17 14l-106 9q-6 1 -6 7v9q0 6 6 6h149q6 0 10 -5l477 -651v607q0 17 -13 18l-110 9q-6 1 -6 7v9q0 6 6 6h280q6 0 6 -6v-9q0 -6 -6 -7z" />
    <glyph glyph-name="ncaron" unicode="&#x148;" horiz-adv-x="669" 
d="M482 732q5 -3 1 -8q-29 -34 -58 -70.5t-62 -83.5q-2 -5 -9 -5h-13q-6 0 -9 5q-34 47 -63 83.5t-60 70.5q-4 4 1 7q2 2 4.5 3.5t5.5 2.5q6 2 10 -2q27 -24 57 -54t62 -65q30 35 59 65t56 54q4 4 10 2l4 -2t4 -3zM59 0q-6 0 -6 6v8q0 6 6 7l69 8q8 1 10.5 4.5t2.5 13.5v401
l-89 7q-6 1 -6 7v7q0 6 6 7l104 15q13 2 16.5 -0.5t3.5 -10.5v-88l1 -14q44 50 105 82t117 32q69 0 105.5 -39.5t36.5 -113.5v-296q0 -8 3.5 -10.5t13.5 -4.5l89 -7q6 -1 6 -7v-8q0 -6 -6 -6h-224q-6 0 -6 6v8q0 6 6 7l69 8q8 1 10.5 4.5t2.5 13.5v292q0 120 -111 120
q-54 0 -109.5 -28.5t-107.5 -83.5v-304q0 -8 3.5 -10.5t13.5 -4.5l89 -7q6 -1 6 -7v-8q0 -6 -6 -6h-224z" />
    <glyph glyph-name="Eng" unicode="&#x14a;" horiz-adv-x="848" 
d="M646 69l-444 605v-626q0 -17 13 -18l110 -9q6 -1 6 -7v-8q0 -6 -6 -6h-279q-6 0 -6 6v8q0 6 6 7l106 9q17 0 17 14v644q0 14 -17 14l-106 9q-6 1 -6 7v9q0 6 6 6h149q6 0 10 -5l477 -651v607q0 17 -13 18l-110 9q-6 1 -6 7v9q0 6 6 6h280q6 0 6 -6v-9q0 -6 -6 -7l-106 -9
q-17 0 -17 -14v-696q0 -105 -38.5 -154t-109.5 -49q-22 0 -35 6.5t-13 18.5q0 6 2 14q2 6 8 5q11 -2 23.5 -3.5t25.5 -1.5q50 0 76.5 35t26.5 108q0 27 -8 49.5t-28 48.5z" />
    <glyph glyph-name="eng" unicode="&#x14b;" horiz-adv-x="637" 
d="M59 0q-6 0 -6 6v8q0 6 6 7l69 8q8 1 10.5 4.5t2.5 13.5v401l-89 7q-6 1 -6 7v7q0 6 6 7l104 15q13 2 16.5 -0.5t3.5 -10.5v-88l1 -14q25 28 60.5 54t77 43t84.5 17q62 0 102 -35.5t40 -117.5v-347q0 -203 -150 -203q-48 0 -48 25q0 6 2 14q2 6 8 5q13 -2 24.5 -3.5
t24.5 -1.5q103 0 103 143v368q0 63 -29 91.5t-82 28.5q-58 0 -113.5 -30.5t-103.5 -81.5v-304q0 -8 3.5 -10.5t13.5 -4.5l89 -7q6 -1 6 -7v-8q0 -6 -6 -6h-224z" />
    <glyph glyph-name="Omacron" unicode="&#x14c;" horiz-adv-x="866" 
d="M430 -6q-101 0 -178 47t-120 131.5t-43 194.5t43.5 194t120.5 131t177 47q104 0 182 -46.5t121.5 -130.5t43.5 -195q0 -112 -43 -196t-121 -130.5t-183 -46.5zM429 28q94 0 163 42t107.5 118t38.5 179t-38.5 178.5t-107.5 117.5t-163 42q-91 0 -159 -42t-105 -117.5
t-37 -178.5t37.5 -179t105 -118t158.5 -42zM303 829q1 6 7 6h178l69 2q6 0 6 -6q0 -5 -0.5 -9.5t-1.5 -9.5q-1 -6 -7 -6h-244q-6 0 -7 6q-2 8 0 17z" />
    <glyph glyph-name="omacron" unicode="&#x14d;" horiz-adv-x="593" 
d="M296 -6q-106 0 -167.5 66.5t-61.5 182.5t61.5 182.5t167.5 66.5q107 0 168 -66.5t61 -182.5q0 -117 -61 -183t-168 -66zM296 27q91 0 141.5 57t50.5 159q0 101 -51 158.5t-141 57.5t-141 -57t-51 -159q0 -103 50.5 -159.5t141.5 -56.5zM167 633q1 6 7 6h178l69 2
q6 0 6 -6q0 -5 -0.5 -9.5t-1.5 -9.5q-1 -6 -7 -6h-244q-6 0 -7 6q-2 8 0 17z" />
    <glyph glyph-name="Obreve" unicode="&#x14e;" horiz-adv-x="866" 
d="M430 -6q-101 0 -178 47t-120 131.5t-43 194.5t43.5 194t120.5 131t177 47q104 0 182 -46.5t121.5 -130.5t43.5 -195q0 -112 -43 -196t-121 -130.5t-183 -46.5zM429 28q94 0 163 42t107.5 118t38.5 179t-38.5 178.5t-107.5 117.5t-163 42q-91 0 -159 -42t-105 -117.5
t-37 -178.5t37.5 -179t105 -118t158.5 -42zM433 778q-61 0 -92 31.5t-43 73.5q-2 6 4 8l10 4q6 2 8 -4q14 -31 40 -53.5t73 -22.5q48 0 74 22.5t40 53.5q2 6 8 4l10 -4q6 -2 4 -8q-12 -42 -43 -73.5t-93 -31.5z" />
    <glyph glyph-name="obreve" unicode="&#x14f;" horiz-adv-x="593" 
d="M296 -6q-106 0 -167.5 66.5t-61.5 182.5t61.5 182.5t167.5 66.5q107 0 168 -66.5t61 -182.5q0 -117 -61 -183t-168 -66zM296 27q91 0 141.5 57t50.5 159q0 101 -51 158.5t-141 57.5t-141 -57t-51 -159q0 -103 50.5 -159.5t141.5 -56.5zM296 573q-61 0 -92 31.5t-43 73.5
q-2 6 4 8l10 4q6 2 8 -4q14 -31 40 -53.5t73 -22.5q48 0 74 22.5t40 53.5q2 6 8 4l10 -4q6 -2 4 -8q-12 -42 -43 -73.5t-93 -31.5z" />
    <glyph glyph-name="Ohungarumlaut" unicode="&#x150;" horiz-adv-x="866" 
d="M430 -6q-101 0 -178 47t-120 131.5t-43 194.5t43.5 194t120.5 131t177 47q104 0 182 -46.5t121.5 -130.5t43.5 -195q0 -112 -43 -196t-121 -130.5t-183 -46.5zM429 28q94 0 163 42t107.5 118t38.5 179t-38.5 178.5t-107.5 117.5t-163 42q-91 0 -159 -42t-105 -117.5
t-37 -178.5t37.5 -179t105 -118t158.5 -42zM324 793q-6 3 0 6q21 13 46.5 32.5t50.5 41t44 40.5q4 4 10 2q17 -4 27 -12q5 -6 4 -9.5t-11 -11.5q-34 -25 -77 -52t-77 -43q-4 -3 -10 0zM481 793q-6 3 0 6q21 13 46.5 32.5t50.5 41t44 40.5q4 4 10 2q17 -4 27 -12q5 -6 4 -9.5
t-11 -11.5q-34 -25 -77 -52t-77 -43q-4 -3 -10 0z" />
    <glyph glyph-name="ohungarumlaut" unicode="&#x151;" horiz-adv-x="593" 
d="M296 -6q-106 0 -167.5 66.5t-61.5 182.5t61.5 182.5t167.5 66.5q107 0 168 -66.5t61 -182.5q0 -117 -61 -183t-168 -66zM296 27q91 0 141.5 57t50.5 159q0 101 -51 158.5t-141 57.5t-141 -57t-51 -159q0 -103 50.5 -159.5t141.5 -56.5zM371 553q-4 -4 -9 -1l-8 6
q-5 3 -1 7q37 41 69.5 83t60.5 86q3 5 9 4t13 -4.5t13 -7.5t6 -8t-8 -14q-33 -40 -69 -76.5t-76 -74.5zM214 553q-4 -4 -9 -1l-8 6q-5 3 -1 7q37 41 69.5 83t60.5 86q3 5 9 4t13 -4.5t13 -7.5t6 -8t-8 -14q-33 -40 -69 -76.5t-76 -74.5z" />
    <glyph glyph-name="OE" unicode="&#x152;" horiz-adv-x="1162" 
d="M466 -6q-75 0 -142.5 23.5t-120.5 70.5t-83.5 116.5t-30.5 162.5q0 92 30.5 161.5t83.5 116t120.5 70.5t142.5 24q24 0 42.5 -1.5t41.5 -3t60 -1.5h398l41 3q8 1 10 -2t3 -16l13 -152q0 -6 -6 -7l-11 -3q-6 -1 -7 5l-31 130q-3 13 -20 13h-379v-310h305q13 0 16 17l16 73
q1 6 7 6h7q6 0 6 -6v-224q0 -6 -6 -6h-7q-6 0 -7 6l-16 92q-1 13 -19 13h-302v-323q0 -13 17 -13h367q12 0 19 16l47 133q2 6 8 5l11 -2q6 -1 5 -7l-32 -167q-1 -7 -4.5 -9t-16.5 -1l-34 3h-398q-35 0 -58.5 -1.5t-42.5 -3t-43 -1.5zM465 28q10 0 29.5 0.5t40 2t34.5 4
t14 5.5v653q0 3 -14.5 5.5t-35 4t-40 2t-28.5 0.5q-92 0 -168.5 -37.5t-122.5 -112.5t-46 -188q0 -112 46 -187.5t122.5 -113.5t168.5 -38z" />
    <glyph glyph-name="oe" unicode="&#x153;" horiz-adv-x="957" 
d="M296 -6q-106 0 -167.5 66.5t-61.5 182.5t61.5 182.5t167.5 66.5q82 0 136.5 -40.5t75.5 -114.5q22 75 76 115t125 40q55 0 99 -27.5t69.5 -75t25.5 -109.5v-10q-1 -6 -7 -6h-370v-19q0 -60 23 -109.5t65 -79t97 -29.5q43 0 77 10.5t65 34.5q5 4 8 -1l5 -7q3 -5 -1 -9
q-29 -30 -69 -45.5t-86 -15.5q-75 0 -128 41.5t-74 113.5q-21 -73 -76 -114t-136 -41zM296 27q92 0 142.5 57t50.5 158q0 102 -51 159.5t-142 57.5t-141.5 -56.5t-50.5 -159.5q0 -102 50.5 -159t141.5 -57zM709 459q-74 0 -121.5 -42.5t-58.5 -124.5h338q-2 48 -23 86
t-56 59.5t-79 21.5z" />
    <glyph glyph-name="Racute" unicode="&#x154;" horiz-adv-x="718" 
d="M46 0q-6 0 -6 6v8q0 6 6 7l110 9q13 1 13 18v637q0 17 -13 18l-110 9q-6 1 -6 7v8q0 6 6 6h338q113 0 178.5 -52.5t65.5 -144.5q0 -91 -64.5 -144t-172.5 -53q31 -17 62 -59l166 -230q8 -11 25 -14l78 -15q6 -1 6 -7v-8q0 -6 -6 -6h-104q-7 0 -11 2.5t-12 12.5l-172 243
q-27 38 -45.5 55t-35.5 21.5t-40 4.5h-95v-295q0 -14 17 -14l106 -9q6 -1 6 -7v-8q0 -6 -6 -6h-284zM384 704h-177v-336h177q93 0 149 46t56 122t-56.5 122t-148.5 46zM288 793q-6 3 0 6q21 13 46.5 32.5t50.5 41t44 40.5q4 4 10 2q17 -4 27 -12q5 -6 4 -9.5t-11 -11.5
q-34 -25 -77 -52t-77 -43q-4 -3 -10 0z" />
    <glyph glyph-name="racute" unicode="&#x155;" horiz-adv-x="418" 
d="M59 0q-6 0 -6 6v8q0 6 6 7l69 8q8 1 10.5 4.5t2.5 13.5v401l-89 7q-6 1 -6 7v7q0 6 6 7l104 15q13 2 16.5 -0.5t3.5 -10.5v-88l1 -16q17 25 48 52t67.5 45.5t71.5 18.5q25 0 25 -9v-28q0 -6 -6 -6h-58q-15 0 -29 -6q-28 -12 -59.5 -37t-59.5 -62v-301q0 -8 3.5 -10.5
t13.5 -4.5l89 -7q6 -1 6 -7v-8q0 -6 -6 -6h-224zM191 553q-4 -4 -9 -1l-8 6q-5 3 -1 7q37 41 69.5 83t60.5 86q3 5 9 4t13 -4.5t13 -7.5t6 -8t-8 -14q-33 -40 -69 -76.5t-76 -74.5z" />
    <glyph glyph-name="uni0156" unicode="&#x156;" horiz-adv-x="718" 
d="M46 0q-6 0 -6 6v8q0 6 6 7l110 9q13 1 13 18v637q0 17 -13 18l-110 9q-6 1 -6 7v8q0 6 6 6h338q113 0 178.5 -52.5t65.5 -144.5q0 -91 -64.5 -144t-172.5 -53q31 -17 62 -59l166 -230q8 -11 25 -14l78 -15q6 -1 6 -7v-8q0 -6 -6 -6h-104q-7 0 -11 2.5t-12 12.5l-172 243
q-27 38 -45.5 55t-35.5 21.5t-40 4.5h-95v-295q0 -14 17 -14l106 -9q6 -1 6 -7v-8q0 -6 -6 -6h-284zM384 704h-177v-336h177q93 0 149 46t56 122t-56.5 122t-148.5 46zM362 -246q-6 -2 -10 3l-1 1q-4 5 2 7q23 10 41 25.5t18 37.5q0 19 -13.5 33t-27.5 23q-5 4 -2 9
q8 8 20.5 16t22.5 8q14 0 26 -19.5t12 -44.5q0 -29 -14 -49t-34 -32t-40 -18z" />
    <glyph glyph-name="uni0157" unicode="&#x157;" horiz-adv-x="418" 
d="M59 0q-6 0 -6 6v8q0 6 6 7l69 8q8 1 10.5 4.5t2.5 13.5v401l-89 7q-6 1 -6 7v7q0 6 6 7l104 15q13 2 16.5 -0.5t3.5 -10.5v-88l1 -16q17 25 48 52t67.5 45.5t71.5 18.5q25 0 25 -9v-28q0 -6 -6 -6h-58q-15 0 -29 -6q-28 -12 -59.5 -37t-59.5 -62v-301q0 -8 3.5 -10.5
t13.5 -4.5l89 -7q6 -1 6 -7v-8q0 -6 -6 -6h-224zM143 -246q-6 -2 -10 3l-1 1q-4 5 2 7q23 10 41 25.5t18 37.5q0 19 -13.5 33t-27.5 23q-5 4 -2 9q8 8 20.5 16t22.5 8q14 0 26 -19.5t12 -44.5q0 -29 -14 -49t-34 -32t-40 -18z" />
    <glyph glyph-name="Rcaron" unicode="&#x158;" horiz-adv-x="718" 
d="M488 924q5 -3 1 -7q-31 -29 -61 -60.5t-65 -69.5q-4 -5 -10 -5h-12q-6 0 -10 4q-35 39 -65.5 70.5t-62.5 59.5q-4 4 1 7q6 4 10 5q4 3 10 -1q27 -20 59 -44.5t66 -51.5q32 27 62 52t57 45q6 3 11 2zM46 0q-6 0 -6 6v8q0 6 6 7l110 9q13 1 13 18v637q0 17 -13 18l-110 9
q-6 1 -6 7v8q0 6 6 6h338q113 0 178.5 -52.5t65.5 -144.5q0 -91 -64.5 -144t-172.5 -53q31 -17 62 -59l166 -230q8 -11 25 -14l78 -15q6 -1 6 -7v-8q0 -6 -6 -6h-104q-7 0 -11 2.5t-12 12.5l-172 243q-27 38 -45.5 55t-35.5 21.5t-40 4.5h-95v-295q0 -14 17 -14l106 -9
q6 -1 6 -7v-8q0 -6 -6 -6h-284zM384 704h-177v-336h177q93 0 149 46t56 122t-56.5 122t-148.5 46z" />
    <glyph glyph-name="rcaron" unicode="&#x159;" horiz-adv-x="418" 
d="M359 732q5 -3 1 -8q-29 -34 -58 -70.5t-62 -83.5q-2 -5 -9 -5h-13q-6 0 -9 5q-34 47 -63 83.5t-60 70.5q-4 4 1 7q2 2 4.5 3.5t5.5 2.5q6 2 10 -2q27 -24 57 -54t62 -65q30 35 59 65t56 54q4 4 10 2l4 -2t4 -3zM59 0q-6 0 -6 6v8q0 6 6 7l69 8q8 1 10.5 4.5t2.5 13.5v401
l-89 7q-6 1 -6 7v7q0 6 6 7l104 15q13 2 16.5 -0.5t3.5 -10.5v-88l1 -16q17 25 48 52t67.5 45.5t71.5 18.5q25 0 25 -9v-28q0 -6 -6 -6h-58q-15 0 -29 -6q-28 -12 -59.5 -37t-59.5 -62v-301q0 -8 3.5 -10.5t13.5 -4.5l89 -7q6 -1 6 -7v-8q0 -6 -6 -6h-224z" />
    <glyph glyph-name="Sacute" unicode="&#x15a;" horiz-adv-x="654" 
d="M334 395q90 -24 141.5 -51t73 -64.5t21.5 -93.5q0 -91 -66 -141.5t-184 -50.5q-42 0 -84.5 8t-78.5 21.5t-58 27.5q-5 2 -6 9l-10 128q-1 6 5 6l13 1q6 0 7 -6l15 -64q7 -32 29 -51t51.5 -29t60.5 -13.5t56 -3.5q101 0 156 41t55 117q0 48 -17.5 78.5t-62.5 52.5t-128 44
q-84 23 -133 49t-70 61t-21 84q0 88 65.5 136t183.5 48q45 0 83 -10t65.5 -24t40.5 -26q4 -4 5 -10l10 -126q1 -6 -5 -6l-16 -1q-6 0 -7 6l-20 85q-7 32 -35 48.5t-61.5 23t-59.5 6.5q-210 0 -210 -150q0 -40 18.5 -68.5t61.5 -50t116 -41.5zM270 793q-6 3 0 6
q21 13 46.5 32.5t50.5 41t44 40.5q4 4 10 2q17 -4 27 -12q5 -6 4 -9.5t-11 -11.5q-34 -25 -77 -52t-77 -43q-4 -3 -10 0z" />
    <glyph glyph-name="sacute" unicode="&#x15b;" horiz-adv-x="510" 
d="M276 265q64 -21 99 -40t49.5 -41t14.5 -54q0 -65 -50 -100.5t-142 -35.5q-50 0 -91.5 10.5t-60.5 22.5q-5 4 -6 10l-10 106q-1 6 5 7l12 2q6 1 7 -5l15 -58q9 -37 39.5 -51.5t91.5 -14.5q74 0 112.5 27t38.5 77q0 35 -30 58t-110 49q-62 20 -97.5 38t-50 40.5t-14.5 53.5
q0 57 49 91.5t131 34.5q41 0 79 -9t51 -16q5 -2 5 -9l9 -110q0 -6 -6 -6l-15 -2q-6 0 -7 6l-8 54q-7 41 -39.5 52t-70.5 11q-64 0 -102 -25t-38 -68q0 -23 12.5 -40t43 -32t84.5 -33zM223 553q-4 -4 -9 -1l-8 6q-5 3 -1 7q37 41 69.5 83t60.5 86q3 5 9 4t13 -4.5t13 -7.5
t6 -8t-8 -14q-33 -40 -69 -76.5t-76 -74.5z" />
    <glyph glyph-name="Scircumflex" unicode="&#x15c;" horiz-adv-x="654" 
d="M334 395q90 -24 141.5 -51t73 -64.5t21.5 -93.5q0 -91 -66 -141.5t-184 -50.5q-42 0 -84.5 8t-78.5 21.5t-58 27.5q-5 2 -6 9l-10 128q-1 6 5 6l13 1q6 0 7 -6l15 -64q7 -32 29 -51t51.5 -29t60.5 -13.5t56 -3.5q101 0 156 41t55 117q0 48 -17.5 78.5t-62.5 52.5t-128 44
q-84 23 -133 49t-70 61t-21 84q0 88 65.5 136t183.5 48q45 0 83 -10t65.5 -24t40.5 -26q4 -4 5 -10l10 -126q1 -6 -5 -6l-16 -1q-6 0 -7 6l-20 85q-7 32 -35 48.5t-61.5 23t-59.5 6.5q-210 0 -210 -150q0 -40 18.5 -68.5t61.5 -50t116 -41.5zM186 789q-5 3 -1 7
q32 29 62 60.5t64 69.5q4 5 10 5h12q6 0 10 -4q35 -39 66 -70t62 -60q4 -4 -1 -7q-6 -4 -10 -5q-4 -3 -10 1q-27 20 -59 44.5t-66 51.5q-32 -27 -62 -52t-57 -45q-6 -3 -11 -2z" />
    <glyph glyph-name="scircumflex" unicode="&#x15d;" horiz-adv-x="510" 
d="M276 265q64 -21 99 -40t49.5 -41t14.5 -54q0 -65 -50 -100.5t-142 -35.5q-50 0 -91.5 10.5t-60.5 22.5q-5 4 -6 10l-10 106q-1 6 5 7l12 2q6 1 7 -5l15 -58q9 -37 39.5 -51.5t91.5 -14.5q74 0 112.5 27t38.5 77q0 35 -30 58t-110 49q-62 20 -97.5 38t-50 40.5t-14.5 53.5
q0 57 49 91.5t131 34.5q41 0 79 -9t51 -16q5 -2 5 -9l9 -110q0 -6 -6 -6l-15 -2q-6 0 -7 6l-8 54q-7 41 -39.5 52t-70.5 11q-64 0 -102 -25t-38 -68q0 -23 12.5 -40t43 -32t84.5 -33zM119 560q-5 3 -1 8q29 34 58 71t62 83q3 5 9 5h13q7 0 9 -5q34 -46 63 -83t60 -71
q4 -4 -1 -7q-2 -1 -4.5 -2.5t-5.5 -3.5q-6 -2 -10 2q-27 24 -57 54t-62 65q-30 -35 -59 -65t-56 -54q-4 -4 -10 -2q-2 1 -4 2.5t-4 2.5z" />
    <glyph glyph-name="Scedilla" unicode="&#x15e;" horiz-adv-x="654" 
d="M334 395q90 -24 141.5 -51t73 -64.5t21.5 -93.5q0 -91 -66 -141.5t-184 -50.5q-42 0 -84.5 8t-78.5 21.5t-58 27.5q-5 2 -6 9l-10 128q-1 6 5 6l13 1q6 0 7 -6l15 -64q7 -32 29 -51t51.5 -29t60.5 -13.5t56 -3.5q101 0 156 41t55 117q0 48 -17.5 78.5t-62.5 52.5t-128 44
q-84 23 -133 49t-70 61t-21 84q0 88 65.5 136t183.5 48q45 0 83 -10t65.5 -24t40.5 -26q4 -4 5 -10l10 -126q1 -6 -5 -6l-16 -1q-6 0 -7 6l-20 85q-7 32 -35 48.5t-61.5 23t-59.5 6.5q-210 0 -210 -150q0 -40 18.5 -68.5t61.5 -50t116 -41.5zM327 -208q-29 0 -56.5 10
t-45 25.5t-17.5 31.5q0 15 15 15q12 0 20 -8.5t17.5 -19t25.5 -19t43 -8.5q26 0 40.5 11.5t14.5 32.5q0 50 -92 68q-7 1 -3 6l39 79h31l-33 -66q45 -8 71 -31t26 -54q0 -34 -26 -53.5t-70 -19.5z" />
    <glyph glyph-name="scedilla" unicode="&#x15f;" horiz-adv-x="510" 
d="M276 265q64 -21 99 -40t49.5 -41t14.5 -54q0 -65 -50 -100.5t-142 -35.5q-50 0 -91.5 10.5t-60.5 22.5q-5 4 -6 10l-10 106q-1 6 5 7l12 2q6 1 7 -5l15 -58q9 -37 39.5 -51.5t91.5 -14.5q74 0 112.5 27t38.5 77q0 35 -30 58t-110 49q-62 20 -97.5 38t-50 40.5t-14.5 53.5
q0 57 49 91.5t131 34.5q41 0 79 -9t51 -16q5 -2 5 -9l9 -110q0 -6 -6 -6l-15 -2q-6 0 -7 6l-8 54q-7 41 -39.5 52t-70.5 11q-64 0 -102 -25t-38 -68q0 -23 12.5 -40t43 -32t84.5 -33zM254 -208q-29 0 -56.5 10t-45 25.5t-17.5 31.5q0 15 15 15q12 0 20 -8.5t17.5 -19
t25.5 -19t43 -8.5q26 0 40.5 11.5t14.5 32.5q0 50 -92 68q-7 1 -3 6l39 79h31l-33 -66q45 -8 71 -31t26 -54q0 -34 -26 -53.5t-70 -19.5z" />
    <glyph glyph-name="Scaron" unicode="&#x160;" horiz-adv-x="654" 
d="M470 924q5 -3 1 -7q-31 -29 -61 -60.5t-65 -69.5q-4 -5 -10 -5h-12q-6 0 -10 4q-35 39 -65.5 70.5t-62.5 59.5q-4 4 1 7q6 4 10 5q4 3 10 -1q27 -20 59 -44.5t66 -51.5q32 27 62 52t57 45q6 3 11 2zM334 395q90 -24 141.5 -51t73 -64.5t21.5 -93.5q0 -91 -66 -141.5
t-184 -50.5q-42 0 -84.5 8t-78.5 21.5t-58 27.5q-5 2 -6 9l-10 128q-1 6 5 6l13 1q6 0 7 -6l15 -64q7 -32 29 -51t51.5 -29t60.5 -13.5t56 -3.5q101 0 156 41t55 117q0 48 -17.5 78.5t-62.5 52.5t-128 44q-84 23 -133 49t-70 61t-21 84q0 88 65.5 136t183.5 48q45 0 83 -10
t65.5 -24t40.5 -26q4 -4 5 -10l10 -126q1 -6 -5 -6l-16 -1q-6 0 -7 6l-20 85q-7 32 -35 48.5t-61.5 23t-59.5 6.5q-210 0 -210 -150q0 -40 18.5 -68.5t61.5 -50t116 -41.5z" />
    <glyph glyph-name="scaron" unicode="&#x161;" horiz-adv-x="510" 
d="M391 732q5 -3 1 -8q-29 -34 -58 -70.5t-62 -83.5q-2 -5 -9 -5h-13q-6 0 -9 5q-34 47 -63 83.5t-60 70.5q-4 4 1 7q2 2 4.5 3.5t5.5 2.5q6 2 10 -2q27 -24 57 -54t62 -65q30 35 59 65t56 54q4 4 10 2l4 -2t4 -3zM276 265q64 -21 99 -40t49.5 -41t14.5 -54
q0 -65 -50 -100.5t-142 -35.5q-50 0 -91.5 10.5t-60.5 22.5q-5 4 -6 10l-10 106q-1 6 5 7l12 2q6 1 7 -5l15 -58q9 -37 39.5 -51.5t91.5 -14.5q74 0 112.5 27t38.5 77q0 35 -30 58t-110 49q-62 20 -97.5 38t-50 40.5t-14.5 53.5q0 57 49 91.5t131 34.5q41 0 79 -9t51 -16
q5 -2 5 -9l9 -110q0 -6 -6 -6l-15 -2q-6 0 -7 6l-8 54q-7 41 -39.5 52t-70.5 11q-64 0 -102 -25t-38 -68q0 -23 12.5 -40t43 -32t84.5 -33z" />
    <glyph glyph-name="uni0162" unicode="&#x162;" horiz-adv-x="639" 
d="M178 0q-6 0 -6 6v8q0 6 6 7l110 9q13 1 13 18v656h-221q-13 0 -16 -17l-30 -145q-1 -6 -7 -5l-11 2q-6 1 -6 7l12 182q1 8 4 10t16 1l32 -3q52 -2 110 -2.5t136 -0.5q52 0 90 0.5t74 1t81 1.5l39 3q8 1 10 -2t3 -16l12 -175q0 -6 -6 -7l-11 -2q-6 -1 -7 5l-29 149
q-3 13 -20 13h-217v-660q0 -14 17 -14l106 -9q6 -1 6 -7v-8q0 -6 -6 -6h-284zM277 -246q-6 -2 -10 3l-1 1q-4 5 2 7q23 10 41 25.5t18 37.5q0 19 -13.5 33t-27.5 23q-5 4 -2 9q8 8 20.5 16t22.5 8q14 0 26 -19.5t12 -44.5q0 -29 -14 -49t-34 -32t-40 -18z" />
    <glyph glyph-name="uni0163" unicode="&#x163;" horiz-adv-x="377" 
d="M234 -6q-123 0 -123 130v331h-75q-6 0 -5 6l3 10q1 6 7 7l70 8v92q0 6 6 8q11 3 24 3q6 0 6 -6v-97h154l41 2q6 0 6 -6v-10.5t-1 -10.5q-1 -6 -7 -6h-193v-331q0 -51 24.5 -75t77.5 -24q40 0 79 13q6 2 7 -4l1 -11q1 -5 -4 -9q-21 -9 -46.5 -14.5t-51.5 -5.5zM181 -246
q-6 -2 -10 3l-1 1q-4 5 2 7q23 10 41 25.5t18 37.5q0 19 -13.5 33t-27.5 23q-5 4 -2 9q8 8 20.5 16t22.5 8q14 0 26 -19.5t12 -44.5q0 -29 -14 -49t-34 -32t-40 -18z" />
    <glyph glyph-name="Tcaron" unicode="&#x164;" horiz-adv-x="639" 
d="M462 924q5 -3 1 -7q-31 -29 -61 -60.5t-65 -69.5q-4 -5 -10 -5h-12q-6 0 -10 4q-35 39 -65.5 70.5t-62.5 59.5q-4 4 1 7q6 4 10 5q4 3 10 -1q27 -20 59 -44.5t66 -51.5q32 27 62 52t57 45q6 3 11 2zM178 0q-6 0 -6 6v8q0 6 6 7l110 9q13 1 13 18v656h-221q-13 0 -16 -17
l-30 -145q-1 -6 -7 -5l-11 2q-6 1 -6 7l12 182q1 8 4 10t16 1l32 -3q52 -2 110 -2.5t136 -0.5q52 0 90 0.5t74 1t81 1.5l39 3q8 1 10 -2t3 -16l12 -175q0 -6 -6 -7l-11 -2q-6 -1 -7 5l-29 149q-3 13 -20 13h-217v-660q0 -14 17 -14l106 -9q6 -1 6 -7v-8q0 -6 -6 -6h-284z
" />
    <glyph glyph-name="tcaron" unicode="&#x165;" horiz-adv-x="377" 
d="M234 -6q-123 0 -123 130v331h-75q-6 0 -5 6l3 10q1 6 7 7l70 8v92q0 6 6 8q11 3 24 3q6 0 6 -6v-97h154l41 2q6 0 6 -6v-10.5t-1 -10.5q-1 -6 -7 -6h-193v-331q0 -51 24.5 -75t77.5 -24q40 0 79 13q6 2 7 -4l1 -11q1 -5 -4 -9q-21 -9 -46.5 -14.5t-51.5 -5.5zM298 758
q1 -4 1 -8q1 -35 -7 -78t-31 -93q-3 -5 -8 -3l-8 2q-6 2 -4 8q17 53 18 95t1 79q6 3 12.5 5.5t13.5 2.5q4 0 7.5 -1.5t4.5 -8.5z" />
    <glyph glyph-name="Tbar" unicode="&#x166;" horiz-adv-x="639" 
d="M178 0q-6 0 -6 6v8q0 6 6 7l110 9q13 1 13 18v656h-221q-13 0 -16 -17l-30 -145q-1 -6 -7 -5l-11 2q-6 1 -6 7l12 182q1 8 4 10t16 1l32 -3q52 -2 110 -2.5t136 -0.5q52 0 90 0.5t74 1t81 1.5l39 3q8 1 10 -2t3 -16l12 -175q0 -6 -6 -7l-11 -2q-6 -1 -7 5l-29 149
q-3 13 -20 13h-217v-660q0 -14 17 -14l106 -9q6 -1 6 -7v-8q0 -6 -6 -6h-284zM142 352q-6 0 -5 6l3 15q1 6 7 6h322l41 2q6 0 6 -6v-8t-1 -9q-1 -6 -7 -6h-366z" />
    <glyph glyph-name="tbar" unicode="&#x167;" horiz-adv-x="377" 
d="M234 -6q-123 0 -123 130v331h-75q-6 0 -5 6l3 10q1 6 7 7l70 8v92q0 6 6 8q11 3 24 3q6 0 6 -6v-97h154l41 2q6 0 6 -6v-10.5t-1 -10.5q-1 -6 -7 -6h-193v-331q0 -51 24.5 -75t77.5 -24q40 0 79 13q6 2 7 -4l1 -11q1 -5 -4 -9q-21 -9 -46.5 -14.5t-51.5 -5.5zM35 253
q-6 0 -5 6l3 15q1 6 7 6h260l41 2q6 0 6 -6v-8t-1 -9q-1 -6 -7 -6h-304z" />
    <glyph glyph-name="Utilde" unicode="&#x168;" horiz-adv-x="869" 
d="M25 727q0 6 6 6h284q6 0 6 -6v-8q0 -6 -6 -7l-106 -9q-17 0 -17 -14v-453q0 -96 65 -152t177 -56q113 0 179 61.5t66 167.5v428q0 17 -13 18l-109 9q-6 1 -6 7v8q0 6 6 6h279q6 0 6 -6v-8q0 -6 -6 -7l-104 -9q-17 0 -17 -14v-430q0 -124 -74.5 -194.5t-206.5 -70.5
q-130 0 -205 65.5t-75 179.5v446q0 17 -13 18l-110 9q-6 1 -6 7v8zM306 792q-5 4 -4 9q9 33 24 47.5t40 14.5q26 0 50 -11.5t47 -23.5t45 -12q34 0 49 32q3 6 7 3l4 -1q5 -4 4 -9q-9 -32 -24 -46.5t-40 -14.5q-26 0 -50 12t-46.5 23.5t-45.5 11.5q-35 0 -49 -33q-3 -6 -7 -3
z" />
    <glyph glyph-name="utilde" unicode="&#x169;" horiz-adv-x="652" 
d="M266 -6q-141 0 -141 153v301l-89 7q-6 1 -6 7v7q0 6 6 7l105 15q13 2 16.5 -0.5t3.5 -10.5v-333q0 -119 106 -119q115 0 217 106v314l-89 7q-6 1 -6 7v7q0 6 6 7l105 15q13 2 16.5 -0.5t3.5 -10.5v-443l90 -12q6 -1 6 -7v-7q0 -6 -6 -7l-117 -10q-9 0 -9 11v96
q-43 -48 -101 -77.5t-117 -29.5zM192 599q-5 4 -4 9q9 33 24 47.5t40 14.5q26 0 50 -11.5t47 -23.5t45 -12q34 0 49 32q3 6 7 3l4 -1q5 -4 4 -9q-9 -32 -24 -46.5t-40 -14.5q-26 0 -50 12t-46.5 23.5t-45.5 11.5q-35 0 -49 -33q-3 -6 -7 -3z" />
    <glyph glyph-name="Umacron" unicode="&#x16a;" horiz-adv-x="869" 
d="M25 727q0 6 6 6h284q6 0 6 -6v-8q0 -6 -6 -7l-106 -9q-17 0 -17 -14v-453q0 -96 65 -152t177 -56q113 0 179 61.5t66 167.5v428q0 17 -13 18l-109 9q-6 1 -6 7v8q0 6 6 6h279q6 0 6 -6v-8q0 -6 -6 -7l-104 -9q-17 0 -17 -14v-430q0 -124 -74.5 -194.5t-206.5 -70.5
q-130 0 -205 65.5t-75 179.5v446q0 17 -13 18l-110 9q-6 1 -6 7v8zM306 829q1 6 7 6h178l69 2q6 0 6 -6q0 -5 -0.5 -9.5t-1.5 -9.5q-1 -6 -7 -6h-244q-6 0 -7 6q-2 8 0 17z" />
    <glyph glyph-name="umacron" unicode="&#x16b;" horiz-adv-x="652" 
d="M266 -6q-141 0 -141 153v301l-89 7q-6 1 -6 7v7q0 6 6 7l105 15q13 2 16.5 -0.5t3.5 -10.5v-333q0 -119 106 -119q115 0 217 106v314l-89 7q-6 1 -6 7v7q0 6 6 7l105 15q13 2 16.5 -0.5t3.5 -10.5v-443l90 -12q6 -1 6 -7v-7q0 -6 -6 -7l-117 -10q-9 0 -9 11v96
q-43 -48 -101 -77.5t-117 -29.5zM194 633q1 6 7 6h178l69 2q6 0 6 -6q0 -5 -0.5 -9.5t-1.5 -9.5q-1 -6 -7 -6h-244q-6 0 -7 6q-2 8 0 17z" />
    <glyph glyph-name="Ubreve" unicode="&#x16c;" horiz-adv-x="869" 
d="M25 727q0 6 6 6h284q6 0 6 -6v-8q0 -6 -6 -7l-106 -9q-17 0 -17 -14v-453q0 -96 65 -152t177 -56q113 0 179 61.5t66 167.5v428q0 17 -13 18l-109 9q-6 1 -6 7v8q0 6 6 6h279q6 0 6 -6v-8q0 -6 -6 -7l-104 -9q-17 0 -17 -14v-430q0 -124 -74.5 -194.5t-206.5 -70.5
q-130 0 -205 65.5t-75 179.5v446q0 17 -13 18l-110 9q-6 1 -6 7v8zM436 778q-61 0 -92 31.5t-43 73.5q-2 6 4 8l10 4q6 2 8 -4q14 -31 40 -53.5t73 -22.5q48 0 74 22.5t40 53.5q2 6 8 4l10 -4q6 -2 4 -8q-12 -42 -43 -73.5t-93 -31.5z" />
    <glyph glyph-name="ubreve" unicode="&#x16d;" horiz-adv-x="652" 
d="M266 -6q-141 0 -141 153v301l-89 7q-6 1 -6 7v7q0 6 6 7l105 15q13 2 16.5 -0.5t3.5 -10.5v-333q0 -119 106 -119q115 0 217 106v314l-89 7q-6 1 -6 7v7q0 6 6 7l105 15q13 2 16.5 -0.5t3.5 -10.5v-443l90 -12q6 -1 6 -7v-7q0 -6 -6 -7l-117 -10q-9 0 -9 11v96
q-43 -48 -101 -77.5t-117 -29.5zM323 573q-61 0 -92 31.5t-43 73.5q-2 6 4 8l10 4q6 2 8 -4q14 -31 40 -53.5t73 -22.5q48 0 74 22.5t40 53.5q2 6 8 4l10 -4q6 -2 4 -8q-12 -42 -43 -73.5t-93 -31.5z" />
    <glyph glyph-name="Uring" unicode="&#x16e;" horiz-adv-x="869" 
d="M25 727q0 6 6 6h284q6 0 6 -6v-8q0 -6 -6 -7l-106 -9q-17 0 -17 -14v-453q0 -96 65 -152t177 -56q113 0 179 61.5t66 167.5v428q0 17 -13 18l-109 9q-6 1 -6 7v8q0 6 6 6h279q6 0 6 -6v-8q0 -6 -6 -7l-104 -9q-17 0 -17 -14v-430q0 -124 -74.5 -194.5t-206.5 -70.5
q-130 0 -205 65.5t-75 179.5v446q0 17 -13 18l-110 9q-6 1 -6 7v8zM437 772q-40 0 -65.5 24t-25.5 61q0 36 25.5 60t65.5 24t65 -24t25 -60q0 -37 -25 -61t-65 -24zM437 797q28 0 44.5 17.5t16.5 42.5t-16.5 42t-44.5 17t-45 -17t-17 -42t17 -42.5t45 -17.5z" />
    <glyph glyph-name="uring" unicode="&#x16f;" horiz-adv-x="652" 
d="M266 -6q-141 0 -141 153v301l-89 7q-6 1 -6 7v7q0 6 6 7l105 15q13 2 16.5 -0.5t3.5 -10.5v-333q0 -119 106 -119q115 0 217 106v314l-89 7q-6 1 -6 7v7q0 6 6 7l105 15q13 2 16.5 -0.5t3.5 -10.5v-443l90 -12q6 -1 6 -7v-7q0 -6 -6 -7l-117 -10q-9 0 -9 11v96
q-43 -48 -101 -77.5t-117 -29.5zM323 542q-40 0 -65.5 24t-25.5 61q0 36 25.5 60t65.5 24t65 -24t25 -60q0 -37 -25 -61t-65 -24zM323 567q28 0 44.5 17.5t16.5 42.5t-16.5 42t-44.5 17t-45 -17t-17 -42t17 -42.5t45 -17.5z" />
    <glyph glyph-name="Uhungarumlaut" unicode="&#x170;" horiz-adv-x="869" 
d="M25 727q0 6 6 6h284q6 0 6 -6v-8q0 -6 -6 -7l-106 -9q-17 0 -17 -14v-453q0 -96 65 -152t177 -56q113 0 179 61.5t66 167.5v428q0 17 -13 18l-109 9q-6 1 -6 7v8q0 6 6 6h279q6 0 6 -6v-8q0 -6 -6 -7l-104 -9q-17 0 -17 -14v-430q0 -124 -74.5 -194.5t-206.5 -70.5
q-130 0 -205 65.5t-75 179.5v446q0 17 -13 18l-110 9q-6 1 -6 7v8zM327 793q-6 3 0 6q21 13 46.5 32.5t50.5 41t44 40.5q4 4 10 2q17 -4 27 -12q5 -6 4 -9.5t-11 -11.5q-34 -25 -77 -52t-77 -43q-4 -3 -10 0zM484 793q-6 3 0 6q21 13 46.5 32.5t50.5 41t44 40.5q4 4 10 2
q17 -4 27 -12q5 -6 4 -9.5t-11 -11.5q-34 -25 -77 -52t-77 -43q-4 -3 -10 0z" />
    <glyph glyph-name="uhungarumlaut" unicode="&#x171;" horiz-adv-x="652" 
d="M266 -6q-141 0 -141 153v301l-89 7q-6 1 -6 7v7q0 6 6 7l105 15q13 2 16.5 -0.5t3.5 -10.5v-333q0 -119 106 -119q115 0 217 106v314l-89 7q-6 1 -6 7v7q0 6 6 7l105 15q13 2 16.5 -0.5t3.5 -10.5v-443l90 -12q6 -1 6 -7v-7q0 -6 -6 -7l-117 -10q-9 0 -9 11v96
q-43 -48 -101 -77.5t-117 -29.5zM398 553q-4 -4 -9 -1l-8 6q-5 3 -1 7q37 41 69.5 83t60.5 86q3 5 9 4t13 -4.5t13 -7.5t6 -8t-8 -14q-33 -40 -69 -76.5t-76 -74.5zM241 553q-4 -4 -9 -1l-8 6q-5 3 -1 7q37 41 69.5 83t60.5 86q3 5 9 4t13 -4.5t13 -7.5t6 -8t-8 -14
q-33 -40 -69 -76.5t-76 -74.5z" />
    <glyph glyph-name="Uogonek" unicode="&#x172;" horiz-adv-x="869" 
d="M25 727q0 6 6 6h284q6 0 6 -6v-8q0 -6 -6 -7l-106 -9q-17 0 -17 -14v-453q0 -96 65 -152t177 -56q113 0 179 61.5t66 167.5v428q0 17 -13 18l-109 9q-6 1 -6 7v8q0 6 6 6h279q6 0 6 -6v-8q0 -6 -6 -7l-104 -9q-17 0 -17 -14v-430q0 -124 -74.5 -194.5t-206.5 -70.5
q-130 0 -205 65.5t-75 179.5v446q0 17 -13 18l-110 9q-6 1 -6 7v8zM442 -218q-34 0 -55 18.5t-21 49.5q0 34 24.5 73t78.5 91l14 -14q-43 -49 -62 -83t-19 -62q0 -44 51 -44q14 0 25.5 2.5t25.5 7.5q6 2 8 -4l3 -8q3 -6 -3 -9q-31 -18 -70 -18z" />
    <glyph glyph-name="uogonek" unicode="&#x173;" horiz-adv-x="652" 
d="M266 -6q-141 0 -141 153v301l-89 7q-6 1 -6 7v7q0 6 6 7l105 15q13 2 16.5 -0.5t3.5 -10.5v-333q0 -119 106 -119q115 0 217 106v314l-89 7q-6 1 -6 7v7q0 6 6 7l105 15q13 2 16.5 -0.5t3.5 -10.5v-441l89 -7q6 0 6 -6v-5q0 -6 -5 -9q-73 -48 -97 -86.5t-24 -65.5
q0 -22 13 -35.5t38 -13.5q14 0 27 3t24 7q6 2 8 -4l3 -8q3 -6 -3 -9q-31 -18 -70 -18q-34 0 -55 19.5t-21 53.5q0 26 22.5 66t85.5 84l-65 -4q-7 -1 -9.5 2t-2.5 16v82q-43 -48 -101 -77.5t-117 -29.5z" />
    <glyph glyph-name="Wcircumflex" unicode="&#x174;" horiz-adv-x="1213" 
d="M380 0q-6 0 -8 6l-245 684q-5 12 -21 14l-89 8q-6 1 -6 7v8q0 6 6 6h284q6 0 6 -6v-8q0 -6 -6 -6l-102 -8q-22 -1 -26 -11t3 -31l210 -587l209 651q2 6 8 6h8q6 0 8 -6l229 -651l199 589q8 21 0.5 29t-29.5 10l-102 8q-6 1 -6 7v8q0 6 6 6h285q6 0 6 -6v-8q0 -6 -6 -7
l-95 -10q-13 -1 -18 -17l-231 -679q-2 -6 -8 -6h-7q-6 0 -8 6l-228 649l-210 -649q-2 -6 -8 -6h-8zM469 789q-5 3 -1 7q32 29 62 60.5t64 69.5q4 5 10 5h12q6 0 10 -4q35 -39 66 -70t62 -60q4 -4 -1 -7q-6 -4 -10 -5q-4 -3 -10 1q-27 20 -59 44.5t-66 51.5q-32 -27 -62 -52
t-57 -45q-6 -3 -11 -2z" />
    <glyph glyph-name="wcircumflex" unicode="&#x175;" horiz-adv-x="754" 
d="M226 -2q-6 0 -8 6l-170 442q-6 12 -22 14l-55 4q-6 1 -6 7v9q0 6 6 6h216q6 0 6 -6v-9q0 -6 -6 -6l-66 -5q-22 -1 -26 -10.5t3 -29.5l101 -269l16 -44l16 -44l137 417q2 6 8 6h7q6 0 8 -6l123 -329q8 -22 16 -43.5t16 -42.5l123 358q8 21 0.5 29t-29.5 9l-65 4q-6 0 -6 6
v9q0 6 6 6h208q6 0 6 -6v-9q0 -6 -6 -7l-58 -6q-12 -1 -19 -17l-151 -437q-2 -6 -8 -6h-7q-6 0 -8 6l-154 412l-136 -412q-2 -6 -8 -6h-8zM247 560q-5 3 -1 8q29 34 58 71t62 83q3 5 9 5h13q7 0 9 -5q34 -46 63 -83t60 -71q4 -4 -1 -7q-2 -1 -4.5 -2.5t-5.5 -3.5
q-6 -2 -10 2q-27 24 -57 54t-62 65q-30 -35 -59 -65t-56 -54q-4 -4 -10 -2q-2 1 -4 2.5t-4 2.5z" />
    <glyph glyph-name="Ycircumflex" unicode="&#x176;" horiz-adv-x="808" 
d="M268 0q-6 0 -6 6v8q0 6 6 7l110 9q13 1 13 18v256l-262 385q-7 11 -24 13l-88 9q-6 1 -6 7v9q0 6 6 6h288q6 0 6 -6v-9q0 -6 -6 -6l-104 -8q-22 -1 -24 -10t10 -27l227 -333l214 335q12 19 6.5 26t-27.5 8l-95 8q-6 1 -6 7v9q0 6 6 6h284q6 0 6 -6v-9q0 -6 -6 -7l-99 -10
q-14 -2 -22 -15l-246 -383v-259q0 -14 17 -14l106 -9q6 -1 6 -7v-8q0 -6 -6 -6h-284zM261 789q-5 3 -1 7q32 29 62 60.5t64 69.5q4 5 10 5h12q6 0 10 -4q35 -39 66 -70t62 -60q4 -4 -1 -7q-6 -4 -10 -5q-4 -3 -10 1q-27 20 -59 44.5t-66 51.5q-32 -27 -62 -52t-57 -45
q-6 -3 -11 -2z" />
    <glyph glyph-name="ycircumflex" unicode="&#x177;" horiz-adv-x="514" 
d="M110 -211q-16 0 -26.5 6t-10.5 18q0 10 5 18q3 5 9 4q8 -2 17 -3.5t19 -1.5q30 0 49.5 18t36.5 57l51 116l-214 425q-6 12 -23 14l-52 4q-6 1 -6 7v9q0 6 6 6h216q6 0 6 -6v-9q0 -6 -6 -6l-69 -5q-22 -1 -25.5 -10t6.5 -29l179 -359l160 362q9 21 2.5 28.5t-28.5 8.5
l-66 4q-6 0 -6 6v9q0 6 6 6h208q6 0 6 -6v-9q0 -6 -6 -7l-54 -5q-14 -2 -20 -17l-244 -548q-25 -55 -54.5 -80t-71.5 -25zM139 560q-5 3 -1 8q29 34 58 71t62 83q3 5 9 5h13q7 0 9 -5q34 -46 63 -83t60 -71q4 -4 -1 -7q-2 -1 -4.5 -2.5t-5.5 -3.5q-6 -2 -10 2q-27 24 -57 54
t-62 65q-30 -35 -59 -65t-56 -54q-4 -4 -10 -2q-2 1 -4 2.5t-4 2.5z" />
    <glyph glyph-name="Ydieresis" unicode="&#x178;" horiz-adv-x="808" 
d="M268 0q-6 0 -6 6v8q0 6 6 7l110 9q13 1 13 18v256l-262 385q-7 11 -24 13l-88 9q-6 1 -6 7v9q0 6 6 6h288q6 0 6 -6v-9q0 -6 -6 -6l-104 -8q-22 -1 -24 -10t10 -27l227 -333l214 335q12 19 6.5 26t-27.5 8l-95 8q-6 1 -6 7v9q0 6 6 6h284q6 0 6 -6v-9q0 -6 -6 -7l-99 -10
q-14 -2 -22 -15l-246 -383v-259q0 -14 17 -14l106 -9q6 -1 6 -7v-8q0 -6 -6 -6h-284zM308 798q-15 0 -24 9t-9 22q0 14 9 22.5t24 8.5q14 0 23 -8.5t9 -22.5q0 -13 -9 -22t-23 -9zM498 798q-14 0 -23 9t-9 22q0 14 9 22.5t23 8.5t23.5 -8.5t9.5 -22.5q0 -13 -9.5 -22
t-23.5 -9z" />
    <glyph glyph-name="Zacute" unicode="&#x179;" horiz-adv-x="681" 
d="M72 0q-6 0 -7 6v2q-1 6 3 11l506 685h-400q-14 0 -17 -17l-32 -142q-1 -6 -7 -5l-11 2q-6 1 -6 7l15 176q1 8 4 10t16 1l34 -3h447q6 0 7 -6v-3q1 -6 -3 -11l-503 -684h426q14 0 17 17l34 141q1 6 7 5l13 -1q6 -1 5 -7l-19 -177q-1 -7 -4 -9t-16 -1l-34 3h-475zM312 793
q-6 3 0 6q21 13 46.5 32.5t50.5 41t44 40.5q4 4 10 2q17 -4 27 -12q5 -6 4 -9.5t-11 -11.5q-34 -25 -77 -52t-77 -43q-4 -3 -10 0z" />
    <glyph glyph-name="zacute" unicode="&#x17a;" horiz-adv-x="511" 
d="M421 127q1 6 7 5h6q6 -1 6 -7l-4 -119q0 -6 -6 -6h-352q-6 0 -7 6v2q-1 5 2 11l313 440h-250q-12 0 -17 -17l-18 -82q-1 -6 -7 -6l-6 1q-6 0 -6 6l5 119q0 6 6 6h332q6 0 7 -6l1 -3q1 -5 -2 -11l-314 -439h271q13 0 16 17zM223 553q-4 -4 -9 -1l-8 6q-5 3 -1 7
q37 41 69.5 83t60.5 86q3 5 9 4t13 -4.5t13 -7.5t6 -8t-8 -14q-33 -40 -69 -76.5t-76 -74.5z" />
    <glyph glyph-name="Zdotaccent" unicode="&#x17b;" horiz-adv-x="681" 
d="M72 0q-6 0 -7 6v2q-1 6 3 11l506 685h-400q-14 0 -17 -17l-32 -142q-1 -6 -7 -5l-11 2q-6 1 -6 7l15 176q1 8 4 10t16 1l34 -3h447q6 0 7 -6v-3q1 -6 -3 -11l-503 -684h426q14 0 17 17l34 141q1 6 7 5l13 -1q6 -1 5 -7l-19 -177q-1 -7 -4 -9t-16 -1l-34 3h-475zM370 798
q-15 0 -24 9t-9 22q0 14 9 22.5t24 8.5q14 0 23 -8.5t9 -22.5q0 -13 -9 -22t-23 -9z" />
    <glyph glyph-name="zdotaccent" unicode="&#x17c;" horiz-adv-x="511" 
d="M421 127q1 6 7 5h6q6 -1 6 -7l-4 -119q0 -6 -6 -6h-352q-6 0 -7 6v2q-1 5 2 11l313 440h-250q-12 0 -17 -17l-18 -82q-1 -6 -7 -6l-6 1q-6 0 -6 6l5 119q0 6 6 6h332q6 0 7 -6l1 -3q1 -5 -2 -11l-314 -439h271q13 0 16 17zM255 600q-15 0 -24 9t-9 22q0 14 9 23t24 9
q14 0 23 -9t9 -23q0 -13 -9 -22t-23 -9z" />
    <glyph glyph-name="Zcaron" unicode="&#x17d;" horiz-adv-x="681" 
d="M512 924q5 -3 1 -7q-31 -29 -61 -60.5t-65 -69.5q-4 -5 -10 -5h-12q-6 0 -10 4q-35 39 -65.5 70.5t-62.5 59.5q-4 4 1 7q6 4 10 5q4 3 10 -1q27 -20 59 -44.5t66 -51.5q32 27 62 52t57 45q6 3 11 2zM72 0q-6 0 -7 6v2q-1 6 3 11l506 685h-400q-14 0 -17 -17l-32 -142
q-1 -6 -7 -5l-11 2q-6 1 -6 7l15 176q1 8 4 10t16 1l34 -3h447q6 0 7 -6v-3q1 -6 -3 -11l-503 -684h426q14 0 17 17l34 141q1 6 7 5l13 -1q6 -1 5 -7l-19 -177q-1 -7 -4 -9t-16 -1l-34 3h-475z" />
    <glyph glyph-name="zcaron" unicode="&#x17e;" horiz-adv-x="511" 
d="M391 732q5 -3 1 -8q-29 -34 -58 -70.5t-62 -83.5q-2 -5 -9 -5h-13q-6 0 -9 5q-34 47 -63 83.5t-60 70.5q-4 4 1 7q2 2 4.5 3.5t5.5 2.5q6 2 10 -2q27 -24 57 -54t62 -65q30 35 59 65t56 54q4 4 10 2l4 -2t4 -3zM421 127q1 6 7 5h6q6 -1 6 -7l-4 -119q0 -6 -6 -6h-352
q-6 0 -7 6v2q-1 5 2 11l313 440h-250q-12 0 -17 -17l-18 -82q-1 -6 -7 -6l-6 1q-6 0 -6 6l5 119q0 6 6 6h332q6 0 7 -6l1 -3q1 -5 -2 -11l-314 -439h271q13 0 16 17z" />
    <glyph glyph-name="uni018F" unicode="&#x18f;" horiz-adv-x="806" 
d="M401 -8q-88 0 -154.5 39.5t-103 111.5t-36.5 167q0 11 1.5 23t2.5 28q1 6 7 6h561q0 97 -36.5 173.5t-99 120.5t-142.5 44q-58 0 -110 -16t-87 -44q-11 -9 -17 -25l-42 -93q-3 -5 -8 -3l-10 4q-6 2 -4 8l36 119q2 7 6 10.5t15 8.5l23 12q38 25 91 39t105 14
q96 0 167.5 -46.5t111 -130.5t39.5 -197q0 -116 -38 -199.5t-108.5 -128.5t-169.5 -45zM146 305q0 -84 31.5 -147t89 -98t135.5 -35q126 0 198 82t78 231h-531q-1 -18 -1 -33z" />
    <glyph glyph-name="florin" unicode="&#x192;" horiz-adv-x="562" 
d="M254 70q-21 -103 -64 -150.5t-117 -47.5q-87 0 -87 32q0 11 6 20q3 6 8 3q41 -18 84 -18q57 0 86.5 37t48.5 131l44 222v1h-148q-6 0 -6 6v14q0 6 6 6h153l40 202q21 104 64.5 151t116.5 47q87 0 87 -32q0 -11 -6 -20q-3 -6 -8 -3q-40 18 -84 18q-57 0 -86.5 -37
t-48.5 -131l-39 -195h156l44 4q6 0 6 -6v-18q0 -6 -6 -6h-205v-1z" />
    <glyph glyph-name="Ohorn" unicode="&#x1a0;" horiz-adv-x="866" 
d="M430 -6q-101 0 -178 47t-120 131.5t-43 194.5t43.5 194t120.5 131t177 47q49 0 93 -11q74 -14 110.5 -9t48.5 24t12 47q0 12 -2.5 22.5t-7.5 19.5q-3 6 2 8q9 5 19.5 7.5t17.5 -1.5q12 -9 12 -51q0 -108 -123 -103q77 -46 121 -130t44 -195q0 -112 -43 -196t-121 -130.5
t-183 -46.5zM429 28q94 0 163 42t107.5 118t38.5 179t-38.5 178.5t-107.5 117.5t-163 42q-91 0 -159 -42t-105 -117.5t-37 -178.5t37.5 -179t105 -118t158.5 -42z" />
    <glyph glyph-name="ohorn" unicode="&#x1a1;" horiz-adv-x="593" 
d="M296 -6q-106 0 -167.5 66.5t-61.5 182.5t61.5 182.5t167.5 66.5q33 0 63 -7q67 -11 101 -5t45.5 24.5t11.5 47.5q0 12 -2.5 22.5t-7.5 19.5q-3 6 2 8q9 5 19.5 7t17.5 -2q12 -9 12 -50q0 -109 -125 -104q44 -31 68 -84.5t24 -125.5q0 -117 -61 -183t-168 -66zM296 27
q91 0 141.5 57t50.5 159q0 101 -51 158.5t-141 57.5t-141 -57t-51 -159q0 -103 50.5 -159.5t141.5 -56.5z" />
    <glyph glyph-name="Uhorn" unicode="&#x1af;" horiz-adv-x="870" 
d="M434 -6q-80 0 -143.5 27t-100 81.5t-36.5 136.5v446q0 17 -13 18l-110 9q-6 1 -6 7v8q0 6 6 6h284q6 0 6 -6v-8q0 -6 -6 -7l-106 -9q-17 0 -17 -14v-453q0 -70 32 -116t87 -69t123 -23q69 0 125.5 24.5t90 75.5t33.5 129v431q0 14 -17 14l-107 9q-6 1 -6 7v9q0 6 6 6h88
q62 0 95 9.5t45 26t12 37.5q0 12 -2.5 22.5t-7.5 19.5q-3 6 2 8q9 5 19.5 7t17.5 -2q5 -3 8.5 -16.5t3.5 -33.5q0 -46 -30.5 -69t-80.5 -34q-13 -1 -13 -19v-430q0 -91 -37 -149.5t-100.5 -87t-144.5 -28.5z" />
    <glyph glyph-name="uhorn" unicode="&#x1b0;" horiz-adv-x="652" 
d="M266 -6q-141 0 -141 153v301l-89 7q-6 1 -6 7v7q0 6 6 7l105 15q13 2 16.5 -0.5t3.5 -10.5v-333q0 -119 106 -119q115 0 217 106v314l-89 7q-6 1 -6 7v7q0 6 6 7l105 15q13 2 16.5 -0.5t3.5 -10.5v-443l90 -12q6 -1 6 -7v-7q0 -6 -6 -7l-117 -10q-9 0 -9 11v96
q-43 -48 -101 -77.5t-117 -29.5zM491 490q60 7 82 25t22 49q0 12 -2.5 22.5t-7.5 19.5q-3 6 2 8q9 5 19.5 7t17.5 -2q12 -9 12 -50q0 -52 -40 -75.5t-105 -28.5v25z" />
    <glyph glyph-name="uni01C4" unicode="&#x1c4;" horiz-adv-x="1445" 
d="M1276 924q5 -3 1 -7q-31 -29 -61 -60.5t-65 -69.5q-4 -5 -10 -5h-12q-6 0 -10 4q-35 39 -65.5 70.5t-62.5 59.5q-4 4 1 7q6 4 10 5q4 3 10 -1q27 -20 59 -44.5t66 -51.5q32 27 62 52t57 45q6 3 11 2zM46 0q-6 0 -6 6v8q0 6 6 7l110 9q13 1 13 18v637q0 17 -13 18l-110 9
q-6 1 -6 7v8q0 6 6 6h320q114 0 197 -44.5t127.5 -126.5t44.5 -195t-45 -195.5t-127.5 -127t-196.5 -44.5h-320zM366 704h-159v-662q0 -13 17 -13h142q103 0 176.5 41t113.5 116.5t40 180.5t-39.5 180.5t-113.5 116t-177 40.5zM836 0q-6 0 -7 6v2q-1 6 3 11l506 685h-400
q-14 0 -17 -17l-32 -142q-1 -6 -7 -5l-11 2q-6 1 -6 7l15 176q1 8 4 10t16 1l34 -3h447q6 0 7 -6v-3q1 -6 -3 -11l-503 -684h426q14 0 17 17l34 141q1 6 7 5l13 -1q6 -1 5 -7l-19 -177q-1 -7 -4 -9t-16 -1l-34 3h-475z" />
    <glyph glyph-name="uni01C5" unicode="&#x1c5;" horiz-adv-x="1325" 
d="M1205 732q5 -3 1 -8q-29 -34 -58 -70.5t-62 -83.5q-2 -5 -9 -5h-13q-6 0 -9 5q-34 47 -63 83.5t-60 70.5q-4 4 1 7q2 2 4.5 3.5t5.5 2.5q6 2 10 -2q27 -24 57 -54t62 -65q30 35 59 65t56 54q4 4 10 2l4 -2t4 -3zM46 0q-6 0 -6 6v8q0 6 6 7l110 9q13 1 13 18v637
q0 17 -13 18l-110 9q-6 1 -6 7v8q0 6 6 6h320q114 0 197 -44.5t127.5 -126.5t44.5 -195t-45 -195.5t-127.5 -127t-196.5 -44.5h-320zM366 704h-159v-662q0 -13 17 -13h142q103 0 176.5 41t113.5 116.5t40 180.5t-39.5 180.5t-113.5 116t-177 40.5zM1235 127q1 6 7 5h6
q6 -1 6 -7l-4 -119q0 -6 -6 -6h-352q-6 0 -7 6v2q-1 5 2 11l313 440h-250q-12 0 -17 -17l-18 -82q-1 -6 -7 -6l-6 1q-6 0 -6 6l5 119q0 6 6 6h332q6 0 7 -6l1 -3q1 -5 -2 -11l-314 -439h271q13 0 16 17z" />
    <glyph glyph-name="uni01C6" unicode="&#x1c6;" horiz-adv-x="1127" 
d="M1007 732q5 -3 1 -8q-29 -34 -58 -70.5t-62 -83.5q-2 -5 -9 -5h-13q-6 0 -9 5q-34 47 -63 83.5t-60 70.5q-4 4 1 7q2 2 4.5 3.5t5.5 2.5q6 2 10 -2q27 -24 57 -54t62 -65q30 35 59 65t56 54q4 4 10 2l4 -2t4 -3zM290 492q90 0 158 -66v271l-89 7q-6 1 -6 7v7q0 6 6 7
l105 15q13 2 16.5 -0.5t3.5 -10.5v-692l90 -12q6 -1 6 -7v-7q0 -6 -6 -7l-117 -10q-9 0 -9 11v92q-38 -47 -88 -75t-99 -28q-91 0 -142.5 63.5t-51.5 175.5q0 120 60 189.5t163 69.5zM261 27q48 0 97 27t90 76v260q-65 69 -157 69q-89 0 -138.5 -59.5t-49.5 -166.5
q0 -97 42 -151.5t116 -54.5zM1037 127q1 6 7 5h6q6 -1 6 -7l-4 -119q0 -6 -6 -6h-352q-6 0 -7 6v2q-1 5 2 11l313 440h-250q-12 0 -17 -17l-18 -82q-1 -6 -7 -6l-6 1q-6 0 -6 6l5 119q0 6 6 6h332q6 0 7 -6l1 -3q1 -5 -2 -11l-314 -439h271q13 0 16 17z" />
    <glyph glyph-name="uni01C7" unicode="&#x1c7;" horiz-adv-x="1069" 
d="M46 0q-6 0 -6 6v8q0 6 6 7l110 9q13 1 13 18v637q0 17 -13 18l-110 9q-6 1 -6 7v8q0 6 6 6h284q6 0 6 -6v-8q0 -6 -6 -7l-106 -9q-17 0 -17 -14v-647q0 -13 17 -13h346q12 0 19 16l48 133q2 6 8 5l10 -2q6 -1 5 -7l-31 -167q-1 -7 -4.5 -9t-16.5 -1l-35 3h-527zM727 -138
q-2 5 2 8q60 35 93 69.5t46 82t13 119.5v551q-3 10 -12 11l-110 9q-6 1 -6 7v8q0 6 6 6h284q6 0 6 -6v-8q0 -6 -6 -7l-106 -9q-17 0 -17 -14v-548q0 -76 -15.5 -127.5t-54.5 -89t-108 -74.5q-5 -4 -8 2z" />
    <glyph glyph-name="uni01C8" unicode="&#x1c8;" horiz-adv-x="958" 
d="M46 0q-6 0 -6 6v8q0 6 6 7l110 9q13 1 13 18v637q0 17 -13 18l-110 9q-6 1 -6 7v8q0 6 6 6h284q6 0 6 -6v-8q0 -6 -6 -7l-106 -9q-17 0 -17 -14v-647q0 -13 17 -13h346q12 0 19 16l48 133q2 6 8 5l10 -2q6 -1 5 -7l-31 -167q-1 -7 -4.5 -9t-16.5 -1l-35 3h-527zM685 -171
q-3 4 2 8q55 31 85 63t42 76t12 110v361l-89 7q-6 1 -6 7v7q0 6 6 7l105 15q13 2 16.5 -0.5t3.5 -10.5v-393q0 -70 -14.5 -117.5t-50.5 -82.5t-99 -69q-4 -3 -8 2zM844 600q-15 0 -24 9t-9 22q0 14 9 23t24 9q14 0 23 -9t9 -23q0 -13 -9 -22t-23 -9z" />
    <glyph glyph-name="uni01C9" unicode="&#x1c9;" horiz-adv-x="526" 
d="M39 0q-6 0 -6 6v8q0 6 6 7l69 8q8 1 10.5 4.5t2.5 13.5v650l-89 7q-6 1 -6 7v7q0 6 6 7l105 15q13 2 16.5 -0.5t3.5 -10.5v-686q0 -8 3.5 -10.5t13.5 -4.5l89 -7q6 -1 6 -7v-8q0 -6 -6 -6h-224zM253 -171q-3 4 2 8q55 31 85 63t42 76t12 110v361l-89 7q-6 1 -6 7v7
q0 6 6 7l105 15q13 2 16.5 -0.5t3.5 -10.5v-393q0 -70 -14.5 -117.5t-50.5 -82.5t-99 -69q-4 -3 -8 2zM412 600q-15 0 -24 9t-9 22q0 14 9 23t24 9q14 0 23 -9t9 -23q0 -13 -9 -22t-23 -9z" />
    <glyph glyph-name="uni01CA" unicode="&#x1ca;" horiz-adv-x="1207" 
d="M733 702q-17 0 -17 -14v-684q0 -6 -6 -6h-6q-6 0 -10 5l-492 671v-626q0 -17 13 -18l110 -9q6 -1 6 -7v-8q0 -6 -6 -6h-279q-6 0 -6 6v8q0 6 6 7l106 9q17 0 17 14v644q0 14 -17 14l-106 9q-6 1 -6 7v9q0 6 6 6h149q6 0 10 -5l477 -651v607q0 17 -13 18l-110 9q-6 1 -6 7
v9q0 6 6 6h280q6 0 6 -6v-9q0 -6 -6 -7zM865 -138q-2 5 2 8q60 35 93 69.5t46 82t13 119.5v551q-3 10 -12 11l-110 9q-6 1 -6 7v8q0 6 6 6h284q6 0 6 -6v-8q0 -6 -6 -7l-106 -9q-17 0 -17 -14v-548q0 -76 -15.5 -127.5t-54.5 -89t-108 -74.5q-5 -4 -8 2z" />
    <glyph glyph-name="uni01CB" unicode="&#x1cb;" horiz-adv-x="1096" 
d="M733 702q-17 0 -17 -14v-684q0 -6 -6 -6h-6q-6 0 -10 5l-492 671v-626q0 -17 13 -18l110 -9q6 -1 6 -7v-8q0 -6 -6 -6h-279q-6 0 -6 6v8q0 6 6 7l106 9q17 0 17 14v644q0 14 -17 14l-106 9q-6 1 -6 7v9q0 6 6 6h149q6 0 10 -5l477 -651v607q0 17 -13 18l-110 9q-6 1 -6 7
v9q0 6 6 6h280q6 0 6 -6v-9q0 -6 -6 -7zM823 -171q-3 4 2 8q55 31 85 63t42 76t12 110v361l-89 7q-6 1 -6 7v7q0 6 6 7l105 15q13 2 16.5 -0.5t3.5 -10.5v-393q0 -70 -14.5 -117.5t-50.5 -82.5t-99 -69q-4 -3 -8 2zM982 600q-15 0 -24 9t-9 22q0 14 9 23t24 9q14 0 23 -9
t9 -23q0 -13 -9 -22t-23 -9z" />
    <glyph glyph-name="uni01CC" unicode="&#x1cc;" horiz-adv-x="917" 
d="M59 0q-6 0 -6 6v8q0 6 6 7l69 8q8 1 10.5 4.5t2.5 13.5v401l-89 7q-6 1 -6 7v7q0 6 6 7l104 15q13 2 16.5 -0.5t3.5 -10.5v-88l1 -14q44 50 105 82t117 32q69 0 105.5 -39.5t36.5 -113.5v-296q0 -8 3.5 -10.5t13.5 -4.5l89 -7q6 -1 6 -7v-8q0 -6 -6 -6h-224q-6 0 -6 6v8
q0 6 6 7l69 8q8 1 10.5 4.5t2.5 13.5v292q0 120 -111 120q-54 0 -109.5 -28.5t-107.5 -83.5v-304q0 -8 3.5 -10.5t13.5 -4.5l89 -7q6 -1 6 -7v-8q0 -6 -6 -6h-224zM644 -171q-3 4 2 8q55 31 85 63t42 76t12 110v361l-89 7q-6 1 -6 7v7q0 6 6 7l105 15q13 2 16.5 -0.5
t3.5 -10.5v-393q0 -70 -14.5 -117.5t-50.5 -82.5t-99 -69q-4 -3 -8 2zM803 600q-15 0 -24 9t-9 22q0 14 9 23t24 9q14 0 23 -9t9 -23q0 -13 -9 -22t-23 -9z" />
    <glyph glyph-name="Gcaron" unicode="&#x1e6;" horiz-adv-x="824" 
d="M571 924q5 -3 1 -7q-31 -29 -61 -60.5t-65 -69.5q-4 -5 -10 -5h-12q-6 0 -10 4q-35 39 -65.5 70.5t-62.5 59.5q-4 4 1 7q6 4 10 5q4 3 10 -1q27 -20 59 -44.5t66 -51.5q32 27 62 52t57 45q6 3 11 2zM429 705q-91 0 -159 -41.5t-105 -117.5t-37 -179q0 -102 37.5 -178.5
t105 -118.5t158.5 -42q58 0 115 11.5t102 30.5v199q0 14 -17 14l-143 12q-6 1 -6 7v9q0 6 6 6h285q6 0 6 -6v-9q0 -6 -6 -7l-74 -11q-13 -1 -13 -19v-155l4 -45q1 -10 -1 -13t-10 -7q-59 -27 -123.5 -39t-123.5 -12q-101 0 -178 47t-120 131.5t-43 194.5t43.5 194t120.5 131
t177 47q62 0 111.5 -11t82.5 -26l23 -5q8 -2 10.5 -5.5t3.5 -16.5l14 -156q1 -6 -5 -7l-11 -1q-6 -1 -7 5l-31 125q-3 13 -17 22q-35 21 -80.5 31.5t-94.5 10.5z" />
    <glyph glyph-name="gcaron" unicode="&#x1e7;" horiz-adv-x="545" 
d="M427 732q5 -3 1 -8q-29 -34 -58 -70.5t-62 -83.5q-2 -5 -9 -5h-13q-6 0 -9 5q-34 47 -63 83.5t-60 70.5q-4 4 1 7q2 2 4.5 3.5t5.5 2.5q6 2 10 -2q27 -24 57 -54t62 -65q30 35 59 65t56 54q4 4 10 2l4 -2t4 -3zM259 -227q-100 0 -154 35t-54 99q0 28 16 50t39.5 38
t46.5 24q-49 19 -49 74q0 24 14.5 42t54.5 43q-43 20 -68 59t-25 91q0 75 50 119.5t134 44.5q27 0 63.5 -2.5t87.5 -5.5l81 22q6 2 10 -3q5 -8 10.5 -17t8.5 -20q1 -6 -5 -6h-139q33 -20 51 -54t18 -78q0 -76 -51.5 -121.5t-138.5 -45.5q-37 0 -68 10q-27 -21 -39 -39
t-12 -38q0 -54 92 -54h128q63 0 98 -28.5t35 -81.5q0 -74 -62 -115.5t-173 -41.5zM260 192q74 0 114.5 35.5t40.5 100.5q0 62 -42 97.5t-114 35.5q-65 0 -104.5 -36.5t-39.5 -96.5q0 -61 39.5 -98.5t105.5 -37.5zM87 -90q0 -50 45 -77t127 -27q198 0 198 124q0 35 -26 56
t-70 21h-128q-32 0 -56 5q-90 -38 -90 -102z" />
    <glyph glyph-name="uni01EA" unicode="&#x1ea;" horiz-adv-x="866" 
d="M430 -6q-101 0 -178 47t-120 131.5t-43 194.5t43.5 194t120.5 131t177 47q104 0 182 -46.5t121.5 -130.5t43.5 -195q0 -112 -43 -196t-121 -130.5t-183 -46.5zM429 28q94 0 163 42t107.5 118t38.5 179t-38.5 178.5t-107.5 117.5t-163 42q-91 0 -159 -42t-105 -117.5
t-37 -178.5t37.5 -179t105 -118t158.5 -42zM441 -218q-34 0 -55 18.5t-21 49.5q0 34 24.5 73t78.5 91l14 -14q-43 -49 -62 -83t-19 -62q0 -44 51 -44q14 0 25.5 2.5t25.5 7.5q6 2 8 -4l3 -8q3 -6 -3 -9q-31 -18 -70 -18z" />
    <glyph glyph-name="uni01EB" unicode="&#x1eb;" horiz-adv-x="593" 
d="M296 -6q-106 0 -167.5 66.5t-61.5 182.5t61.5 182.5t167.5 66.5q107 0 168 -66.5t61 -182.5q0 -117 -61 -183t-168 -66zM296 27q91 0 141.5 57t50.5 159q0 101 -51 158.5t-141 57.5t-141 -57t-51 -159q0 -103 50.5 -159.5t141.5 -56.5zM306 -218q-34 0 -55 18.5t-21 49.5
q0 34 24.5 73t78.5 91l14 -14q-43 -49 -62 -83t-19 -62q0 -44 51 -44q14 0 25.5 2.5t25.5 7.5q6 2 8 -4l3 -8q3 -6 -3 -9q-31 -18 -70 -18z" />
    <glyph glyph-name="Aringacute" unicode="&#x1fa;" horiz-adv-x="815" 
d="M12 0q-6 0 -6 6v8q0 6 6 7l92 9q14 2 19 17l261 677q2 6 8 8l15 3q6 2 7 -4l9 -38l264 -650q5 -12 22 -14l89 -8q6 -1 6 -7v-8q0 -6 -6 -6h-284q-6 0 -6 6v8q0 6 6 6l100 8q23 2 26.5 11.5t-4.5 29.5l-88 218q-150 -1 -299 0l-84 -221q-8 -21 -1 -28.5t29 -9.5l103 -8
q6 0 6 -6v-8q0 -6 -6 -6h-284zM260 316q138 -3 276 0l-142 349zM397 710q-40 0 -65.5 24t-25.5 61q0 36 25.5 60t65.5 24t65 -24t25 -60q0 -37 -25 -61t-65 -24zM397 735q28 0 44.5 17.5t16.5 42.5t-16.5 42t-44.5 17t-45 -17t-17 -42t17 -42.5t45 -17.5zM339 909q-6 3 0 6
q21 13 46.5 32.5t50.5 41t44 40.5q4 4 10 2q17 -4 27 -12q5 -6 4 -9.5t-11 -11.5q-34 -25 -77 -52t-77 -43q-4 -3 -10 0z" />
    <glyph glyph-name="aringacute" unicode="&#x1fb;" horiz-adv-x="548" 
d="M193 -6q-61 0 -98 32.5t-37 86.5q0 61 42.5 93t133.5 41l155 16v70q0 130 -131 130q-27 0 -52.5 -6t-43 -21.5t-21.5 -45.5l-6 -48q-1 -6 -7 -6h-8q-6 0 -7 6q-4 24 -8 47.5t-8 47.5q-1 6 4 9q22 14 63.5 30t93.5 16q80 0 123.5 -41t43.5 -115v-299l89 -12q6 -1 6 -7v-7
q0 -6 -6 -6l-55 -5q-33 -3 -48 -2t-18.5 6t-3.5 14v70q-14 -21 -44 -42.5t-69.5 -36.5t-82.5 -15zM194 27q49 0 89 16.5t68 38t38 37.5v115l-150 -16q-79 -9 -111 -32.5t-32 -71.5q0 -40 26 -63.5t72 -23.5zM257 542q-40 0 -65.5 24t-25.5 61q0 36 25.5 60t65.5 24t65 -24
t25 -60q0 -37 -25 -61t-65 -24zM257 567q28 0 44.5 17.5t16.5 42.5t-16.5 42t-44.5 17t-45 -17t-17 -42t17 -42.5t45 -17.5zM200 766q-6 3 0 6q21 13 46.5 32.5t50.5 41t44 40.5q4 4 10 2q17 -4 27 -12q5 -6 4 -9.5t-11 -11.5q-34 -25 -77 -52t-77 -43q-4 -3 -10 0z" />
    <glyph glyph-name="AEacute" unicode="&#x1fc;" horiz-adv-x="1084" 
d="M594 42q3 -13 19 -13h314q12 0 19 16l47 133q2 6 8 5l11 -2q6 -1 5 -7l-32 -167q-1 -7 -4.5 -9t-16.5 -1l-34 3h-507q-6 0 -6 6v8q0 6 6 7l96 9q23 2 29 12t3 32l-26 225q-128 -1 -255 0l-121 -233q-10 -20 -4 -27t28 -9l117 -10q6 0 6 -6v-8q0 -6 -6 -6h-284q-6 0 -6 6
v8q0 6 6 7l76 9q13 1 21 16l334 640q8 15 -5 16l-100 9q-6 1 -6 7v9q0 6 6 6h598l41 3q8 1 10 -2t3 -16l12 -152q0 -6 -6 -7l-11 -3q-6 -1 -7 5l-31 130q-3 13 -20 13h-406l39 -324h293q12 0 17 17l16 73q1 6 7 6h7q6 0 6 -6v-224q0 -6 -6 -6h-7q-6 0 -7 6l-17 92
q-1 13 -19 13h-287zM285 328q118 -1 236 0l-43 369zM592 793q-6 3 0 6q21 13 46.5 32.5t50.5 41t44 40.5q4 4 10 2q17 -4 27 -12q5 -6 4 -9.5t-11 -11.5q-34 -25 -77 -52t-77 -43q-4 -3 -10 0z" />
    <glyph glyph-name="aeacute" unicode="&#x1fd;" horiz-adv-x="856" 
d="M193 -6q-58 0 -96.5 31t-38.5 88q0 68 47.5 97t128.5 37l154 16v70q0 74 -37.5 102t-92.5 28q-41 0 -75.5 -14.5t-41.5 -58.5l-6 -48q-1 -6 -7 -6h-8q-6 0 -7 6q-4 24 -8 47.5t-8 47.5q-1 6 4 9q35 21 77.5 33.5t79.5 12.5q69 0 110 -31.5t50 -91.5q25 58 74.5 90.5
t115.5 32.5q55 0 99 -28t69.5 -76t25.5 -108q0 -7 -1 -10q-1 -6 -7 -6h-369v-19q0 -63 24 -112.5t66 -77.5t95 -28q87 0 142 45q5 4 8 -1l5 -7q3 -5 -1 -9q-26 -29 -67 -45t-88 -16q-67 0 -117 31.5t-77 88.5q-14 -25 -47.5 -53t-79 -47.5t-95.5 -19.5zM608 459
q-76 0 -122.5 -43.5t-57.5 -123.5h337q-2 48 -23 86t-55.5 59.5t-78.5 21.5zM96 114q0 -43 27.5 -65t70.5 -22q50 0 92.5 19t73 45t45.5 47q-16 44 -17 96l-149 -16q-74 -8 -108.5 -30.5t-34.5 -73.5zM395 553q-4 -4 -9 -1l-8 6q-5 3 -1 7q37 41 69.5 83t60.5 86q3 5 9 4
t13 -4.5t13 -7.5t6 -8t-8 -14q-33 -40 -69 -76.5t-76 -74.5z" />
    <glyph glyph-name="Oslashacute" unicode="&#x1fe;" horiz-adv-x="866" 
d="M183 -22q-3 -6 -8 -3q-4 2 -7 4t-6 5q-4 4 -1 9l52 76q-56 46 -90 120.5t-34 177.5q0 92 27.5 161.5t75.5 116t109.5 70.5t128.5 24q57 0 109 -15.5t95 -46.5l50 72q3 6 9 3q3 -1 6 -3t5 -4q4 -5 1 -10l-50 -73q55 -47 88.5 -121t33.5 -174q0 -93 -27.5 -162.5
t-76 -116.5t-111 -70.5t-132.5 -23.5q-53 0 -103 14.5t-92 44.5zM128 367q0 -93 28.5 -160.5t76.5 -109.5l382 552q-39 28 -86.5 42t-99.5 14q-82 0 -150.5 -37.5t-109.5 -112.5t-41 -188zM429 28q85 0 155.5 38t112.5 113t42 188q0 91 -28 157.5t-76 108.5l-381 -552
q74 -53 175 -53zM376 793q-6 3 0 6q21 13 46.5 32.5t50.5 41t44 40.5q4 4 10 2q17 -4 27 -12q5 -6 4 -9.5t-11 -11.5q-34 -25 -77 -52t-77 -43q-4 -3 -10 0z" />
    <glyph glyph-name="oslashacute" unicode="&#x1ff;" horiz-adv-x="593" 
d="M296 -6q-75 0 -129 34l-54 -81q-3 -5 -9 -3q-6 3 -11 8q-2 5 0 10l54 81q-38 31 -59 82t-21 118q0 116 61.5 182.5t167.5 66.5q76 0 130 -34l44 65q3 6 9 3t11 -8q3 -5 0 -10l-44 -65q79 -66 79 -200q0 -115 -60.5 -182t-168.5 -67zM104 243q0 -114 63 -171l240 357
q-46 30 -111 30q-92 0 -142 -57.5t-50 -158.5zM296 27q92 0 142.5 57t50.5 158q0 114 -63 171l-239 -356q45 -30 109 -30zM264 553q-4 -4 -9 -1l-8 6q-5 3 -1 7q37 41 69.5 83t60.5 86q3 5 9 4t13 -4.5t13 -7.5t6 -8t-8 -14q-33 -40 -69 -76.5t-76 -74.5z" />
    <glyph glyph-name="uni0200" unicode="&#x200;" horiz-adv-x="815" 
d="M528 798l-7 -5q-7 -1 -10 2q-31 22 -69 56t-66 64q-9 10 -9.5 13.5t5.5 8.5q12 6 29 8q6 1 9 -4q16 -23 37 -48.5t43 -49t40 -39.5q5 -4 -2 -6zM348 803l-7 -6q-6 -3 -10 0q-34 16 -77 43t-77 52q-10 8 -11 11.5t4 9.5q11 8 27 12q6 2 10 -2q19 -19 44 -40.5t51 -41
t46 -32.5q6 -3 0 -6zM12 0q-6 0 -6 6v8q0 6 6 7l92 9q14 2 19 17l261 677q2 6 8 8l15 3q6 2 7 -4l9 -38l264 -650q5 -12 22 -14l89 -8q6 -1 6 -7v-8q0 -6 -6 -6h-284q-6 0 -6 6v8q0 6 6 6l100 8q23 2 26.5 11.5t-4.5 29.5l-88 218q-150 -1 -299 0l-84 -221q-8 -21 -1 -28.5
t29 -9.5l103 -8q6 0 6 -6v-8q0 -6 -6 -6h-284zM260 316q138 -3 276 0l-142 349z" />
    <glyph glyph-name="uni0201" unicode="&#x201;" horiz-adv-x="548" 
d="M177 549q-5 -2 -8 2q-37 41 -69.5 81t-62.5 82q-7 10 -6.5 14t6.5 8q6 3 13.5 6t13.5 4q7 0 9 -5q24 -47 52.5 -91t61.5 -89q4 -4 -1 -7zM326 544q-6 -1 -9 3q-32 44 -61.5 86.5t-54.5 87.5q-7 11 -6 14.5t8 7.5l13.5 4.5t13.5 2.5q7 0 8 -5q21 -49 45.5 -95.5
t53.5 -93.5q4 -6 -2 -7zM193 -6q-61 0 -98 32.5t-37 86.5q0 61 42.5 93t133.5 41l155 16v70q0 130 -131 130q-27 0 -52.5 -6t-43 -21.5t-21.5 -45.5l-6 -48q-1 -6 -7 -6h-8q-6 0 -7 6q-4 24 -8 47.5t-8 47.5q-1 6 4 9q22 14 63.5 30t93.5 16q80 0 123.5 -41t43.5 -115v-299
l89 -12q6 -1 6 -7v-7q0 -6 -6 -6l-55 -5q-33 -3 -48 -2t-18.5 6t-3.5 14v70q-14 -21 -44 -42.5t-69.5 -36.5t-82.5 -15zM194 27q49 0 89 16.5t68 38t38 37.5v115l-150 -16q-79 -9 -111 -32.5t-32 -71.5q0 -40 26 -63.5t72 -23.5z" />
    <glyph glyph-name="uni0202" unicode="&#x202;" horiz-adv-x="815" 
d="M408 908q62 0 93 -31.5t43 -73.5q2 -6 -4 -8l-10 -4q-6 -2 -8 4q-14 31 -40 53.5t-74 22.5q-47 0 -73 -22.5t-40 -53.5q-2 -6 -8 -4l-10 4q-6 2 -4 8q12 42 43 73.5t92 31.5zM12 0q-6 0 -6 6v8q0 6 6 7l92 9q14 2 19 17l261 677q2 6 8 8l15 3q6 2 7 -4l9 -38l264 -650
q5 -12 22 -14l89 -8q6 -1 6 -7v-8q0 -6 -6 -6h-284q-6 0 -6 6v8q0 6 6 6l100 8q23 2 26.5 11.5t-4.5 29.5l-88 218q-150 -1 -299 0l-84 -221q-8 -21 -1 -28.5t29 -9.5l103 -8q6 0 6 -6v-8q0 -6 -6 -6h-284zM260 316q138 -3 276 0l-142 349z" />
    <glyph glyph-name="uni0203" unicode="&#x203;" horiz-adv-x="548" 
d="M256 691q62 0 93 -31.5t43 -73.5q2 -6 -4 -8l-10 -4q-6 -2 -8 4q-14 31 -40 53.5t-74 22.5q-47 0 -73 -22.5t-40 -53.5q-2 -6 -8 -4l-10 4q-6 2 -4 8q12 42 43 73.5t92 31.5zM193 -6q-61 0 -98 32.5t-37 86.5q0 61 42.5 93t133.5 41l155 16v70q0 130 -131 130
q-27 0 -52.5 -6t-43 -21.5t-21.5 -45.5l-6 -48q-1 -6 -7 -6h-8q-6 0 -7 6q-4 24 -8 47.5t-8 47.5q-1 6 4 9q22 14 63.5 30t93.5 16q80 0 123.5 -41t43.5 -115v-299l89 -12q6 -1 6 -7v-7q0 -6 -6 -6l-55 -5q-33 -3 -48 -2t-18.5 6t-3.5 14v70q-14 -21 -44 -42.5t-69.5 -36.5
t-82.5 -15zM194 27q49 0 89 16.5t68 38t38 37.5v115l-150 -16q-79 -9 -111 -32.5t-32 -71.5q0 -40 26 -63.5t72 -23.5z" />
    <glyph glyph-name="uni0204" unicode="&#x204;" horiz-adv-x="748" 
d="M495 798l-7 -5q-7 -1 -10 2q-31 22 -69 56t-66 64q-9 10 -9.5 13.5t5.5 8.5q12 6 29 8q6 1 9 -4q16 -23 37 -48.5t43 -49t40 -39.5q5 -4 -2 -6zM315 803l-7 -6q-6 -3 -10 0q-34 16 -77 43t-77 52q-10 8 -11 11.5t4 9.5q11 8 27 12q6 2 10 -2q19 -19 44 -40.5t51 -41
t46 -32.5q6 -3 0 -6zM46 0q-6 0 -6 6v8q0 6 6 7l110 9q13 1 13 18v637q0 17 -13 18l-110 9q-6 1 -6 7v8q0 6 6 6h548l41 3q8 1 10 -2t3 -16l12 -152q0 -6 -6 -7l-11 -3q-6 -1 -7 5l-31 130q-3 13 -20 13h-378v-310h304q12 0 17 17l16 73q1 6 7 6h7q6 0 6 -6v-224q0 -6 -6 -6
h-7q-6 0 -7 6l-17 92q-1 13 -19 13h-301v-323q0 -13 17 -13h367q12 0 19 16l47 133q2 6 8 5l11 -2q6 -1 5 -7l-32 -167q-1 -7 -4.5 -9t-16.5 -1l-34 3h-548z" />
    <glyph glyph-name="uni0205" unicode="&#x205;" horiz-adv-x="535" 
d="M205 549q-5 -2 -8 2q-37 41 -69.5 81t-62.5 82q-7 10 -6.5 14t6.5 8q6 3 13.5 6t13.5 4q7 0 9 -5q24 -47 52.5 -91t61.5 -89q4 -4 -1 -7zM354 544q-6 -1 -9 3q-32 44 -61.5 86.5t-54.5 87.5q-7 11 -6 14.5t8 7.5l13.5 4.5t13.5 2.5q7 0 8 -5q21 -49 45.5 -95.5
t53.5 -93.5q4 -6 -2 -7zM288 -6q-66 0 -116 31t-77.5 87t-27.5 131t27.5 131t77 87t115.5 31q56 0 100 -27.5t69 -75t25 -109.5v-10q-1 -6 -7 -6h-370v-19q0 -63 24 -112.5t66 -77.5t95 -28q87 0 142 45q5 4 8 -1l5 -7q3 -5 -1 -9q-26 -29 -67 -45t-88 -16zM287 459
q-76 0 -122.5 -43.5t-57.5 -123.5h338q-2 48 -23 86t-56 59.5t-79 21.5z" />
    <glyph glyph-name="uni0206" unicode="&#x206;" horiz-adv-x="748" 
d="M375 908q62 0 93 -31.5t43 -73.5q2 -6 -4 -8l-10 -4q-6 -2 -8 4q-14 31 -40 53.5t-74 22.5q-47 0 -73 -22.5t-40 -53.5q-2 -6 -8 -4l-10 4q-6 2 -4 8q12 42 43 73.5t92 31.5zM46 0q-6 0 -6 6v8q0 6 6 7l110 9q13 1 13 18v637q0 17 -13 18l-110 9q-6 1 -6 7v8q0 6 6 6h548
l41 3q8 1 10 -2t3 -16l12 -152q0 -6 -6 -7l-11 -3q-6 -1 -7 5l-31 130q-3 13 -20 13h-378v-310h304q12 0 17 17l16 73q1 6 7 6h7q6 0 6 -6v-224q0 -6 -6 -6h-7q-6 0 -7 6l-17 92q-1 13 -19 13h-301v-323q0 -13 17 -13h367q12 0 19 16l47 133q2 6 8 5l11 -2q6 -1 5 -7
l-32 -167q-1 -7 -4.5 -9t-16.5 -1l-34 3h-548z" />
    <glyph glyph-name="uni0207" unicode="&#x207;" horiz-adv-x="535" 
d="M284 691q62 0 93 -31.5t43 -73.5q2 -6 -4 -8l-10 -4q-6 -2 -8 4q-14 31 -40 53.5t-74 22.5q-47 0 -73 -22.5t-40 -53.5q-2 -6 -8 -4l-10 4q-6 2 -4 8q12 42 43 73.5t92 31.5zM288 -6q-66 0 -116 31t-77.5 87t-27.5 131t27.5 131t77 87t115.5 31q56 0 100 -27.5t69 -75
t25 -109.5v-10q-1 -6 -7 -6h-370v-19q0 -63 24 -112.5t66 -77.5t95 -28q87 0 142 45q5 4 8 -1l5 -7q3 -5 -1 -9q-26 -29 -67 -45t-88 -16zM287 459q-76 0 -122.5 -43.5t-57.5 -123.5h338q-2 48 -23 86t-56 59.5t-79 21.5z" />
    <glyph glyph-name="uni0208" unicode="&#x208;" horiz-adv-x="376" 
d="M308 798l-7 -5q-7 -1 -10 2q-31 22 -69 56t-66 64q-9 10 -9.5 13.5t5.5 8.5q12 6 29 8q6 1 9 -4q16 -23 37 -48.5t43 -49t40 -39.5q5 -4 -2 -6zM128 803l-7 -6q-6 -3 -10 0q-34 16 -77 43t-77 52q-10 8 -11 11.5t4 9.5q11 8 27 12q6 2 10 -2q19 -19 44 -40.5t51 -41
t46 -32.5q6 -3 0 -6zM46 0q-6 0 -6 6v8q0 6 6 7l110 9q13 1 13 18v637q0 17 -13 18l-110 9q-6 1 -6 7v8q0 6 6 6h284q6 0 6 -6v-8q0 -6 -6 -7l-106 -9q-17 0 -17 -14v-645q0 -14 17 -14l106 -9q6 -1 6 -7v-8q0 -6 -6 -6h-284z" />
    <glyph glyph-name="uni0209" unicode="&#x209;" horiz-adv-x="313" 
d="M79 549q-5 -2 -8 2q-37 41 -69.5 81t-62.5 82q-7 10 -6.5 14t6.5 8q6 3 13.5 6t13.5 4q7 0 9 -5q24 -47 52.5 -91t61.5 -89q4 -4 -1 -7zM228 544q-6 -1 -9 3q-32 44 -61.5 86.5t-54.5 87.5q-7 11 -6 14.5t8 7.5l13.5 4.5t13.5 2.5q7 0 8 -5q21 -49 45.5 -95.5t53.5 -93.5
q4 -6 -2 -7zM59 0q-6 0 -6 6v8q0 6 6 7l69 8q8 1 10.5 4.5t2.5 13.5v401l-89 7q-6 1 -6 7v7q0 6 6 7l105 15q13 2 16.5 -0.5t3.5 -10.5v-437q0 -8 3.5 -10.5t13.5 -4.5l89 -7q6 -1 6 -7v-8q0 -6 -6 -6h-224z" />
    <glyph glyph-name="uni020A" unicode="&#x20a;" horiz-adv-x="376" 
d="M188 908q62 0 93 -31.5t43 -73.5q2 -6 -4 -8l-10 -4q-6 -2 -8 4q-14 31 -40 53.5t-74 22.5q-47 0 -73 -22.5t-40 -53.5q-2 -6 -8 -4l-10 4q-6 2 -4 8q12 42 43 73.5t92 31.5zM46 0q-6 0 -6 6v8q0 6 6 7l110 9q13 1 13 18v637q0 17 -13 18l-110 9q-6 1 -6 7v8q0 6 6 6h284
q6 0 6 -6v-8q0 -6 -6 -7l-106 -9q-17 0 -17 -14v-645q0 -14 17 -14l106 -9q6 -1 6 -7v-8q0 -6 -6 -6h-284z" />
    <glyph glyph-name="uni020B" unicode="&#x20b;" horiz-adv-x="313" 
d="M158 691q62 0 93 -31.5t43 -73.5q2 -6 -4 -8l-10 -4q-6 -2 -8 4q-14 31 -40 53.5t-74 22.5q-47 0 -73 -22.5t-40 -53.5q-2 -6 -8 -4l-10 4q-6 2 -4 8q12 42 43 73.5t92 31.5zM59 0q-6 0 -6 6v8q0 6 6 7l69 8q8 1 10.5 4.5t2.5 13.5v401l-89 7q-6 1 -6 7v7q0 6 6 7l105 15
q13 2 16.5 -0.5t3.5 -10.5v-437q0 -8 3.5 -10.5t13.5 -4.5l89 -7q6 -1 6 -7v-8q0 -6 -6 -6h-224z" />
    <glyph glyph-name="uni020C" unicode="&#x20c;" horiz-adv-x="866" 
d="M554 798l-7 -5q-7 -1 -10 2q-31 22 -69 56t-66 64q-9 10 -9.5 13.5t5.5 8.5q12 6 29 8q6 1 9 -4q16 -23 37 -48.5t43 -49t40 -39.5q5 -4 -2 -6zM374 803l-7 -6q-6 -3 -10 0q-34 16 -77 43t-77 52q-10 8 -11 11.5t4 9.5q11 8 27 12q6 2 10 -2q19 -19 44 -40.5t51 -41
t46 -32.5q6 -3 0 -6zM430 -6q-101 0 -178 47t-120 131.5t-43 194.5t43.5 194t120.5 131t177 47q104 0 182 -46.5t121.5 -130.5t43.5 -195q0 -112 -43 -196t-121 -130.5t-183 -46.5zM429 28q94 0 163 42t107.5 118t38.5 179t-38.5 178.5t-107.5 117.5t-163 42q-91 0 -159 -42
t-105 -117.5t-37 -178.5t37.5 -179t105 -118t158.5 -42z" />
    <glyph glyph-name="uni020D" unicode="&#x20d;" horiz-adv-x="593" 
d="M216 549q-5 -2 -8 2q-37 41 -69.5 81t-62.5 82q-7 10 -6.5 14t6.5 8q6 3 13.5 6t13.5 4q7 0 9 -5q24 -47 52.5 -91t61.5 -89q4 -4 -1 -7zM365 544q-6 -1 -9 3q-32 44 -61.5 86.5t-54.5 87.5q-7 11 -6 14.5t8 7.5l13.5 4.5t13.5 2.5q7 0 8 -5q21 -49 45.5 -95.5
t53.5 -93.5q4 -6 -2 -7zM296 -6q-106 0 -167.5 66.5t-61.5 182.5t61.5 182.5t167.5 66.5q107 0 168 -66.5t61 -182.5q0 -117 -61 -183t-168 -66zM296 27q91 0 141.5 57t50.5 159q0 101 -51 158.5t-141 57.5t-141 -57t-51 -159q0 -103 50.5 -159.5t141.5 -56.5z" />
    <glyph glyph-name="uni020E" unicode="&#x20e;" horiz-adv-x="866" 
d="M434 908q62 0 93 -31.5t43 -73.5q2 -6 -4 -8l-10 -4q-6 -2 -8 4q-14 31 -40 53.5t-74 22.5q-47 0 -73 -22.5t-40 -53.5q-2 -6 -8 -4l-10 4q-6 2 -4 8q12 42 43 73.5t92 31.5zM430 -6q-101 0 -178 47t-120 131.5t-43 194.5t43.5 194t120.5 131t177 47q104 0 182 -46.5
t121.5 -130.5t43.5 -195q0 -112 -43 -196t-121 -130.5t-183 -46.5zM429 28q94 0 163 42t107.5 118t38.5 179t-38.5 178.5t-107.5 117.5t-163 42q-91 0 -159 -42t-105 -117.5t-37 -178.5t37.5 -179t105 -118t158.5 -42z" />
    <glyph glyph-name="uni020F" unicode="&#x20f;" horiz-adv-x="593" 
d="M295 691q62 0 93 -31.5t43 -73.5q2 -6 -4 -8l-10 -4q-6 -2 -8 4q-14 31 -40 53.5t-74 22.5q-47 0 -73 -22.5t-40 -53.5q-2 -6 -8 -4l-10 4q-6 2 -4 8q12 42 43 73.5t92 31.5zM296 -6q-106 0 -167.5 66.5t-61.5 182.5t61.5 182.5t167.5 66.5q107 0 168 -66.5t61 -182.5
q0 -117 -61 -183t-168 -66zM296 27q91 0 141.5 57t50.5 159q0 101 -51 158.5t-141 57.5t-141 -57t-51 -159q0 -103 50.5 -159.5t141.5 -56.5z" />
    <glyph glyph-name="uni0210" unicode="&#x210;" horiz-adv-x="718" 
d="M466 798l-7 -5q-7 -1 -10 2q-31 22 -69 56t-66 64q-9 10 -9.5 13.5t5.5 8.5q12 6 29 8q6 1 9 -4q16 -23 37 -48.5t43 -49t40 -39.5q5 -4 -2 -6zM286 803l-7 -6q-6 -3 -10 0q-34 16 -77 43t-77 52q-10 8 -11 11.5t4 9.5q11 8 27 12q6 2 10 -2q19 -19 44 -40.5t51 -41
t46 -32.5q6 -3 0 -6zM46 0q-6 0 -6 6v8q0 6 6 7l110 9q13 1 13 18v637q0 17 -13 18l-110 9q-6 1 -6 7v8q0 6 6 6h338q113 0 178.5 -52.5t65.5 -144.5q0 -91 -64.5 -144t-172.5 -53q31 -17 62 -59l166 -230q8 -11 25 -14l78 -15q6 -1 6 -7v-8q0 -6 -6 -6h-104q-7 0 -11 2.5
t-12 12.5l-172 243q-27 38 -45.5 55t-35.5 21.5t-40 4.5h-95v-295q0 -14 17 -14l106 -9q6 -1 6 -7v-8q0 -6 -6 -6h-284zM384 704h-177v-336h177q93 0 149 46t56 122t-56.5 122t-148.5 46z" />
    <glyph glyph-name="uni0211" unicode="&#x211;" horiz-adv-x="418" 
d="M143 549q-5 -2 -8 2q-37 41 -69.5 81t-62.5 82q-7 10 -6.5 14t6.5 8q6 3 13.5 6t13.5 4q7 0 9 -5q24 -47 52.5 -91t61.5 -89q4 -4 -1 -7zM292 544q-6 -1 -9 3q-32 44 -61.5 86.5t-54.5 87.5q-7 11 -6 14.5t8 7.5l13.5 4.5t13.5 2.5q7 0 8 -5q21 -49 45.5 -95.5
t53.5 -93.5q4 -6 -2 -7zM59 0q-6 0 -6 6v8q0 6 6 7l69 8q8 1 10.5 4.5t2.5 13.5v401l-89 7q-6 1 -6 7v7q0 6 6 7l104 15q13 2 16.5 -0.5t3.5 -10.5v-88l1 -16q17 25 48 52t67.5 45.5t71.5 18.5q25 0 25 -9v-28q0 -6 -6 -6h-58q-15 0 -29 -6q-28 -12 -59.5 -37t-59.5 -62
v-301q0 -8 3.5 -10.5t13.5 -4.5l89 -7q6 -1 6 -7v-8q0 -6 -6 -6h-224z" />
    <glyph glyph-name="uni0212" unicode="&#x212;" horiz-adv-x="718" 
d="M346 908q62 0 93 -31.5t43 -73.5q2 -6 -4 -8l-10 -4q-6 -2 -8 4q-14 31 -40 53.5t-74 22.5q-47 0 -73 -22.5t-40 -53.5q-2 -6 -8 -4l-10 4q-6 2 -4 8q12 42 43 73.5t92 31.5zM46 0q-6 0 -6 6v8q0 6 6 7l110 9q13 1 13 18v637q0 17 -13 18l-110 9q-6 1 -6 7v8q0 6 6 6h338
q113 0 178.5 -52.5t65.5 -144.5q0 -91 -64.5 -144t-172.5 -53q31 -17 62 -59l166 -230q8 -11 25 -14l78 -15q6 -1 6 -7v-8q0 -6 -6 -6h-104q-7 0 -11 2.5t-12 12.5l-172 243q-27 38 -45.5 55t-35.5 21.5t-40 4.5h-95v-295q0 -14 17 -14l106 -9q6 -1 6 -7v-8q0 -6 -6 -6h-284
zM384 704h-177v-336h177q93 0 149 46t56 122t-56.5 122t-148.5 46z" />
    <glyph glyph-name="uni0213" unicode="&#x213;" horiz-adv-x="418" 
d="M222 691q62 0 93 -31.5t43 -73.5q2 -6 -4 -8l-10 -4q-6 -2 -8 4q-14 31 -40 53.5t-74 22.5q-47 0 -73 -22.5t-40 -53.5q-2 -6 -8 -4l-10 4q-6 2 -4 8q12 42 43 73.5t92 31.5zM59 0q-6 0 -6 6v8q0 6 6 7l69 8q8 1 10.5 4.5t2.5 13.5v401l-89 7q-6 1 -6 7v7q0 6 6 7l104 15
q13 2 16.5 -0.5t3.5 -10.5v-88l1 -16q17 25 48 52t67.5 45.5t71.5 18.5q25 0 25 -9v-28q0 -6 -6 -6h-58q-15 0 -29 -6q-28 -12 -59.5 -37t-59.5 -62v-301q0 -8 3.5 -10.5t13.5 -4.5l89 -7q6 -1 6 -7v-8q0 -6 -6 -6h-224z" />
    <glyph glyph-name="uni0214" unicode="&#x214;" horiz-adv-x="869" 
d="M557 798l-7 -5q-7 -1 -10 2q-31 22 -69 56t-66 64q-9 10 -9.5 13.5t5.5 8.5q12 6 29 8q6 1 9 -4q16 -23 37 -48.5t43 -49t40 -39.5q5 -4 -2 -6zM377 803l-7 -6q-6 -3 -10 0q-34 16 -77 43t-77 52q-10 8 -11 11.5t4 9.5q11 8 27 12q6 2 10 -2q19 -19 44 -40.5t51 -41
t46 -32.5q6 -3 0 -6zM25 727q0 6 6 6h284q6 0 6 -6v-8q0 -6 -6 -7l-106 -9q-17 0 -17 -14v-453q0 -96 65 -152t177 -56q113 0 179 61.5t66 167.5v428q0 17 -13 18l-109 9q-6 1 -6 7v8q0 6 6 6h279q6 0 6 -6v-8q0 -6 -6 -7l-104 -9q-17 0 -17 -14v-430q0 -124 -74.5 -194.5
t-206.5 -70.5q-130 0 -205 65.5t-75 179.5v446q0 17 -13 18l-110 9q-6 1 -6 7v8z" />
    <glyph glyph-name="uni0215" unicode="&#x215;" horiz-adv-x="652" 
d="M243 549q-5 -2 -8 2q-37 41 -69.5 81t-62.5 82q-7 10 -6.5 14t6.5 8q6 3 13.5 6t13.5 4q7 0 9 -5q24 -47 52.5 -91t61.5 -89q4 -4 -1 -7zM392 544q-6 -1 -9 3q-32 44 -61.5 86.5t-54.5 87.5q-7 11 -6 14.5t8 7.5l13.5 4.5t13.5 2.5q7 0 8 -5q21 -49 45.5 -95.5
t53.5 -93.5q4 -6 -2 -7zM266 -6q-141 0 -141 153v301l-89 7q-6 1 -6 7v7q0 6 6 7l105 15q13 2 16.5 -0.5t3.5 -10.5v-333q0 -119 106 -119q115 0 217 106v314l-89 7q-6 1 -6 7v7q0 6 6 7l105 15q13 2 16.5 -0.5t3.5 -10.5v-443l90 -12q6 -1 6 -7v-7q0 -6 -6 -7l-117 -10
q-9 0 -9 11v96q-43 -48 -101 -77.5t-117 -29.5z" />
    <glyph glyph-name="uni0216" unicode="&#x216;" horiz-adv-x="869" 
d="M437 908q62 0 93 -31.5t43 -73.5q2 -6 -4 -8l-10 -4q-6 -2 -8 4q-14 31 -40 53.5t-74 22.5q-47 0 -73 -22.5t-40 -53.5q-2 -6 -8 -4l-10 4q-6 2 -4 8q12 42 43 73.5t92 31.5zM25 727q0 6 6 6h284q6 0 6 -6v-8q0 -6 -6 -7l-106 -9q-17 0 -17 -14v-453q0 -96 65 -152
t177 -56q113 0 179 61.5t66 167.5v428q0 17 -13 18l-109 9q-6 1 -6 7v8q0 6 6 6h279q6 0 6 -6v-8q0 -6 -6 -7l-104 -9q-17 0 -17 -14v-430q0 -124 -74.5 -194.5t-206.5 -70.5q-130 0 -205 65.5t-75 179.5v446q0 17 -13 18l-110 9q-6 1 -6 7v8z" />
    <glyph glyph-name="uni0217" unicode="&#x217;" horiz-adv-x="652" 
d="M322 691q62 0 93 -31.5t43 -73.5q2 -6 -4 -8l-10 -4q-6 -2 -8 4q-14 31 -40 53.5t-74 22.5q-47 0 -73 -22.5t-40 -53.5q-2 -6 -8 -4l-10 4q-6 2 -4 8q12 42 43 73.5t92 31.5zM266 -6q-141 0 -141 153v301l-89 7q-6 1 -6 7v7q0 6 6 7l105 15q13 2 16.5 -0.5t3.5 -10.5
v-333q0 -119 106 -119q115 0 217 106v314l-89 7q-6 1 -6 7v7q0 6 6 7l105 15q13 2 16.5 -0.5t3.5 -10.5v-443l90 -12q6 -1 6 -7v-7q0 -6 -6 -7l-117 -10q-9 0 -9 11v96q-43 -48 -101 -77.5t-117 -29.5z" />
    <glyph glyph-name="uni0218" unicode="&#x218;" horiz-adv-x="654" 
d="M334 395q90 -24 141.5 -51t73 -64.5t21.5 -93.5q0 -91 -66 -141.5t-184 -50.5q-42 0 -84.5 8t-78.5 21.5t-58 27.5q-5 2 -6 9l-10 128q-1 6 5 6l13 1q6 0 7 -6l15 -64q7 -32 29 -51t51.5 -29t60.5 -13.5t56 -3.5q101 0 156 41t55 117q0 48 -17.5 78.5t-62.5 52.5t-128 44
q-84 23 -133 49t-70 61t-21 84q0 88 65.5 136t183.5 48q45 0 83 -10t65.5 -24t40.5 -26q4 -4 5 -10l10 -126q1 -6 -5 -6l-16 -1q-6 0 -7 6l-20 85q-7 32 -35 48.5t-61.5 23t-59.5 6.5q-210 0 -210 -150q0 -40 18.5 -68.5t61.5 -50t116 -41.5zM285 -246q-6 -2 -10 3l-1 1
q-4 5 2 7q23 10 41 25.5t18 37.5q0 19 -13.5 33t-27.5 23q-5 4 -2 9q8 8 20.5 16t22.5 8q14 0 26 -19.5t12 -44.5q0 -29 -14 -49t-34 -32t-40 -18z" />
    <glyph glyph-name="uni0219" unicode="&#x219;" horiz-adv-x="510" 
d="M276 265q64 -21 99 -40t49.5 -41t14.5 -54q0 -65 -50 -100.5t-142 -35.5q-50 0 -91.5 10.5t-60.5 22.5q-5 4 -6 10l-10 106q-1 6 5 7l12 2q6 1 7 -5l15 -58q9 -37 39.5 -51.5t91.5 -14.5q74 0 112.5 27t38.5 77q0 35 -30 58t-110 49q-62 20 -97.5 38t-50 40.5t-14.5 53.5
q0 57 49 91.5t131 34.5q41 0 79 -9t51 -16q5 -2 5 -9l9 -110q0 -6 -6 -6l-15 -2q-6 0 -7 6l-8 54q-7 41 -39.5 52t-70.5 11q-64 0 -102 -25t-38 -68q0 -23 12.5 -40t43 -32t84.5 -33zM212 -246q-6 -2 -10 3l-1 1q-4 5 2 7q23 10 41 25.5t18 37.5q0 19 -13.5 33t-27.5 23
q-5 4 -2 9q8 8 20.5 16t22.5 8q14 0 26 -19.5t12 -44.5q0 -29 -14 -49t-34 -32t-40 -18z" />
    <glyph glyph-name="uni021A" unicode="&#x21a;" horiz-adv-x="639" 
d="M178 0q-6 0 -6 6v8q0 6 6 7l110 9q13 1 13 18v656h-221q-13 0 -16 -17l-30 -145q-1 -6 -7 -5l-11 2q-6 1 -6 7l12 182q1 8 4 10t16 1l32 -3q52 -2 110 -2.5t136 -0.5q52 0 90 0.5t74 1t81 1.5l39 3q8 1 10 -2t3 -16l12 -175q0 -6 -6 -7l-11 -2q-6 -1 -7 5l-29 149
q-3 13 -20 13h-217v-660q0 -14 17 -14l106 -9q6 -1 6 -7v-8q0 -6 -6 -6h-284zM277 -246q-6 -2 -10 3l-1 1q-4 5 2 7q23 10 41 25.5t18 37.5q0 19 -13.5 33t-27.5 23q-5 4 -2 9q8 8 20.5 16t22.5 8q14 0 26 -19.5t12 -44.5q0 -29 -14 -49t-34 -32t-40 -18z" />
    <glyph glyph-name="uni021B" unicode="&#x21b;" horiz-adv-x="377" 
d="M234 -6q-123 0 -123 130v331h-75q-6 0 -5 6l3 10q1 6 7 7l70 8v92q0 6 6 8q11 3 24 3q6 0 6 -6v-97h154l41 2q6 0 6 -6v-10.5t-1 -10.5q-1 -6 -7 -6h-193v-331q0 -51 24.5 -75t77.5 -24q40 0 79 13q6 2 7 -4l1 -11q1 -5 -4 -9q-21 -9 -46.5 -14.5t-51.5 -5.5zM181 -246
q-6 -2 -10 3l-1 1q-4 5 2 7q23 10 41 25.5t18 37.5q0 19 -13.5 33t-27.5 23q-5 4 -2 9q8 8 20.5 16t22.5 8q14 0 26 -19.5t12 -44.5q0 -29 -14 -49t-34 -32t-40 -18z" />
    <glyph glyph-name="uni022A" unicode="&#x22a;" horiz-adv-x="866" 
d="M430 -6q-101 0 -178 47t-120 131.5t-43 194.5t43.5 194t120.5 131t177 47q104 0 182 -46.5t121.5 -130.5t43.5 -195q0 -112 -43 -196t-121 -130.5t-183 -46.5zM429 28q94 0 163 42t107.5 118t38.5 179t-38.5 178.5t-107.5 117.5t-163 42q-91 0 -159 -42t-105 -117.5
t-37 -178.5t37.5 -179t105 -118t158.5 -42zM339 798q-15 0 -24 9t-9 22q0 14 9 22.5t24 8.5q14 0 23 -8.5t9 -22.5q0 -13 -9 -22t-23 -9zM529 798q-14 0 -23 9t-9 22q0 14 9 22.5t23 8.5t23.5 -8.5t9.5 -22.5q0 -13 -9.5 -22t-23.5 -9zM303 933q1 6 7 6h178l69 2q6 0 6 -6
q0 -5 -0.5 -9.5t-1.5 -9.5q-1 -6 -7 -6h-244q-6 0 -7 6q-2 8 0 17z" />
    <glyph glyph-name="uni022B" unicode="&#x22b;" horiz-adv-x="593" 
d="M296 -6q-106 0 -167.5 66.5t-61.5 182.5t61.5 182.5t167.5 66.5q107 0 168 -66.5t61 -182.5q0 -117 -61 -183t-168 -66zM296 27q91 0 141.5 57t50.5 159q0 101 -51 158.5t-141 57.5t-141 -57t-51 -159q0 -103 50.5 -159.5t141.5 -56.5zM201 600q-15 0 -24 9t-9 22
q0 14 9 23t24 9q14 0 23 -9t9 -23q0 -13 -9 -22t-23 -9zM391 600q-14 0 -23 9t-9 22q0 14 9 23t23 9t23.5 -9t9.5 -23q0 -13 -9.5 -22t-23.5 -9zM167 760q1 6 7 6h178l69 2q6 0 6 -6q0 -5 -0.5 -9.5t-1.5 -9.5q-1 -6 -7 -6h-244q-6 0 -7 6q-2 8 0 17z" />
    <glyph glyph-name="uni022C" unicode="&#x22c;" horiz-adv-x="866" 
d="M430 -6q-101 0 -178 47t-120 131.5t-43 194.5t43.5 194t120.5 131t177 47q104 0 182 -46.5t121.5 -130.5t43.5 -195q0 -112 -43 -196t-121 -130.5t-183 -46.5zM429 28q94 0 163 42t107.5 118t38.5 179t-38.5 178.5t-107.5 117.5t-163 42q-91 0 -159 -42t-105 -117.5
t-37 -178.5t37.5 -179t105 -118t158.5 -42zM303 792q-5 4 -4 9q9 33 24 47.5t40 14.5q26 0 50 -11.5t47 -23.5t45 -12q34 0 49 32q3 6 7 3l4 -1q5 -4 4 -9q-9 -32 -24 -46.5t-40 -14.5q-26 0 -50 12t-46.5 23.5t-45.5 11.5q-35 0 -49 -33q-3 -6 -7 -3zM303 929q1 6 7 6h178
l69 2q6 0 6 -6q0 -5 -0.5 -9.5t-1.5 -9.5q-1 -6 -7 -6h-244q-6 0 -7 6q-2 8 0 17z" />
    <glyph glyph-name="uni022D" unicode="&#x22d;" horiz-adv-x="593" 
d="M296 -6q-106 0 -167.5 66.5t-61.5 182.5t61.5 182.5t167.5 66.5q107 0 168 -66.5t61 -182.5q0 -117 -61 -183t-168 -66zM296 27q91 0 141.5 57t50.5 159q0 101 -51 158.5t-141 57.5t-141 -57t-51 -159q0 -103 50.5 -159.5t141.5 -56.5zM165 599q-5 4 -4 9q9 33 24 47.5
t40 14.5q26 0 50 -11.5t47 -23.5t45 -12q34 0 49 32q3 6 7 3l4 -1q5 -4 4 -9q-9 -32 -24 -46.5t-40 -14.5q-26 0 -50 12t-46.5 23.5t-45.5 11.5q-35 0 -49 -33q-3 -6 -7 -3zM167 761q1 6 7 6h178l69 2q6 0 6 -6q0 -5 -0.5 -9.5t-1.5 -9.5q-1 -6 -7 -6h-244q-6 0 -7 6
q-2 8 0 17z" />
    <glyph glyph-name="uni0230" unicode="&#x230;" horiz-adv-x="866" 
d="M430 -6q-101 0 -178 47t-120 131.5t-43 194.5t43.5 194t120.5 131t177 47q104 0 182 -46.5t121.5 -130.5t43.5 -195q0 -112 -43 -196t-121 -130.5t-183 -46.5zM429 28q94 0 163 42t107.5 118t38.5 179t-38.5 178.5t-107.5 117.5t-163 42q-91 0 -159 -42t-105 -117.5
t-37 -178.5t37.5 -179t105 -118t158.5 -42zM434 798q-15 0 -24 9t-9 22q0 14 9 22.5t24 8.5q14 0 23 -8.5t9 -22.5q0 -13 -9 -22t-23 -9zM303 933q1 6 7 6h178l69 2q6 0 6 -6q0 -5 -0.5 -9.5t-1.5 -9.5q-1 -6 -7 -6h-244q-6 0 -7 6q-2 8 0 17z" />
    <glyph glyph-name="uni0231" unicode="&#x231;" horiz-adv-x="593" 
d="M296 -6q-106 0 -167.5 66.5t-61.5 182.5t61.5 182.5t167.5 66.5q107 0 168 -66.5t61 -182.5q0 -117 -61 -183t-168 -66zM296 27q91 0 141.5 57t50.5 159q0 101 -51 158.5t-141 57.5t-141 -57t-51 -159q0 -103 50.5 -159.5t141.5 -56.5zM296 600q-15 0 -24 9t-9 22
q0 14 9 23t24 9q14 0 23 -9t9 -23q0 -13 -9 -22t-23 -9zM167 760q1 6 7 6h178l69 2q6 0 6 -6q0 -5 -0.5 -9.5t-1.5 -9.5q-1 -6 -7 -6h-244q-6 0 -7 6q-2 8 0 17z" />
    <glyph glyph-name="uni0232" unicode="&#x232;" horiz-adv-x="808" 
d="M268 0q-6 0 -6 6v8q0 6 6 7l110 9q13 1 13 18v256l-262 385q-7 11 -24 13l-88 9q-6 1 -6 7v9q0 6 6 6h288q6 0 6 -6v-9q0 -6 -6 -6l-104 -8q-22 -1 -24 -10t10 -27l227 -333l214 335q12 19 6.5 26t-27.5 8l-95 8q-6 1 -6 7v9q0 6 6 6h284q6 0 6 -6v-9q0 -6 -6 -7l-99 -10
q-14 -2 -22 -15l-246 -383v-259q0 -14 17 -14l106 -9q6 -1 6 -7v-8q0 -6 -6 -6h-284zM272 829q1 6 7 6h178l69 2q6 0 6 -6q0 -5 -0.5 -9.5t-1.5 -9.5q-1 -6 -7 -6h-244q-6 0 -7 6q-2 8 0 17z" />
    <glyph glyph-name="uni0233" unicode="&#x233;" horiz-adv-x="514" 
d="M110 -211q-16 0 -26.5 6t-10.5 18q0 10 5 18q3 5 9 4q8 -2 17 -3.5t19 -1.5q30 0 49.5 18t36.5 57l51 116l-214 425q-6 12 -23 14l-52 4q-6 1 -6 7v9q0 6 6 6h216q6 0 6 -6v-9q0 -6 -6 -6l-69 -5q-22 -1 -25.5 -10t6.5 -29l179 -359l160 362q9 21 2.5 28.5t-28.5 8.5
l-66 4q-6 0 -6 6v9q0 6 6 6h208q6 0 6 -6v-9q0 -6 -6 -7l-54 -5q-14 -2 -20 -17l-244 -548q-25 -55 -54.5 -80t-71.5 -25zM146 633q1 6 7 6h178l69 2q6 0 6 -6q0 -5 -0.5 -9.5t-1.5 -9.5q-1 -6 -7 -6h-244q-6 0 -7 6q-2 8 0 17z" />
    <glyph glyph-name="uni0237" unicode="&#x237;" horiz-adv-x="248" 
d="M-25 -171q-3 4 2 8q55 31 85 63t42 76t12 110v361l-89 7q-6 1 -6 7v7q0 6 6 7l105 15q13 2 16.5 -0.5t3.5 -10.5v-393q0 -70 -14.5 -117.5t-50.5 -82.5t-99 -69q-4 -3 -8 2z" />
    <glyph glyph-name="uni0259" unicode="&#x259;" horiz-adv-x="535" 
d="M247 492q67 0 116.5 -31t77 -87t27.5 -131t-27.5 -131t-76.5 -87t-116 -31q-56 0 -100 27.5t-69 75.5t-25 109v10q1 6 7 6h370v19q0 63 -24 112.5t-65.5 77.5t-95.5 28q-87 0 -142 -45q-5 -4 -8 1l-5 7q-3 5 1 9q26 29 67 45t88 16zM248 27q76 0 122.5 43.5t57.5 123.5
h-338q2 -48 23 -86t56 -59.5t79 -21.5z" />
    <glyph glyph-name="uni02B9" unicode="&#x2b9;" horiz-adv-x="250" 
d="M120 514q-6 -1 -6 5q-1 29 -2.5 64.5t-3.5 70t-3.5 62t-3.5 39.5q-1 5 4 9q8 3 18 5t20 1q6 0 6 -6l-12 -240q0 -6 -6 -7z" />
    <glyph glyph-name="uni02BA" unicode="&#x2ba;" horiz-adv-x="398" 
d="M120 514q-6 -1 -6 5q-1 29 -2.5 64.5t-3.5 70t-3.5 62t-3.5 39.5q-1 5 4 9q8 3 18 5t20 1q6 0 6 -6l-12 -240q0 -6 -6 -7zM268 514q-6 -1 -6 5q-1 29 -2.5 64.5t-3.5 70t-3.5 62t-3.5 39.5q-1 5 4 9q8 3 18 5t20 1q6 0 6 -6l-12 -240q0 -6 -6 -7z" />
    <glyph glyph-name="uni02BB" unicode="&#x2bb;" horiz-adv-x="290" 
d="M191 769q5 4 9 -2l3 -4q4 -5 -1 -8q-22 -16 -41 -41t-19 -65q0 -32 14 -53.5t28 -35.5q4 -4 1 -9q-7 -12 -20 -24.5t-23 -12.5q-13 0 -26 30.5t-13 71.5q0 45 14 75.5t34.5 49.5t39.5 28z" />
    <glyph glyph-name="uni02BC" unicode="&#x2bc;" horiz-adv-x="290" 
d="M99 515q-5 -4 -9 2l-3 4q-4 5 1 8q23 16 41.5 41t18.5 65q0 32 -14 53.5t-28 35.5q-4 4 -1 9q7 12 20 24.5t23 12.5q14 0 26.5 -30.5t12.5 -71.5q0 -45 -14 -75.5t-34 -49t-40 -28.5z" />
    <glyph glyph-name="uni02BE" unicode="&#x2be;" horiz-adv-x="265" 
d="M20 418v27q81 0 125 35.5t44 99.5t-44 98.5t-125 34.5v27q98 0 151.5 -42t53.5 -118q0 -77 -53.5 -119.5t-151.5 -42.5z" />
    <glyph glyph-name="uni02BF" unicode="&#x2bf;" horiz-adv-x="265" 
d="M245 418q-97 0 -151 42.5t-54 119.5q0 76 54 118t151 42v-27q-81 0 -125 -34.5t-44 -98.5t44 -99.5t125 -35.5v-27z" />
    <glyph glyph-name="circumflex" unicode="&#x2c6;" horiz-adv-x="338" 
d="M33 560q-5 3 -1 8q29 34 58 71t62 83q3 5 9 5h13q7 0 9 -5q34 -46 63 -83t60 -71q4 -4 -1 -7q-2 -1 -4.5 -2.5t-5.5 -3.5q-6 -2 -10 2q-27 24 -57 54t-62 65q-30 -35 -59 -65t-56 -54q-4 -4 -10 -2q-2 1 -4 2.5t-4 2.5z" />
    <glyph glyph-name="caron" unicode="&#x2c7;" horiz-adv-x="338" 
d="M305 732q5 -3 1 -8q-29 -34 -58 -70.5t-62 -83.5q-2 -5 -9 -5h-13q-6 0 -9 5q-34 47 -63 83.5t-60 70.5q-4 4 1 7q2 2 4.5 3.5t5.5 2.5q6 2 10 -2q27 -24 57 -54t62 -65q30 35 59 65t56 54q4 4 10 2l4 -2t4 -3z" />
    <glyph glyph-name="uni02C8" unicode="&#x2c8;" horiz-adv-x="270" 
d="M126 519q-6 0 -6 6v210q0 6 6 6h18q6 0 6 -6v-210q0 -6 -6 -6h-18z" />
    <glyph glyph-name="uni02C9" unicode="&#x2c9;" horiz-adv-x="321" 
d="M31 633q1 6 7 6h178l69 2q6 0 6 -6q0 -5 -0.5 -9.5t-1.5 -9.5q-1 -6 -7 -6h-244q-6 0 -7 6q-2 8 0 17z" />
    <glyph glyph-name="uni02CA" unicode="&#x2ca;" horiz-adv-x="233" 
d="M50 553q-4 -4 -9 -1l-8 6q-5 3 -1 7q37 41 69.5 83t60.5 86q3 5 9 4t13 -4.5t13 -7.5t6 -8t-8 -14q-33 -40 -69 -76.5t-76 -74.5z" />
    <glyph glyph-name="uni02CB" unicode="&#x2cb;" horiz-adv-x="233" 
d="M192 552q-5 -3 -9 1q-40 38 -76 74.5t-69 76.5q-8 10 -8 14t6 8t13 7.5t13 4.5t9 -4q29 -44 61 -86t69 -83q4 -4 -1 -7z" />
    <glyph glyph-name="uni02CC" unicode="&#x2cc;" horiz-adv-x="270" 
d="M126 -222q-6 0 -6 6v210q0 6 6 6h18q6 0 6 -6v-210q0 -6 -6 -6h-18z" />
    <glyph glyph-name="breve" unicode="&#x2d8;" horiz-adv-x="333" 
d="M166 573q-61 0 -92 31.5t-43 73.5q-2 6 4 8l10 4q6 2 8 -4q14 -31 40 -53.5t73 -22.5q48 0 74 22.5t40 53.5q2 6 8 4l10 -4q6 -2 4 -8q-12 -42 -43 -73.5t-93 -31.5z" />
    <glyph glyph-name="dotaccent" unicode="&#x2d9;" horiz-adv-x="125" 
d="M63 600q-15 0 -24 9t-9 22q0 14 9 23t24 9q14 0 23 -9t9 -23q0 -13 -9 -22t-23 -9z" />
    <glyph glyph-name="ring" unicode="&#x2da;" horiz-adv-x="241" 
d="M121 542q-40 0 -65.5 24t-25.5 61q0 36 25.5 60t65.5 24t65 -24t25 -60q0 -37 -25 -61t-65 -24zM121 567q28 0 44.5 17.5t16.5 42.5t-16.5 42t-44.5 17t-45 -17t-17 -42t17 -42.5t45 -17.5z" />
    <glyph glyph-name="ogonek" unicode="&#x2db;" horiz-adv-x="210" 
d="M106 -218q-34 0 -55 18.5t-21 49.5q0 34 24.5 73t78.5 91l14 -14q-43 -49 -62 -83t-19 -62q0 -44 51 -44q14 0 25.5 2.5t25.5 7.5q6 2 8 -4l3 -8q3 -6 -3 -9q-31 -18 -70 -18z" />
    <glyph glyph-name="tilde" unicode="&#x2dc;" horiz-adv-x="330" 
d="M34 599q-5 4 -4 9q9 33 24 47.5t40 14.5q26 0 50 -11.5t47 -23.5t45 -12q34 0 49 32q3 6 7 3l4 -1q5 -4 4 -9q-9 -32 -24 -46.5t-40 -14.5q-26 0 -50 12t-46.5 23.5t-45.5 11.5q-35 0 -49 -33q-3 -6 -7 -3z" />
    <glyph glyph-name="hungarumlaut" unicode="&#x2dd;" horiz-adv-x="390" 
d="M207 553q-4 -4 -9 -1l-8 6q-5 3 -1 7q37 41 69.5 83t60.5 86q3 5 9 4t13 -4.5t13 -7.5t6 -8t-8 -14q-33 -40 -69 -76.5t-76 -74.5zM50 553q-4 -4 -9 -1l-8 6q-5 3 -1 7q37 41 69.5 83t60.5 86q3 5 9 4t13 -4.5t13 -7.5t6 -8t-8 -14q-33 -40 -69 -76.5t-76 -74.5z" />
    <glyph glyph-name="gravecomb" unicode="&#x300;" horiz-adv-x="0" 
d="M192 552q-5 -3 -9 1q-40 38 -76 74.5t-69 76.5q-8 10 -8 14t6 8t13 7.5t13 4.5t9 -4q29 -44 61 -86t69 -83q4 -4 -1 -7z" />
    <glyph glyph-name="acutecomb" unicode="&#x301;" horiz-adv-x="0" 
d="M50 553q-4 -4 -9 -1l-8 6q-5 3 -1 7q37 41 69.5 83t60.5 86q3 5 9 4t13 -4.5t13 -7.5t6 -8t-8 -14q-33 -40 -69 -76.5t-76 -74.5z" />
    <glyph glyph-name="uni0302" unicode="&#x302;" horiz-adv-x="0" 
d="M33 560q-5 3 -1 8q29 34 58 71t62 83q3 5 9 5h13q7 0 9 -5q34 -46 63 -83t60 -71q4 -4 -1 -7q-2 -1 -4.5 -2.5t-5.5 -3.5q-6 -2 -10 2q-27 24 -57 54t-62 65q-30 -35 -59 -65t-56 -54q-4 -4 -10 -2q-2 1 -4 2.5t-4 2.5z" />
    <glyph glyph-name="tildecomb" unicode="&#x303;" horiz-adv-x="0" 
d="M34 599q-5 4 -4 9q9 33 24 47.5t40 14.5q26 0 50 -11.5t47 -23.5t45 -12q34 0 49 32q3 6 7 3l4 -1q5 -4 4 -9q-9 -32 -24 -46.5t-40 -14.5q-26 0 -50 12t-46.5 23.5t-45.5 11.5q-35 0 -49 -33q-3 -6 -7 -3z" />
    <glyph glyph-name="uni0304" unicode="&#x304;" horiz-adv-x="0" 
d="M31 633q1 6 7 6h178l69 2q6 0 6 -6q0 -5 -0.5 -9.5t-1.5 -9.5q-1 -6 -7 -6h-244q-6 0 -7 6q-2 8 0 17z" />
    <glyph glyph-name="uni0306" unicode="&#x306;" horiz-adv-x="0" 
d="M166 573q-61 0 -92 31.5t-43 73.5q-2 6 4 8l10 4q6 2 8 -4q14 -31 40 -53.5t73 -22.5q48 0 74 22.5t40 53.5q2 6 8 4l10 -4q6 -2 4 -8q-12 -42 -43 -73.5t-93 -31.5z" />
    <glyph glyph-name="uni0307" unicode="&#x307;" horiz-adv-x="0" 
d="M63 600q-15 0 -24 9t-9 22q0 14 9 23t24 9q14 0 23 -9t9 -23q0 -13 -9 -22t-23 -9z" />
    <glyph glyph-name="uni0308" unicode="&#x308;" horiz-adv-x="0" 
d="M63 600q-15 0 -24 9t-9 22q0 14 9 23t24 9q14 0 23 -9t9 -23q0 -13 -9 -22t-23 -9zM253 600q-14 0 -23 9t-9 22q0 14 9 23t23 9t23.5 -9t9.5 -23q0 -13 -9.5 -22t-23.5 -9z" />
    <glyph glyph-name="hookabovecomb" unicode="&#x309;" horiz-adv-x="0" 
d="M87 557q-5 -2 -9 3q-5 8 -12 19t-7 23q0 20 10 29t43 17q29 8 38.5 12t9.5 15q0 17 -27.5 30t-97.5 17q-6 0 -5 6q4 14 9 25q3 5 9 5q78 -7 109.5 -31t31.5 -50q0 -25 -17.5 -37t-47.5 -20t-33.5 -19t6.5 -33q3 -4 -2 -7z" />
    <glyph glyph-name="uni030A" unicode="&#x30a;" horiz-adv-x="0" 
d="M121 542q-40 0 -65.5 24t-25.5 61q0 36 25.5 60t65.5 24t65 -24t25 -60q0 -37 -25 -61t-65 -24zM121 567q28 0 44.5 17.5t16.5 42.5t-16.5 42t-44.5 17t-45 -17t-17 -42t17 -42.5t45 -17.5z" />
    </font>
</defs>
</svg>
